<?xml version="1.0" encoding="UTF-8" standalone="no"?>
<!DOCTYPE svg PUBLIC "-//W3C//DTD SVG 1.1//EN"
 "http://www.w3.org/Graphics/SVG/1.1/DTD/svg11.dtd">
<!-- Generated by graphviz version 2.36.0 (20140111.2315)
 -->
<!-- Title: %3 Pages: 1 -->
<svg width="356pt" height="565pt"
 viewBox="0.00 0.00 356.00 565.00" xmlns="http://www.w3.org/2000/svg" xmlns:xlink="http://www.w3.org/1999/xlink">
<g id="graph0" class="graph" transform="scale(1 1) rotate(0) translate(4 561)">
<title>%3</title>
<polygon fill="white" stroke="none" points="-4,4 -4,-561 352,-561 352,4 -4,4"/>
<!-- 2.F -->
<g id="node1" class="node"><title>2.F</title>
<polygon fill="#ccffcc" stroke="black" points="250,-557 196,-557 196,-521 250,-521 250,-557"/>
<text text-anchor="middle" x="223" y="-535.3" font-family="Times,serif" font-size="14.00">2.F</text>
</g>
<!-- 2.A -->
<g id="node2" class="node"><title>2.A</title>
<polygon fill="#ccffcc" stroke="black" points="54,-273 0,-273 0,-237 54,-237 54,-273"/>
<text text-anchor="middle" x="27" y="-251.3" font-family="Times,serif" font-size="14.00">2.A</text>
</g>
<!-- 2.F&#45;&gt;2.A -->
<g id="edge14" class="edge"><title>2.F&#45;&gt;2.A</title>
<path fill="none" stroke="#67281d" stroke-width="6" d="M195.929,-539.369C167.453,-538.258 122.625,-531.793 98,-504 41.4036,-440.122 30.2605,-333.851 28.2752,-283.34"/>
<polygon fill="#67281d" stroke="#67281d" stroke-width="6" points="33.5175,-282.999 27.9717,-273.16 23.0221,-283.312 33.5175,-282.999"/>
<text text-anchor="middle" x="125" y="-536.8" font-family="Times,serif" font-size="14.00">6</text>
</g>
<!-- 1.A -->
<g id="node5" class="node"><title>1.A</title>
<polygon fill="#ffffcc" stroke="black" points="152,-185.544 152,-200.456 136.184,-211 113.816,-211 98,-200.456 98,-185.544 113.816,-175 136.184,-175 152,-185.544"/>
<text text-anchor="middle" x="125" y="-189.3" font-family="Times,serif" font-size="14.00">1.A</text>
</g>
<!-- 2.F&#45;&gt;1.A -->
<g id="edge13" class="edge"><title>2.F&#45;&gt;1.A</title>
<path fill="none" stroke="#2a7e4a" stroke-width="2" d="M206.538,-520.734C194.31,-505.148 178.008,-481.576 170,-458 141.295,-373.494 172.792,-344.792 152,-258 148.956,-245.293 143.883,-231.795 139.023,-220.412"/>
<polygon fill="#2a7e4a" stroke="#2a7e4a" stroke-width="2" points="142.114,-218.75 134.862,-211.026 135.715,-221.586 142.114,-218.75"/>
<text text-anchor="middle" x="174" y="-477.8" font-family="Times,serif" font-size="14.00">2</text>
</g>
<!-- 2.A\n1.A -->
<g id="node9" class="node"><title>2.A\n1.A</title>
<polygon fill="#eeeeee" stroke="black" points="144,-423 106,-423 106,-385 144,-385 144,-423"/>
<polyline fill="none" stroke="black" points="118,-423 106,-411 "/>
<polyline fill="none" stroke="black" points="106,-397 118,-385 "/>
<polyline fill="none" stroke="black" points="132,-385 144,-397 "/>
<polyline fill="none" stroke="black" points="144,-411 132,-423 "/>
<text text-anchor="middle" x="125" y="-407.8" font-family="Times,serif" font-size="14.00">2.A</text>
<text text-anchor="middle" x="125" y="-392.8" font-family="Times,serif" font-size="14.00">1.A</text>
</g>
<!-- 2.F&#45;&gt;2.A\n1.A -->
<g id="edge15" class="edge"><title>2.F&#45;&gt;2.A\n1.A</title>
<path fill="none" stroke="#1b9356" d="M195.816,-528.153C186.71,-523.36 177.027,-516.977 170,-509 150.739,-487.136 139.071,-455.633 132.637,-432.843"/>
<polygon fill="#1b9356" stroke="#1b9356" points="135.987,-431.82 130.041,-423.051 129.221,-433.614 135.987,-431.82"/>
<text text-anchor="middle" x="174" y="-518.8" font-family="Times,serif" font-size="14.00">1</text>
</g>
<!-- 2.G -->
<g id="node3" class="node"><title>2.G</title>
<polygon fill="#ccffcc" stroke="black" points="250,-298 196,-298 196,-262 250,-262 250,-298"/>
<text text-anchor="middle" x="223" y="-276.3" font-family="Times,serif" font-size="14.00">2.G</text>
</g>
<!-- 2.G&#45;&gt;2.A -->
<g id="edge17" class="edge"><title>2.G&#45;&gt;2.A</title>
<path fill="none" stroke="#583d29" stroke-width="5" d="M195.836,-276.628C161.897,-272.255 102.52,-264.603 64.253,-259.672"/>
<polygon fill="#583d29" stroke="#583d29" stroke-width="5" points="64.5355,-255.297 54.0583,-258.358 63.417,-263.975 64.5355,-255.297"/>
<text text-anchor="middle" x="125" y="-273.8" font-family="Times,serif" font-size="14.00">5</text>
</g>
<!-- 2.G&#45;&gt;1.A -->
<g id="edge16" class="edge"><title>2.G&#45;&gt;1.A</title>
<path fill="none" stroke="#1b9356" d="M220.337,-261.709C217.011,-237.153 207.128,-194.376 178,-175 170.289,-169.871 160.962,-171.207 152.348,-174.848"/>
<polygon fill="#1b9356" stroke="#1b9356" points="150.649,-171.787 143.391,-179.506 153.878,-177.997 150.649,-171.787"/>
<text text-anchor="middle" x="174" y="-178.8" font-family="Times,serif" font-size="14.00">1</text>
</g>
<!-- 2.G&#45;&gt;2.A\n1.A -->
<g id="edge18" class="edge"><title>2.G&#45;&gt;2.A\n1.A</title>
<path fill="none" stroke="#1b9356" d="M208.041,-298.031C192.039,-318.7 165.637,-352.802 147.117,-376.725"/>
<polygon fill="#1b9356" stroke="#1b9356" points="144.278,-374.673 140.924,-384.723 149.814,-378.958 144.278,-374.673"/>
<text text-anchor="middle" x="174" y="-348.8" font-family="Times,serif" font-size="14.00">1</text>
</g>
<!-- 1.E -->
<g id="node4" class="node"><title>1.E</title>
<polygon fill="#ffffcc" stroke="black" points="250,-342.544 250,-357.456 234.184,-368 211.816,-368 196,-357.456 196,-342.544 211.816,-332 234.184,-332 250,-342.544"/>
<text text-anchor="middle" x="223" y="-346.3" font-family="Times,serif" font-size="14.00">1.E</text>
</g>
<!-- 1.E&#45;&gt;1.A -->
<g id="edge5" class="edge"><title>1.E&#45;&gt;1.A</title>
<path fill="none" stroke="#583d29" stroke-width="5" d="M209.899,-333.148C204.916,-325.492 199.501,-316.122 196,-307 180.756,-267.288 205.286,-245.632 178,-213 173.725,-207.887 167.983,-204.077 161.875,-201.24"/>
<polygon fill="#583d29" stroke="#583d29" stroke-width="5" points="163.035,-197 152.133,-197.534 159.924,-205.179 163.035,-197"/>
<text text-anchor="middle" x="174" y="-216.8" font-family="Times,serif" font-size="14.00">5</text>
</g>
<!-- 1.E&#45;&gt;2.A\n1.A -->
<g id="edge6" class="edge"><title>1.E&#45;&gt;2.A\n1.A</title>
<path fill="none" stroke="#1b9356" d="M201.641,-361.452C187.511,-369.4 168.534,-380.074 153.123,-388.743"/>
<polygon fill="#1b9356" stroke="#1b9356" points="151.064,-385.886 144.064,-393.839 154.496,-391.987 151.064,-385.886"/>
<text text-anchor="middle" x="174" y="-381.8" font-family="Times,serif" font-size="14.00">1</text>
</g>
<!-- 1.A&#45;&gt;2.A -->
<g id="edge1" class="edge"><title>1.A&#45;&gt;2.A</title>
<path fill="none" stroke="#67281d" stroke-width="6" d="M105.033,-205.249C92.9966,-213.023 77.058,-223.317 62.803,-232.523"/>
<polygon fill="#67281d" stroke="#67281d" stroke-width="6" points="59.7469,-228.247 54.1948,-238.083 65.4434,-237.067 59.7469,-228.247"/>
<text text-anchor="middle" x="76" y="-228.8" font-family="Times,serif" font-size="14.00">6</text>
</g>
<!-- 1.C -->
<g id="node6" class="node"><title>1.C</title>
<polygon fill="#ffffcc" stroke="black" points="348,-411.544 348,-426.456 332.184,-437 309.816,-437 294,-426.456 294,-411.544 309.816,-401 332.184,-401 348,-411.544"/>
<text text-anchor="middle" x="321" y="-415.3" font-family="Times,serif" font-size="14.00">1.C</text>
</g>
<!-- 1.C&#45;&gt;2.F -->
<g id="edge4" class="edge"><title>1.C&#45;&gt;2.F</title>
<path fill="none" stroke="#39683f" stroke-width="3" d="M307.053,-435.184C291.121,-455.099 263.86,-489.174 244.936,-512.829"/>
<polygon fill="#39683f" stroke="#39683f" stroke-width="3" points="242.137,-510.726 238.623,-520.722 247.603,-515.099 242.137,-510.726"/>
<text text-anchor="middle" x="272" y="-485.8" font-family="Times,serif" font-size="14.00">3</text>
</g>
<!-- 1.C&#45;&gt;1.A -->
<g id="edge2" class="edge"><title>1.C&#45;&gt;1.A</title>
<path fill="none" stroke="#67281d" stroke-width="6" d="M318.996,-400.924C315.106,-338.314 298.739,-132.385 250,-93 231.333,-77.9156 217.298,-81.9358 196,-93 161.023,-111.171 175.371,-138.261 152,-170 151.453,-170.743 150.878,-171.48 150.281,-172.208"/>
<polygon fill="#67281d" stroke="#67281d" stroke-width="6" points="146.343,-168.73 143.27,-179.598 153.961,-175.957 146.343,-168.73"/>
<text text-anchor="middle" x="223" y="-96.8" font-family="Times,serif" font-size="14.00">6</text>
</g>
<!-- 1.C&#45;&gt;2.A\n1.A -->
<g id="edge3" class="edge"><title>1.C&#45;&gt;2.A\n1.A</title>
<path fill="none" stroke="#1b9356" d="M293.836,-416.977C257.501,-414.168 192.007,-409.104 154.479,-406.202"/>
<polygon fill="#1b9356" stroke="#1b9356" points="154.478,-402.692 144.237,-405.41 153.938,-409.671 154.478,-402.692"/>
<text text-anchor="middle" x="223" y="-416.8" font-family="Times,serif" font-size="14.00">1</text>
</g>
<!-- 2.D\n1.D -->
<g id="node7" class="node"><title>2.D\n1.D</title>
<polygon fill="#eeeeee" stroke="black" points="242,-490 204,-490 204,-452 242,-452 242,-490"/>
<polyline fill="none" stroke="black" points="216,-490 204,-478 "/>
<polyline fill="none" stroke="black" points="204,-464 216,-452 "/>
<polyline fill="none" stroke="black" points="230,-452 242,-464 "/>
<polyline fill="none" stroke="black" points="242,-478 230,-490 "/>
<text text-anchor="middle" x="223" y="-474.8" font-family="Times,serif" font-size="14.00">2.D</text>
<text text-anchor="middle" x="223" y="-459.8" font-family="Times,serif" font-size="14.00">1.D</text>
</g>
<!-- 2.D\n1.D&#45;&gt;2.A -->
<g id="edge11" class="edge"><title>2.D\n1.D&#45;&gt;2.A</title>
<path fill="none" stroke="#67281d" stroke-width="6" d="M203.884,-485.853C193.969,-492.154 181.412,-497.184 170,-493 130.623,-478.562 122.446,-466.079 98,-432 64.429,-385.2 44.1229,-320.079 34.5808,-283.279"/>
<polygon fill="#67281d" stroke="#67281d" stroke-width="6" points="39.5917,-281.677 32.0673,-273.254 29.4069,-284.23 39.5917,-281.677"/>
<text text-anchor="middle" x="125" y="-488.8" font-family="Times,serif" font-size="14.00">6</text>
</g>
<!-- 2.D\n1.D&#45;&gt;1.A -->
<g id="edge10" class="edge"><title>2.D\n1.D&#45;&gt;1.A</title>
<path fill="none" stroke="#67281d" stroke-width="6" d="M204.042,-451.917C200.866,-447.617 197.955,-442.874 196,-438 164.758,-360.093 212.035,-326.728 178,-250 171.854,-236.145 160.982,-223.401 150.762,-213.494"/>
<polygon fill="#67281d" stroke="#67281d" stroke-width="6" points="154.076,-209.409 143.163,-206.499 146.965,-217.134 154.076,-209.409"/>
<text text-anchor="middle" x="174" y="-253.8" font-family="Times,serif" font-size="14.00">6</text>
</g>
<!-- 2.D\n1.D&#45;&gt;2.A\n1.A -->
<g id="edge12" class="edge"><title>2.D\n1.D&#45;&gt;2.A\n1.A</title>
<path fill="none" stroke="#1b9356" d="M203.943,-458.398C189.553,-448.355 169.186,-434.14 152.88,-422.76"/>
<polygon fill="#1b9356" stroke="#1b9356" points="154.506,-419.627 144.302,-416.773 150.5,-425.367 154.506,-419.627"/>
<text text-anchor="middle" x="174" y="-442.8" font-family="Times,serif" font-size="14.00">1</text>
</g>
<!-- 2.B\n1.B -->
<g id="node8" class="node"><title>2.B\n1.B</title>
<polygon fill="#eeeeee" stroke="black" points="242,-155 204,-155 204,-117 242,-117 242,-155"/>
<polyline fill="none" stroke="black" points="216,-155 204,-143 "/>
<polyline fill="none" stroke="black" points="204,-129 216,-117 "/>
<polyline fill="none" stroke="black" points="230,-117 242,-129 "/>
<polyline fill="none" stroke="black" points="242,-143 230,-155 "/>
<text text-anchor="middle" x="223" y="-139.8" font-family="Times,serif" font-size="14.00">2.B</text>
<text text-anchor="middle" x="223" y="-124.8" font-family="Times,serif" font-size="14.00">1.B</text>
</g>
<!-- 2.B\n1.B&#45;&gt;2.A -->
<g id="edge8" class="edge"><title>2.B\n1.B&#45;&gt;2.A</title>
<path fill="none" stroke="#67281d" stroke-width="6" d="M203.646,-132.932C195.775,-131.763 186.461,-130.574 178,-130 141.324,-127.511 127.68,-129.311 98,-151 71.1265,-170.638 51.38,-203.927 39.8355,-227.55"/>
<polygon fill="#67281d" stroke="#67281d" stroke-width="6" points="35.0362,-225.419 35.5337,-236.702 44.5389,-229.885 35.0362,-225.419"/>
<text text-anchor="middle" x="125" y="-154.8" font-family="Times,serif" font-size="14.00">6</text>
</g>
<!-- 2.B\n1.B&#45;&gt;1.A -->
<g id="edge7" class="edge"><title>2.B\n1.B&#45;&gt;1.A</title>
<path fill="none" stroke="#67281d" stroke-width="6" d="M203.759,-132.636C193.346,-131.598 180.346,-131.848 170,-137 157.424,-143.262 147.344,-154.998 140.021,-166.114"/>
<polygon fill="#67281d" stroke="#67281d" stroke-width="6" points="135.461,-163.508 134.745,-174.78 144.43,-168.969 135.461,-163.508"/>
<text text-anchor="middle" x="174" y="-140.8" font-family="Times,serif" font-size="14.00">6</text>
</g>
<!-- 2.B\n1.B&#45;&gt;2.A\n1.A -->
<g id="edge9" class="edge"><title>2.B\n1.B&#45;&gt;2.A\n1.A</title>
<path fill="none" stroke="#1b9356" d="M216.019,-155.04C207.809,-180.947 192.419,-228.697 178,-269 164.738,-306.068 148.221,-348.356 137.407,-375.574"/>
<polygon fill="#1b9356" stroke="#1b9356" points="134.149,-374.297 133.698,-384.883 140.651,-376.889 134.149,-374.297"/>
<text text-anchor="middle" x="174" y="-290.8" font-family="Times,serif" font-size="14.00">1</text>
</g>
<!-- 2.G\n1.E -->
<g id="node10" class="node"><title>2.G\n1.E</title>
<polygon fill="#eeeeee" stroke="black" points="242,-38 204,-38 204,-0 242,-0 242,-38"/>
<polyline fill="none" stroke="black" points="216,-38 204,-26 "/>
<polyline fill="none" stroke="black" points="204,-12 216,-0 "/>
<polyline fill="none" stroke="black" points="230,-0 242,-12 "/>
<polyline fill="none" stroke="black" points="242,-26 230,-38 "/>
<text text-anchor="middle" x="223" y="-22.8" font-family="Times,serif" font-size="14.00">2.G</text>
<text text-anchor="middle" x="223" y="-7.8" font-family="Times,serif" font-size="14.00">1.E</text>
</g>
<!-- 2.G\n1.E&#45;&gt;2.A -->
<g id="edge20" class="edge"><title>2.G\n1.E&#45;&gt;2.A</title>
<path fill="none" stroke="#1b9356" d="M203.757,-23.1069C193.342,-25.9758 180.342,-30.4758 170,-37 131.458,-61.3131 124.377,-72.8397 98,-110 71.2521,-147.683 49.8595,-197.162 38.0596,-227.49"/>
<polygon fill="#1b9356" stroke="#1b9356" points="34.7274,-226.405 34.4318,-236.996 41.2673,-228.901 34.7274,-226.405"/>
<text text-anchor="middle" x="125" y="-113.8" font-family="Times,serif" font-size="14.00">1</text>
</g>
<!-- 2.G\n1.E&#45;&gt;1.A -->
<g id="edge19" class="edge"><title>2.G\n1.E&#45;&gt;1.A</title>
<path fill="none" stroke="#1b9356" d="M203.797,-25.2331C192.453,-30.0256 178.455,-37.7533 170,-49 149.92,-75.7102 161.76,-90.0409 152,-122 147.57,-136.506 141.842,-152.382 136.891,-165.435"/>
<polygon fill="#1b9356" stroke="#1b9356" points="133.613,-164.208 133.29,-174.798 140.146,-166.721 133.613,-164.208"/>
<text text-anchor="middle" x="174" y="-52.8" font-family="Times,serif" font-size="14.00">1</text>
</g>
</g>
</svg>
