<?xml version="1.0" encoding="UTF-8" standalone="no"?>
<!DOCTYPE svg PUBLIC "-//W3C//DTD SVG 1.1//EN"
 "http://www.w3.org/Graphics/SVG/1.1/DTD/svg11.dtd">
<!-- Generated by graphviz version 2.36.0 (20140111.2315)
 -->
<!-- Title: %3 Pages: 1 -->
<svg width="260pt" height="406pt"
 viewBox="0.00 0.00 260.00 406.00" xmlns="http://www.w3.org/2000/svg" xmlns:xlink="http://www.w3.org/1999/xlink">
<g id="graph0" class="graph" transform="scale(1 1) rotate(0) translate(4 402)">
<title>%3</title>
<polygon fill="white" stroke="none" points="-4,4 -4,-402 256,-402 256,4 -4,4"/>
<!-- 1.C -->
<g id="node1" class="node"><title>1.C</title>
<polygon fill="#ccffcc" stroke="black" points="243,-204 189,-204 189,-168 243,-168 243,-204"/>
<text text-anchor="middle" x="216" y="-182.3" font-family="Times,serif" font-size="14.00">1.C</text>
</g>
<!-- 1.A -->
<g id="node2" class="node"><title>1.A</title>
<polygon fill="#ccffcc" stroke="black" points="144,-149 90,-149 90,-113 144,-113 144,-149"/>
<text text-anchor="middle" x="117" y="-127.3" font-family="Times,serif" font-size="14.00">1.A</text>
</g>
<!-- 1.C&#45;&gt;1.A -->
<g id="edge3" class="edge"><title>1.C&#45;&gt;1.A</title>
<path fill="none" stroke="#000000" d="M188.75,-171.116C177.752,-164.88 164.804,-157.538 153.011,-150.852"/>
<polygon fill="#000000" stroke="#000000" points="154.696,-147.783 144.271,-145.896 151.243,-153.873 154.696,-147.783"/>
</g>
<!-- 2.F -->
<g id="node4" class="node"><title>2.F</title>
<polygon fill="#ffffcc" stroke="black" points="144,-177.544 144,-192.456 128.184,-203 105.816,-203 90,-192.456 90,-177.544 105.816,-167 128.184,-167 144,-177.544"/>
<text text-anchor="middle" x="117" y="-181.3" font-family="Times,serif" font-size="14.00">2.F</text>
</g>
<!-- 1.C&#45;&gt;2.F -->
<g id="edge7" class="edge"><title>1.C&#45;&gt;2.F</title>
<path fill="none" stroke="#ff0000" d="M188.75,-185.729C178.183,-185.62 165.816,-185.493 154.404,-185.375"/>
<polygon fill="#ff0000" stroke="#ff0000" points="154.306,-181.874 144.271,-185.271 154.234,-188.874 154.306,-181.874"/>
</g>
<!-- 2.A -->
<g id="node3" class="node"><title>2.A</title>
<polygon fill="#ffffcc" stroke="black" points="54,-150.544 54,-165.456 38.1838,-176 15.8162,-176 3.55271e-15,-165.456 0,-150.544 15.8162,-140 38.1838,-140 54,-150.544"/>
<text text-anchor="middle" x="27" y="-154.3" font-family="Times,serif" font-size="14.00">2.A</text>
</g>
<!-- 1.A&#45;&gt;2.A -->
<g id="edge6" class="edge"><title>1.A&#45;&gt;2.A</title>
<path fill="none" stroke="#ff0000" d="M89.5971,-139.101C81.284,-141.651 71.9676,-144.51 63.1464,-147.216"/>
<polygon fill="#ff0000" stroke="#ff0000" points="62.0107,-143.904 53.4772,-150.183 64.064,-150.596 62.0107,-143.904"/>
</g>
<!-- 2.F&#45;&gt;2.A -->
<g id="edge4" class="edge"><title>2.F&#45;&gt;2.A</title>
<path fill="none" stroke="#000000" d="M90.0731,-177.045C81.7481,-174.491 72.3785,-171.616 63.4905,-168.889"/>
<polygon fill="#000000" stroke="#000000" points="64.3284,-165.485 53.7416,-165.898 62.2751,-172.177 64.3284,-165.485"/>
</g>
<!-- 2.D\n1.D -->
<g id="node5" class="node"><title>2.D\n1.D</title>
<polygon fill="#eeeeee" stroke="black" points="235,-150 197,-150 197,-112 235,-112 235,-150"/>
<polyline fill="none" stroke="black" points="209,-150 197,-138 "/>
<polyline fill="none" stroke="black" points="197,-124 209,-112 "/>
<polyline fill="none" stroke="black" points="223,-112 235,-124 "/>
<polyline fill="none" stroke="black" points="235,-138 223,-150 "/>
<text text-anchor="middle" x="216" y="-134.8" font-family="Times,serif" font-size="14.00">2.D</text>
<text text-anchor="middle" x="216" y="-119.8" font-family="Times,serif" font-size="14.00">1.D</text>
</g>
<!-- 2.D\n1.D&#45;&gt;1.A -->
<g id="edge1" class="edge"><title>2.D\n1.D&#45;&gt;1.A</title>
<path fill="none" stroke="#000000" d="M196.755,-131C184.832,-131 168.846,-131 154.393,-131"/>
<polygon fill="#000000" stroke="#000000" points="154.22,-127.5 144.22,-131 154.22,-134.5 154.22,-127.5"/>
</g>
<!-- 2.G\n1.E -->
<g id="node6" class="node"><title>2.G\n1.E</title>
<polygon fill="#eeeeee" stroke="black" points="235,-94 197,-94 197,-56 235,-56 235,-94"/>
<polyline fill="none" stroke="black" points="209,-94 197,-82 "/>
<polyline fill="none" stroke="black" points="197,-68 209,-56 "/>
<polyline fill="none" stroke="black" points="223,-56 235,-68 "/>
<polyline fill="none" stroke="black" points="235,-82 223,-94 "/>
<text text-anchor="middle" x="216" y="-78.8" font-family="Times,serif" font-size="14.00">2.G</text>
<text text-anchor="middle" x="216" y="-63.8" font-family="Times,serif" font-size="14.00">1.E</text>
</g>
<!-- 2.G\n1.E&#45;&gt;1.A -->
<g id="edge5" class="edge"><title>2.G\n1.E&#45;&gt;1.A</title>
<path fill="none" stroke="#000000" d="M196.755,-85.5332C184.484,-92.6174 167.911,-102.185 153.134,-110.716"/>
<polygon fill="#000000" stroke="#000000" points="151.13,-107.832 144.22,-115.863 154.63,-113.894 151.13,-107.832"/>
</g>
<!-- 2.B\n1.B -->
<g id="node7" class="node"><title>2.B\n1.B</title>
<polygon fill="#eeeeee" stroke="black" points="235,-38 197,-38 197,-0 235,-0 235,-38"/>
<polyline fill="none" stroke="black" points="209,-38 197,-26 "/>
<polyline fill="none" stroke="black" points="197,-12 209,-0 "/>
<polyline fill="none" stroke="black" points="223,-0 235,-12 "/>
<polyline fill="none" stroke="black" points="235,-26 223,-38 "/>
<text text-anchor="middle" x="216" y="-22.8" font-family="Times,serif" font-size="14.00">2.B</text>
<text text-anchor="middle" x="216" y="-7.8" font-family="Times,serif" font-size="14.00">1.B</text>
</g>
<!-- 2.B\n1.B&#45;&gt;1.A -->
<g id="edge2" class="edge"><title>2.B\n1.B&#45;&gt;1.A</title>
<path fill="none" stroke="#000000" d="M196.783,-32.1135C191.137,-36.5526 185.071,-41.7281 180,-47 162.987,-64.6878 146.627,-87.1632 134.988,-104.414"/>
<polygon fill="#000000" stroke="#000000" points="131.966,-102.638 129.354,-112.906 137.799,-106.508 131.966,-102.638"/>
</g>
<!-- Legend -->
<g id="node8" class="node"><title>Legend</title>
<polygon fill="white" stroke="black" points="251.5,-398 180.5,-398 180.5,-222 251.5,-222 251.5,-398"/>
<polygon fill="none" stroke="black" points="181,-372 181,-398 252,-398 252,-372 181,-372"/>
<text text-anchor="start" x="192" y="-381.3" font-family="Arial Black" font-size="14.00"> Nodes</text>
<polygon fill="#ccffcc" stroke="none" points="181,-347 181,-372 235,-372 235,-347 181,-347"/>
<polygon fill="none" stroke="black" points="181,-347 181,-372 235,-372 235,-347 181,-347"/>
<text text-anchor="start" x="204.5" y="-355.8" font-family="Times,serif" font-size="14.00">1</text>
<polygon fill="none" stroke="black" points="235,-347 235,-372 252,-372 252,-347 235,-347"/>
<text text-anchor="start" x="240" y="-355.8" font-family="Times,serif" font-size="14.00">2</text>
<polygon fill="#ffffcc" stroke="none" points="181,-322 181,-347 235,-347 235,-322 181,-322"/>
<polygon fill="none" stroke="black" points="181,-322 181,-347 235,-347 235,-322 181,-322"/>
<text text-anchor="start" x="204.5" y="-330.8" font-family="Times,serif" font-size="14.00">2</text>
<polygon fill="none" stroke="black" points="235,-322 235,-347 252,-347 252,-322 235,-322"/>
<text text-anchor="start" x="240" y="-330.8" font-family="Times,serif" font-size="14.00">2</text>
<polygon fill="#eeeeee" stroke="none" points="181,-297 181,-322 235,-322 235,-297 181,-297"/>
<polygon fill="none" stroke="black" points="181,-297 181,-322 235,-322 235,-297 181,-297"/>
<text text-anchor="start" x="192.5" y="-305.8" font-family="Times,serif" font-size="14.00">comb</text>
<polygon fill="none" stroke="black" points="235,-297 235,-322 252,-322 252,-297 235,-297"/>
<text text-anchor="start" x="240" y="-305.8" font-family="Times,serif" font-size="14.00">3</text>
<polygon fill="none" stroke="black" points="181,-272 181,-297 252,-297 252,-272 181,-272"/>
<text text-anchor="start" x="190.5" y="-280.8" font-family="Arial Black" font-size="14.00"> Edges </text>
<polygon fill="none" stroke="black" points="181,-247 181,-272 235,-272 235,-247 181,-247"/>
<text text-anchor="start" x="194" y="-255.8" font-family="Times,serif" font-size="14.00" fill="#000000">input</text>
<polygon fill="none" stroke="black" points="235,-247 235,-272 252,-272 252,-247 235,-247"/>
<text text-anchor="start" x="240" y="-255.8" font-family="Times,serif" font-size="14.00">5</text>
<polygon fill="none" stroke="black" points="181,-222 181,-247 235,-247 235,-222 181,-222"/>
<text text-anchor="start" x="186.5" y="-230.8" font-family="Times,serif" font-size="14.00" fill="#ff0000">inferred</text>
<polygon fill="none" stroke="black" points="235,-222 235,-247 252,-247 252,-222 235,-222"/>
<text text-anchor="start" x="240" y="-230.8" font-family="Times,serif" font-size="14.00">2</text>
</g>
</g>
</svg>
