<?xml version="1.0" encoding="UTF-8" standalone="no"?>
<!DOCTYPE svg PUBLIC "-//W3C//DTD SVG 1.1//EN"
 "http://www.w3.org/Graphics/SVG/1.1/DTD/svg11.dtd">
<!-- Generated by graphviz version 2.36.0 (20140111.2315)
 -->
<!-- Title: %3 Pages: 1 -->
<svg width="146pt" height="487pt"
 viewBox="0.00 0.00 146.00 487.00" xmlns="http://www.w3.org/2000/svg" xmlns:xlink="http://www.w3.org/1999/xlink">
<g id="graph0" class="graph" transform="scale(1 1) rotate(0) translate(4 483)">
<title>%3</title>
<polygon fill="white" stroke="none" points="-4,4 -4,-483 142,-483 142,4 -4,4"/>
<!-- 1.E -->
<g id="node1" class="node"><title>1.E</title>
<polygon fill="#ccffcc" stroke="black" points="133,-310 79,-310 79,-274 133,-274 133,-310"/>
<text text-anchor="middle" x="106" y="-288.3" font-family="Times,serif" font-size="14.00">1.E</text>
</g>
<!-- 2.A\n1.A -->
<g id="node6" class="node"><title>2.A\n1.A</title>
<polygon fill="#eeeeee" stroke="black" points="38,-176 0,-176 0,-138 38,-138 38,-176"/>
<polyline fill="none" stroke="black" points="12,-176 0,-164 "/>
<polyline fill="none" stroke="black" points="0,-150 12,-138 "/>
<polyline fill="none" stroke="black" points="26,-138 38,-150 "/>
<polyline fill="none" stroke="black" points="38,-164 26,-176 "/>
<text text-anchor="middle" x="19" y="-160.8" font-family="Times,serif" font-size="14.00">2.A</text>
<text text-anchor="middle" x="19" y="-145.8" font-family="Times,serif" font-size="14.00">1.A</text>
</g>
<!-- 1.E&#45;&gt;2.A\n1.A -->
<g id="edge5" class="edge"><title>1.E&#45;&gt;2.A\n1.A</title>
<path fill="none" stroke="#000000" d="M81.9638,-273.789C79.1034,-271.01 76.3598,-268.047 74,-265 55.1043,-240.6 40.0835,-208.548 30.7296,-185.714"/>
<polygon fill="#000000" stroke="#000000" points="33.9069,-184.232 26.9552,-176.237 27.4037,-186.822 33.9069,-184.232"/>
</g>
<!-- 1.C -->
<g id="node2" class="node"><title>1.C</title>
<polygon fill="#ccffcc" stroke="black" points="133,-256 79,-256 79,-220 133,-220 133,-256"/>
<text text-anchor="middle" x="106" y="-234.3" font-family="Times,serif" font-size="14.00">1.C</text>
</g>
<!-- 1.C&#45;&gt;2.A\n1.A -->
<g id="edge4" class="edge"><title>1.C&#45;&gt;2.A\n1.A</title>
<path fill="none" stroke="#000000" d="M83.8154,-219.893C80.4964,-216.957 77.1304,-213.922 74,-211 64.4593,-202.095 54.2715,-192.054 45.345,-183.067"/>
<polygon fill="#000000" stroke="#000000" points="47.7014,-180.472 38.1852,-175.814 42.7198,-185.39 47.7014,-180.472"/>
</g>
<!-- 2.G -->
<g id="node3" class="node"><title>2.G</title>
<polygon fill="#ffffcc" stroke="black" points="133,-176.544 133,-191.456 117.184,-202 94.8162,-202 79,-191.456 79,-176.544 94.8162,-166 117.184,-166 133,-176.544"/>
<text text-anchor="middle" x="106" y="-180.3" font-family="Times,serif" font-size="14.00">2.G</text>
</g>
<!-- 2.G&#45;&gt;2.A\n1.A -->
<g id="edge1" class="edge"><title>2.G&#45;&gt;2.A\n1.A</title>
<path fill="none" stroke="#000000" d="M79.4972,-175.899C69.5214,-172.73 58.0497,-169.086 47.8579,-165.849"/>
<polygon fill="#000000" stroke="#000000" points="48.7859,-162.471 38.1955,-162.78 46.6666,-169.143 48.7859,-162.471"/>
</g>
<!-- 2.F -->
<g id="node4" class="node"><title>2.F</title>
<polygon fill="#ffffcc" stroke="black" points="133,-122.544 133,-137.456 117.184,-148 94.8162,-148 79,-137.456 79,-122.544 94.8162,-112 117.184,-112 133,-122.544"/>
<text text-anchor="middle" x="106" y="-126.3" font-family="Times,serif" font-size="14.00">2.F</text>
</g>
<!-- 2.F&#45;&gt;2.A\n1.A -->
<g id="edge6" class="edge"><title>2.F&#45;&gt;2.A\n1.A</title>
<path fill="none" stroke="#000000" d="M79.4972,-138.101C69.5214,-141.27 58.0497,-144.914 47.8579,-148.151"/>
<polygon fill="#000000" stroke="#000000" points="46.6666,-144.857 38.1955,-151.22 48.7859,-151.529 46.6666,-144.857"/>
</g>
<!-- 2.D\n1.D -->
<g id="node5" class="node"><title>2.D\n1.D</title>
<polygon fill="#eeeeee" stroke="black" points="125,-94 87,-94 87,-56 125,-56 125,-94"/>
<polyline fill="none" stroke="black" points="99,-94 87,-82 "/>
<polyline fill="none" stroke="black" points="87,-68 99,-56 "/>
<polyline fill="none" stroke="black" points="113,-56 125,-68 "/>
<polyline fill="none" stroke="black" points="125,-82 113,-94 "/>
<text text-anchor="middle" x="106" y="-78.8" font-family="Times,serif" font-size="14.00">2.D</text>
<text text-anchor="middle" x="106" y="-63.8" font-family="Times,serif" font-size="14.00">1.D</text>
</g>
<!-- 2.D\n1.D&#45;&gt;2.A\n1.A -->
<g id="edge3" class="edge"><title>2.D\n1.D&#45;&gt;2.A\n1.A</title>
<path fill="none" stroke="#000000" d="M86.8268,-91.1337C82.5798,-94.9813 78.1003,-99.1029 74,-103 64.465,-112.063 54.2095,-122.212 45.2243,-131.244"/>
<polygon fill="#000000" stroke="#000000" points="42.5686,-128.952 38.0192,-138.52 47.5426,-133.877 42.5686,-128.952"/>
</g>
<!-- 2.B\n1.B -->
<g id="node7" class="node"><title>2.B\n1.B</title>
<polygon fill="#eeeeee" stroke="black" points="125,-38 87,-38 87,-0 125,-0 125,-38"/>
<polyline fill="none" stroke="black" points="99,-38 87,-26 "/>
<polyline fill="none" stroke="black" points="87,-12 99,-0 "/>
<polyline fill="none" stroke="black" points="113,-0 125,-12 "/>
<polyline fill="none" stroke="black" points="125,-26 113,-38 "/>
<text text-anchor="middle" x="106" y="-22.8" font-family="Times,serif" font-size="14.00">2.B</text>
<text text-anchor="middle" x="106" y="-7.8" font-family="Times,serif" font-size="14.00">1.B</text>
</g>
<!-- 2.B\n1.B&#45;&gt;2.A\n1.A -->
<g id="edge2" class="edge"><title>2.B\n1.B&#45;&gt;2.A\n1.A</title>
<path fill="none" stroke="#000000" d="M86.7909,-33.3482C82.2674,-37.4502 77.6687,-42.1366 74,-47 54.9426,-72.2636 39.8002,-105.307 30.4575,-128.559"/>
<polygon fill="#000000" stroke="#000000" points="27.1973,-127.286 26.814,-137.874 33.7164,-129.836 27.1973,-127.286"/>
</g>
<!-- Legend -->
<g id="node8" class="node"><title>Legend</title>
<polygon fill="white" stroke="black" points="137.5,-479.5 74.5,-479.5 74.5,-328.5 137.5,-328.5 137.5,-479.5"/>
<polygon fill="none" stroke="black" points="75,-453 75,-479 138,-479 138,-453 75,-453"/>
<text text-anchor="start" x="82" y="-462.3" font-family="Arial Black" font-size="14.00"> Nodes</text>
<polygon fill="#ccffcc" stroke="none" points="75,-428 75,-453 119,-453 119,-428 75,-428"/>
<polygon fill="none" stroke="black" points="75,-428 75,-453 119,-453 119,-428 75,-428"/>
<text text-anchor="start" x="93.5" y="-436.8" font-family="Times,serif" font-size="14.00">1</text>
<polygon fill="none" stroke="black" points="119,-428 119,-453 138,-453 138,-428 119,-428"/>
<text text-anchor="start" x="125" y="-436.8" font-family="Times,serif" font-size="14.00">2</text>
<polygon fill="#ffffcc" stroke="none" points="75,-403 75,-428 119,-428 119,-403 75,-403"/>
<polygon fill="none" stroke="black" points="75,-403 75,-428 119,-428 119,-403 75,-403"/>
<text text-anchor="start" x="93.5" y="-411.8" font-family="Times,serif" font-size="14.00">2</text>
<polygon fill="none" stroke="black" points="119,-403 119,-428 138,-428 138,-403 119,-403"/>
<text text-anchor="start" x="125" y="-411.8" font-family="Times,serif" font-size="14.00">2</text>
<polygon fill="#eeeeee" stroke="none" points="75,-378 75,-403 119,-403 119,-378 75,-378"/>
<polygon fill="none" stroke="black" points="75,-378 75,-403 119,-403 119,-378 75,-378"/>
<text text-anchor="start" x="81.5" y="-386.8" font-family="Times,serif" font-size="14.00">comb</text>
<polygon fill="none" stroke="black" points="119,-378 119,-403 138,-403 138,-378 119,-378"/>
<text text-anchor="start" x="125" y="-386.8" font-family="Times,serif" font-size="14.00">3</text>
<polygon fill="none" stroke="black" points="75,-353 75,-378 138,-378 138,-353 75,-353"/>
<text text-anchor="start" x="80.5" y="-361.8" font-family="Arial Black" font-size="14.00"> Edges </text>
<polygon fill="none" stroke="black" points="75,-328 75,-353 119,-353 119,-328 75,-328"/>
<text text-anchor="start" x="83" y="-336.8" font-family="Times,serif" font-size="14.00" fill="#000000">input</text>
<polygon fill="none" stroke="black" points="119,-328 119,-353 138,-353 138,-328 119,-328"/>
<text text-anchor="start" x="125" y="-336.8" font-family="Times,serif" font-size="14.00">6</text>
</g>
</g>
</svg>
