<?xml version="1.0" encoding="UTF-8" standalone="no"?>
<!DOCTYPE svg PUBLIC "-//W3C//DTD SVG 1.1//EN"
 "http://www.w3.org/Graphics/SVG/1.1/DTD/svg11.dtd">
<!-- Generated by graphviz version 2.36.0 (20140111.2315)
 -->
<!-- Title: %3 Pages: 1 -->
<svg width="260pt" height="458pt"
 viewBox="0.00 0.00 260.00 458.00" xmlns="http://www.w3.org/2000/svg" xmlns:xlink="http://www.w3.org/1999/xlink">
<g id="graph0" class="graph" transform="scale(1 1) rotate(0) translate(4 454)">
<title>%3</title>
<polygon fill="white" stroke="none" points="-4,4 -4,-454 256,-454 256,4 -4,4"/>
<!-- 1.E -->
<g id="node1" class="node"><title>1.E</title>
<polygon fill="#ccffcc" stroke="black" points="243,-256 189,-256 189,-220 243,-220 243,-256"/>
<text text-anchor="middle" x="216" y="-234.3" font-family="Times,serif" font-size="14.00">1.E</text>
</g>
<!-- 1.A -->
<g id="node2" class="node"><title>1.A</title>
<polygon fill="#ccffcc" stroke="black" points="144,-148 90,-148 90,-112 144,-112 144,-148"/>
<text text-anchor="middle" x="117" y="-126.3" font-family="Times,serif" font-size="14.00">1.A</text>
</g>
<!-- 1.E&#45;&gt;1.A -->
<g id="edge4" class="edge"><title>1.E&#45;&gt;1.A</title>
<path fill="none" stroke="#000000" d="M189.846,-219.886C186.414,-217.049 183.033,-214.045 180,-211 163.443,-194.381 147.42,-173.272 135.812,-156.771"/>
<polygon fill="#000000" stroke="#000000" points="138.407,-154.37 129.841,-148.135 132.649,-158.351 138.407,-154.37"/>
</g>
<!-- 2.A -->
<g id="node4" class="node"><title>2.A</title>
<polygon fill="#ffffcc" stroke="black" points="54,-95.5442 54,-110.456 38.1838,-121 15.8162,-121 3.55271e-15,-110.456 0,-95.5442 15.8162,-85 38.1838,-85 54,-95.5442"/>
<text text-anchor="middle" x="27" y="-99.3" font-family="Times,serif" font-size="14.00">2.A</text>
</g>
<!-- 1.A&#45;&gt;2.A -->
<g id="edge6" class="edge"><title>1.A&#45;&gt;2.A</title>
<path fill="none" stroke="#ff0000" d="M89.5971,-121.899C81.284,-119.349 71.9676,-116.49 63.1464,-113.784"/>
<polygon fill="#ff0000" stroke="#ff0000" points="64.064,-110.404 53.4772,-110.817 62.0107,-117.096 64.064,-110.404"/>
</g>
<!-- 1.C -->
<g id="node3" class="node"><title>1.C</title>
<polygon fill="#ccffcc" stroke="black" points="243,-202 189,-202 189,-166 243,-166 243,-202"/>
<text text-anchor="middle" x="216" y="-180.3" font-family="Times,serif" font-size="14.00">1.C</text>
</g>
<!-- 1.C&#45;&gt;1.A -->
<g id="edge3" class="edge"><title>1.C&#45;&gt;1.A</title>
<path fill="none" stroke="#000000" d="M188.75,-169.387C177.752,-163.264 164.804,-156.056 153.011,-149.491"/>
<polygon fill="#000000" stroke="#000000" points="154.71,-146.431 144.271,-144.625 151.305,-152.547 154.71,-146.431"/>
</g>
<!-- 2.G -->
<g id="node5" class="node"><title>2.G</title>
<polygon fill="#ffffcc" stroke="black" points="144,-68.5442 144,-83.4558 128.184,-94 105.816,-94 90,-83.4558 90,-68.5442 105.816,-58 128.184,-58 144,-68.5442"/>
<text text-anchor="middle" x="117" y="-72.3" font-family="Times,serif" font-size="14.00">2.G</text>
</g>
<!-- 2.G&#45;&gt;2.A -->
<g id="edge1" class="edge"><title>2.G&#45;&gt;2.A</title>
<path fill="none" stroke="#000000" d="M90.0731,-83.9549C81.7481,-86.5091 72.3785,-89.3839 63.4905,-92.1109"/>
<polygon fill="#000000" stroke="#000000" points="62.2751,-88.8227 53.7416,-95.102 64.3284,-95.5148 62.2751,-88.8227"/>
</g>
<!-- 2.F -->
<g id="node6" class="node"><title>2.F</title>
<polygon fill="#ffffcc" stroke="black" points="243,-122.544 243,-137.456 227.184,-148 204.816,-148 189,-137.456 189,-122.544 204.816,-112 227.184,-112 243,-122.544"/>
<text text-anchor="middle" x="216" y="-126.3" font-family="Times,serif" font-size="14.00">2.F</text>
</g>
<!-- 2.F&#45;&gt;1.A -->
<g id="edge7" class="edge"><title>2.F&#45;&gt;1.A</title>
<path fill="none" stroke="#ff0000" d="M188.75,-130C178.183,-130 165.816,-130 154.404,-130"/>
<polygon fill="#ff0000" stroke="#ff0000" points="154.271,-126.5 144.271,-130 154.271,-133.5 154.271,-126.5"/>
</g>
<!-- 2.D\n1.D -->
<g id="node7" class="node"><title>2.D\n1.D</title>
<polygon fill="#eeeeee" stroke="black" points="235,-94 197,-94 197,-56 235,-56 235,-94"/>
<polyline fill="none" stroke="black" points="209,-94 197,-82 "/>
<polyline fill="none" stroke="black" points="197,-68 209,-56 "/>
<polyline fill="none" stroke="black" points="223,-56 235,-68 "/>
<polyline fill="none" stroke="black" points="235,-82 223,-94 "/>
<text text-anchor="middle" x="216" y="-78.8" font-family="Times,serif" font-size="14.00">2.D</text>
<text text-anchor="middle" x="216" y="-63.8" font-family="Times,serif" font-size="14.00">1.D</text>
</g>
<!-- 2.D\n1.D&#45;&gt;1.A -->
<g id="edge5" class="edge"><title>2.D\n1.D&#45;&gt;1.A</title>
<path fill="none" stroke="#000000" d="M196.755,-85.3451C184.484,-92.3028 167.911,-101.7 153.134,-110.079"/>
<polygon fill="#000000" stroke="#000000" points="151.192,-107.156 144.22,-115.133 154.645,-113.245 151.192,-107.156"/>
</g>
<!-- 2.B\n1.B -->
<g id="node8" class="node"><title>2.B\n1.B</title>
<polygon fill="#eeeeee" stroke="black" points="235,-38 197,-38 197,-0 235,-0 235,-38"/>
<polyline fill="none" stroke="black" points="209,-38 197,-26 "/>
<polyline fill="none" stroke="black" points="197,-12 209,-0 "/>
<polyline fill="none" stroke="black" points="223,-0 235,-12 "/>
<polyline fill="none" stroke="black" points="235,-26 223,-38 "/>
<text text-anchor="middle" x="216" y="-22.8" font-family="Times,serif" font-size="14.00">2.B</text>
<text text-anchor="middle" x="216" y="-7.8" font-family="Times,serif" font-size="14.00">1.B</text>
</g>
<!-- 2.B\n1.B&#45;&gt;1.A -->
<g id="edge2" class="edge"><title>2.B\n1.B&#45;&gt;1.A</title>
<path fill="none" stroke="#000000" d="M196.936,-31.6388C191.175,-36.1272 185.002,-41.4518 180,-47 160.187,-68.9752 162.349,-79.7886 144,-103 143.707,-103.37 143.411,-103.741 143.11,-104.112"/>
<polygon fill="#000000" stroke="#000000" points="140.311,-101.997 136.4,-111.843 145.598,-106.585 140.311,-101.997"/>
</g>
<!-- Legend -->
<g id="node9" class="node"><title>Legend</title>
<polygon fill="white" stroke="black" points="251.5,-450 180.5,-450 180.5,-274 251.5,-274 251.5,-450"/>
<polygon fill="none" stroke="black" points="181,-424 181,-450 252,-450 252,-424 181,-424"/>
<text text-anchor="start" x="192" y="-433.3" font-family="Arial Black" font-size="14.00"> Nodes</text>
<polygon fill="#ccffcc" stroke="none" points="181,-399 181,-424 235,-424 235,-399 181,-399"/>
<polygon fill="none" stroke="black" points="181,-399 181,-424 235,-424 235,-399 181,-399"/>
<text text-anchor="start" x="204.5" y="-407.8" font-family="Times,serif" font-size="14.00">1</text>
<polygon fill="none" stroke="black" points="235,-399 235,-424 252,-424 252,-399 235,-399"/>
<text text-anchor="start" x="240" y="-407.8" font-family="Times,serif" font-size="14.00">3</text>
<polygon fill="#ffffcc" stroke="none" points="181,-374 181,-399 235,-399 235,-374 181,-374"/>
<polygon fill="none" stroke="black" points="181,-374 181,-399 235,-399 235,-374 181,-374"/>
<text text-anchor="start" x="204.5" y="-382.8" font-family="Times,serif" font-size="14.00">2</text>
<polygon fill="none" stroke="black" points="235,-374 235,-399 252,-399 252,-374 235,-374"/>
<text text-anchor="start" x="240" y="-382.8" font-family="Times,serif" font-size="14.00">3</text>
<polygon fill="#eeeeee" stroke="none" points="181,-349 181,-374 235,-374 235,-349 181,-349"/>
<polygon fill="none" stroke="black" points="181,-349 181,-374 235,-374 235,-349 181,-349"/>
<text text-anchor="start" x="192.5" y="-357.8" font-family="Times,serif" font-size="14.00">comb</text>
<polygon fill="none" stroke="black" points="235,-349 235,-374 252,-374 252,-349 235,-349"/>
<text text-anchor="start" x="240" y="-357.8" font-family="Times,serif" font-size="14.00">2</text>
<polygon fill="none" stroke="black" points="181,-324 181,-349 252,-349 252,-324 181,-324"/>
<text text-anchor="start" x="190.5" y="-332.8" font-family="Arial Black" font-size="14.00"> Edges </text>
<polygon fill="none" stroke="black" points="181,-299 181,-324 235,-324 235,-299 181,-299"/>
<text text-anchor="start" x="194" y="-307.8" font-family="Times,serif" font-size="14.00" fill="#000000">input</text>
<polygon fill="none" stroke="black" points="235,-299 235,-324 252,-324 252,-299 235,-299"/>
<text text-anchor="start" x="240" y="-307.8" font-family="Times,serif" font-size="14.00">5</text>
<polygon fill="none" stroke="black" points="181,-274 181,-299 235,-299 235,-274 181,-274"/>
<text text-anchor="start" x="186.5" y="-282.8" font-family="Times,serif" font-size="14.00" fill="#ff0000">inferred</text>
<polygon fill="none" stroke="black" points="235,-274 235,-299 252,-299 252,-274 235,-274"/>
<text text-anchor="start" x="240" y="-282.8" font-family="Times,serif" font-size="14.00">2</text>
</g>
</g>
</svg>
