<?xml version="1.0" encoding="UTF-8" standalone="no"?>
<!DOCTYPE svg PUBLIC "-//W3C//DTD SVG 1.1//EN"
 "http://www.w3.org/Graphics/SVG/1.1/DTD/svg11.dtd">
<!-- Generated by graphviz version 2.36.0 (20140111.2315)
 -->
<!-- Title: %3 Pages: 1 -->
<svg width="260pt" height="404pt"
 viewBox="0.00 0.00 260.00 404.00" xmlns="http://www.w3.org/2000/svg" xmlns:xlink="http://www.w3.org/1999/xlink">
<g id="graph0" class="graph" transform="scale(1 1) rotate(0) translate(4 400)">
<title>%3</title>
<polygon fill="white" stroke="none" points="-4,4 -4,-400 256,-400 256,4 -4,4"/>
<!-- 1.E -->
<g id="node1" class="node"><title>1.E</title>
<polygon fill="#ccffcc" stroke="black" points="243,-202 189,-202 189,-166 243,-166 243,-202"/>
<text text-anchor="middle" x="216" y="-180.3" font-family="Times,serif" font-size="14.00">1.E</text>
</g>
<!-- 1.A -->
<g id="node2" class="node"><title>1.A</title>
<polygon fill="#ccffcc" stroke="black" points="144,-144 90,-144 90,-108 144,-108 144,-144"/>
<text text-anchor="middle" x="117" y="-122.3" font-family="Times,serif" font-size="14.00">1.A</text>
</g>
<!-- 1.E&#45;&gt;1.A -->
<g id="edge5" class="edge"><title>1.E&#45;&gt;1.A</title>
<path fill="none" stroke="#000000" d="M188.75,-168.304C177.752,-161.728 164.804,-153.986 153.011,-146.935"/>
<polygon fill="#000000" stroke="#000000" points="154.65,-143.836 144.271,-141.708 151.057,-149.844 154.65,-143.836"/>
</g>
<!-- 2.A -->
<g id="node4" class="node"><title>2.A</title>
<polygon fill="#ffffcc" stroke="black" points="54,-64.5442 54,-79.4558 38.1838,-90 15.8162,-90 3.55271e-15,-79.4558 0,-64.5442 15.8162,-54 38.1838,-54 54,-64.5442"/>
<text text-anchor="middle" x="27" y="-68.3" font-family="Times,serif" font-size="14.00">2.A</text>
</g>
<!-- 1.A&#45;&gt;2.A -->
<g id="edge8" class="edge"><title>1.A&#45;&gt;2.A</title>
<path fill="none" stroke="#ff0000" d="M89.5971,-109.798C78.9971,-103.294 66.7658,-95.7881 56.0099,-89.1879"/>
<polygon fill="#ff0000" stroke="#ff0000" points="57.7441,-86.1456 47.3903,-83.8986 54.0829,-92.1119 57.7441,-86.1456"/>
</g>
<!-- 1.C -->
<g id="node3" class="node"><title>1.C</title>
<polygon fill="#ccffcc" stroke="black" points="243,-36 189,-36 189,-0 243,-0 243,-36"/>
<text text-anchor="middle" x="216" y="-14.3" font-family="Times,serif" font-size="14.00">1.C</text>
</g>
<!-- 1.C&#45;&gt;1.A -->
<g id="edge2" class="edge"><title>1.C&#45;&gt;1.A</title>
<path fill="none" stroke="#000000" d="M189.296,-36.2436C186.019,-39.0173 182.827,-41.9702 180,-45 160.32,-66.0882 162.076,-76.5219 144,-99 143.704,-99.3677 143.405,-99.7362 143.101,-100.105"/>
<polygon fill="#000000" stroke="#000000" points="140.311,-97.9791 136.356,-107.808 145.577,-102.59 140.311,-97.9791"/>
</g>
<!-- 2.F -->
<g id="node6" class="node"><title>2.F</title>
<polygon fill="#ffffcc" stroke="black" points="144,-10.5442 144,-25.4558 128.184,-36 105.816,-36 90,-25.4558 90,-10.5442 105.816,-3.55271e-15 128.184,-0 144,-10.5442"/>
<text text-anchor="middle" x="117" y="-14.3" font-family="Times,serif" font-size="14.00">2.F</text>
</g>
<!-- 1.C&#45;&gt;2.F -->
<g id="edge7" class="edge"><title>1.C&#45;&gt;2.F</title>
<path fill="none" stroke="#ff0000" d="M188.75,-18C178.183,-18 165.816,-18 154.404,-18"/>
<polygon fill="#ff0000" stroke="#ff0000" points="154.271,-14.5001 144.271,-18 154.271,-21.5001 154.271,-14.5001"/>
</g>
<!-- 2.G -->
<g id="node5" class="node"><title>2.G</title>
<polygon fill="#ffffcc" stroke="black" points="144,-64.5442 144,-79.4558 128.184,-90 105.816,-90 90,-79.4558 90,-64.5442 105.816,-54 128.184,-54 144,-64.5442"/>
<text text-anchor="middle" x="117" y="-68.3" font-family="Times,serif" font-size="14.00">2.G</text>
</g>
<!-- 2.G&#45;&gt;2.A -->
<g id="edge4" class="edge"><title>2.G&#45;&gt;2.A</title>
<path fill="none" stroke="#000000" d="M89.5971,-72C81.6068,-72 72.6894,-72 64.1759,-72"/>
<polygon fill="#000000" stroke="#000000" points="64.081,-68.5001 54.081,-72 64.081,-75.5001 64.081,-68.5001"/>
</g>
<!-- 2.F&#45;&gt;2.A -->
<g id="edge3" class="edge"><title>2.F&#45;&gt;2.A</title>
<path fill="none" stroke="#000000" d="M96.4699,-29.9844C84.6212,-37.2552 69.3011,-46.6562 56.1576,-54.7215"/>
<polygon fill="#000000" stroke="#000000" points="54.1681,-51.8358 47.4755,-60.0492 57.8293,-57.8021 54.1681,-51.8358"/>
</g>
<!-- 2.D\n1.D -->
<g id="node7" class="node"><title>2.D\n1.D</title>
<polygon fill="#eeeeee" stroke="black" points="235,-148 197,-148 197,-110 235,-110 235,-148"/>
<polyline fill="none" stroke="black" points="209,-148 197,-136 "/>
<polyline fill="none" stroke="black" points="197,-122 209,-110 "/>
<polyline fill="none" stroke="black" points="223,-110 235,-122 "/>
<polyline fill="none" stroke="black" points="235,-136 223,-148 "/>
<text text-anchor="middle" x="216" y="-132.8" font-family="Times,serif" font-size="14.00">2.D</text>
<text text-anchor="middle" x="216" y="-117.8" font-family="Times,serif" font-size="14.00">1.D</text>
</g>
<!-- 2.D\n1.D&#45;&gt;1.A -->
<g id="edge6" class="edge"><title>2.D\n1.D&#45;&gt;1.A</title>
<path fill="none" stroke="#000000" d="M196.755,-128.436C184.832,-128.067 168.846,-127.573 154.393,-127.126"/>
<polygon fill="#000000" stroke="#000000" points="154.323,-123.622 144.22,-126.811 154.107,-130.618 154.323,-123.622"/>
</g>
<!-- 2.B\n1.B -->
<g id="node8" class="node"><title>2.B\n1.B</title>
<polygon fill="#eeeeee" stroke="black" points="235,-92 197,-92 197,-54 235,-54 235,-92"/>
<polyline fill="none" stroke="black" points="209,-92 197,-80 "/>
<polyline fill="none" stroke="black" points="197,-66 209,-54 "/>
<polyline fill="none" stroke="black" points="223,-54 235,-66 "/>
<polyline fill="none" stroke="black" points="235,-80 223,-92 "/>
<text text-anchor="middle" x="216" y="-76.8" font-family="Times,serif" font-size="14.00">2.B</text>
<text text-anchor="middle" x="216" y="-61.8" font-family="Times,serif" font-size="14.00">1.B</text>
</g>
<!-- 2.B\n1.B&#45;&gt;1.A -->
<g id="edge1" class="edge"><title>2.B\n1.B&#45;&gt;1.A</title>
<path fill="none" stroke="#000000" d="M196.755,-82.9689C184.484,-89.6736 167.911,-98.7289 153.134,-106.803"/>
<polygon fill="#000000" stroke="#000000" points="151.317,-103.807 144.22,-111.674 154.673,-109.95 151.317,-103.807"/>
</g>
<!-- Legend -->
<g id="node9" class="node"><title>Legend</title>
<polygon fill="white" stroke="black" points="251.5,-396 180.5,-396 180.5,-220 251.5,-220 251.5,-396"/>
<polygon fill="none" stroke="black" points="181,-370 181,-396 252,-396 252,-370 181,-370"/>
<text text-anchor="start" x="192" y="-379.3" font-family="Arial Black" font-size="14.00"> Nodes</text>
<polygon fill="#ccffcc" stroke="none" points="181,-345 181,-370 235,-370 235,-345 181,-345"/>
<polygon fill="none" stroke="black" points="181,-345 181,-370 235,-370 235,-345 181,-345"/>
<text text-anchor="start" x="204.5" y="-353.8" font-family="Times,serif" font-size="14.00">1</text>
<polygon fill="none" stroke="black" points="235,-345 235,-370 252,-370 252,-345 235,-345"/>
<text text-anchor="start" x="240" y="-353.8" font-family="Times,serif" font-size="14.00">3</text>
<polygon fill="#ffffcc" stroke="none" points="181,-320 181,-345 235,-345 235,-320 181,-320"/>
<polygon fill="none" stroke="black" points="181,-320 181,-345 235,-345 235,-320 181,-320"/>
<text text-anchor="start" x="204.5" y="-328.8" font-family="Times,serif" font-size="14.00">2</text>
<polygon fill="none" stroke="black" points="235,-320 235,-345 252,-345 252,-320 235,-320"/>
<text text-anchor="start" x="240" y="-328.8" font-family="Times,serif" font-size="14.00">3</text>
<polygon fill="#eeeeee" stroke="none" points="181,-295 181,-320 235,-320 235,-295 181,-295"/>
<polygon fill="none" stroke="black" points="181,-295 181,-320 235,-320 235,-295 181,-295"/>
<text text-anchor="start" x="192.5" y="-303.8" font-family="Times,serif" font-size="14.00">comb</text>
<polygon fill="none" stroke="black" points="235,-295 235,-320 252,-320 252,-295 235,-295"/>
<text text-anchor="start" x="240" y="-303.8" font-family="Times,serif" font-size="14.00">2</text>
<polygon fill="none" stroke="black" points="181,-270 181,-295 252,-295 252,-270 181,-270"/>
<text text-anchor="start" x="190.5" y="-278.8" font-family="Arial Black" font-size="14.00"> Edges </text>
<polygon fill="none" stroke="black" points="181,-245 181,-270 235,-270 235,-245 181,-245"/>
<text text-anchor="start" x="194" y="-253.8" font-family="Times,serif" font-size="14.00" fill="#000000">input</text>
<polygon fill="none" stroke="black" points="235,-245 235,-270 252,-270 252,-245 235,-245"/>
<text text-anchor="start" x="240" y="-253.8" font-family="Times,serif" font-size="14.00">6</text>
<polygon fill="none" stroke="black" points="181,-220 181,-245 235,-245 235,-220 181,-220"/>
<text text-anchor="start" x="186.5" y="-228.8" font-family="Times,serif" font-size="14.00" fill="#ff0000">inferred</text>
<polygon fill="none" stroke="black" points="235,-220 235,-245 252,-245 252,-220 235,-220"/>
<text text-anchor="start" x="240" y="-228.8" font-family="Times,serif" font-size="14.00">2</text>
</g>
</g>
</svg>
