<?xml version="1.0" encoding="UTF-8" standalone="no"?>
<!DOCTYPE svg PUBLIC "-//W3C//DTD SVG 1.1//EN"
 "http://www.w3.org/Graphics/SVG/1.1/DTD/svg11.dtd">
<!-- Generated by graphviz version 2.36.0 (20140111.2315)
 -->
<!-- Title: %3 Pages: 1 -->
<svg width="260pt" height="427pt"
 viewBox="0.00 0.00 260.00 427.00" xmlns="http://www.w3.org/2000/svg" xmlns:xlink="http://www.w3.org/1999/xlink">
<g id="graph0" class="graph" transform="scale(1 1) rotate(0) translate(4 423)">
<title>%3</title>
<polygon fill="white" stroke="none" points="-4,4 -4,-423 256,-423 256,4 -4,4"/>
<!-- 1.E -->
<g id="node1" class="node"><title>1.E</title>
<polygon fill="#ccffcc" stroke="black" points="243,-225 189,-225 189,-189 243,-189 243,-225"/>
<text text-anchor="middle" x="216" y="-203.3" font-family="Times,serif" font-size="14.00">1.E</text>
</g>
<!-- 1.A -->
<g id="node2" class="node"><title>1.A</title>
<polygon fill="#ccffcc" stroke="black" points="144,-144 90,-144 90,-108 144,-108 144,-144"/>
<text text-anchor="middle" x="117" y="-122.3" font-family="Times,serif" font-size="14.00">1.A</text>
</g>
<!-- 1.E&#45;&gt;1.A -->
<g id="edge4" class="edge"><title>1.E&#45;&gt;1.A</title>
<path fill="none" stroke="#000000" d="M191.128,-188.889C187.375,-185.954 183.561,-182.92 180,-180 168.653,-170.696 156.422,-160.157 145.846,-150.875"/>
<polygon fill="#000000" stroke="#000000" points="147.939,-148.053 138.124,-144.063 143.308,-153.303 147.939,-148.053"/>
</g>
<!-- 2.A -->
<g id="node4" class="node"><title>2.A</title>
<polygon fill="#ffffcc" stroke="black" points="54,-64.5442 54,-79.4558 38.1838,-90 15.8162,-90 3.55271e-15,-79.4558 0,-64.5442 15.8162,-54 38.1838,-54 54,-64.5442"/>
<text text-anchor="middle" x="27" y="-68.3" font-family="Times,serif" font-size="14.00">2.A</text>
</g>
<!-- 1.A&#45;&gt;2.A -->
<g id="edge7" class="edge"><title>1.A&#45;&gt;2.A</title>
<path fill="none" stroke="#ff0000" d="M89.5971,-109.798C78.9971,-103.294 66.7658,-95.7881 56.0099,-89.1879"/>
<polygon fill="#ff0000" stroke="#ff0000" points="57.7441,-86.1456 47.3903,-83.8986 54.0829,-92.1119 57.7441,-86.1456"/>
</g>
<!-- 1.C -->
<g id="node3" class="node"><title>1.C</title>
<polygon fill="#ccffcc" stroke="black" points="243,-171 189,-171 189,-135 243,-135 243,-171"/>
<text text-anchor="middle" x="216" y="-149.3" font-family="Times,serif" font-size="14.00">1.C</text>
</g>
<!-- 1.C&#45;&gt;1.A -->
<g id="edge3" class="edge"><title>1.C&#45;&gt;1.A</title>
<path fill="none" stroke="#000000" d="M188.75,-145.693C178.075,-142.722 165.564,-139.239 154.055,-136.036"/>
<polygon fill="#000000" stroke="#000000" points="154.843,-132.622 144.271,-133.312 152.966,-139.366 154.843,-132.622"/>
</g>
<!-- 2.G -->
<g id="node5" class="node"><title>2.G</title>
<polygon fill="#ffffcc" stroke="black" points="144,-64.5442 144,-79.4558 128.184,-90 105.816,-90 90,-79.4558 90,-64.5442 105.816,-54 128.184,-54 144,-64.5442"/>
<text text-anchor="middle" x="117" y="-68.3" font-family="Times,serif" font-size="14.00">2.G</text>
</g>
<!-- 2.G&#45;&gt;2.A -->
<g id="edge1" class="edge"><title>2.G&#45;&gt;2.A</title>
<path fill="none" stroke="#000000" d="M89.5971,-72C81.6068,-72 72.6894,-72 64.1759,-72"/>
<polygon fill="#000000" stroke="#000000" points="64.081,-68.5001 54.081,-72 64.081,-75.5001 64.081,-68.5001"/>
</g>
<!-- 2.F -->
<g id="node6" class="node"><title>2.F</title>
<polygon fill="#ffffcc" stroke="black" points="144,-10.5442 144,-25.4558 128.184,-36 105.816,-36 90,-25.4558 90,-10.5442 105.816,-3.55271e-15 128.184,-0 144,-10.5442"/>
<text text-anchor="middle" x="117" y="-14.3" font-family="Times,serif" font-size="14.00">2.F</text>
</g>
<!-- 2.F&#45;&gt;2.A -->
<g id="edge5" class="edge"><title>2.F&#45;&gt;2.A</title>
<path fill="none" stroke="#000000" d="M96.4699,-29.9844C84.6212,-37.2552 69.3011,-46.6562 56.1576,-54.7215"/>
<polygon fill="#000000" stroke="#000000" points="54.1681,-51.8358 47.4755,-60.0492 57.8293,-57.8021 54.1681,-51.8358"/>
</g>
<!-- 2.D\n1.D -->
<g id="node7" class="node"><title>2.D\n1.D</title>
<polygon fill="#eeeeee" stroke="black" points="235,-117 197,-117 197,-79 235,-79 235,-117"/>
<polyline fill="none" stroke="black" points="209,-117 197,-105 "/>
<polyline fill="none" stroke="black" points="197,-91 209,-79 "/>
<polyline fill="none" stroke="black" points="223,-79 235,-91 "/>
<polyline fill="none" stroke="black" points="235,-105 223,-117 "/>
<text text-anchor="middle" x="216" y="-101.8" font-family="Times,serif" font-size="14.00">2.D</text>
<text text-anchor="middle" x="216" y="-86.8" font-family="Times,serif" font-size="14.00">1.D</text>
</g>
<!-- 2.D\n1.D&#45;&gt;1.A -->
<g id="edge6" class="edge"><title>2.D\n1.D&#45;&gt;1.A</title>
<path fill="none" stroke="#000000" d="M196.755,-103.267C184.716,-106.742 168.535,-111.413 153.972,-115.616"/>
<polygon fill="#000000" stroke="#000000" points="152.857,-112.295 144.22,-118.431 154.798,-119.021 152.857,-112.295"/>
</g>
<!-- 2.B\n1.B -->
<g id="node8" class="node"><title>2.B\n1.B</title>
<polygon fill="#eeeeee" stroke="black" points="235,-61 197,-61 197,-23 235,-23 235,-61"/>
<polyline fill="none" stroke="black" points="209,-61 197,-49 "/>
<polyline fill="none" stroke="black" points="197,-35 209,-23 "/>
<polyline fill="none" stroke="black" points="223,-23 235,-35 "/>
<polyline fill="none" stroke="black" points="235,-49 223,-61 "/>
<text text-anchor="middle" x="216" y="-45.8" font-family="Times,serif" font-size="14.00">2.B</text>
<text text-anchor="middle" x="216" y="-30.8" font-family="Times,serif" font-size="14.00">1.B</text>
</g>
<!-- 2.B\n1.B&#45;&gt;1.A -->
<g id="edge2" class="edge"><title>2.B\n1.B&#45;&gt;1.A</title>
<path fill="none" stroke="#000000" d="M196.666,-56.3286C191.245,-60.6558 185.335,-65.4633 180,-70 168.352,-79.9045 155.784,-91.1474 145.029,-100.947"/>
<polygon fill="#000000" stroke="#000000" points="142.569,-98.4537 137.557,-107.788 147.296,-103.617 142.569,-98.4537"/>
</g>
<!-- Legend -->
<g id="node9" class="node"><title>Legend</title>
<polygon fill="white" stroke="black" points="251.5,-419 180.5,-419 180.5,-243 251.5,-243 251.5,-419"/>
<polygon fill="none" stroke="black" points="181,-393 181,-419 252,-419 252,-393 181,-393"/>
<text text-anchor="start" x="192" y="-402.3" font-family="Arial Black" font-size="14.00"> Nodes</text>
<polygon fill="#ccffcc" stroke="none" points="181,-368 181,-393 235,-393 235,-368 181,-368"/>
<polygon fill="none" stroke="black" points="181,-368 181,-393 235,-393 235,-368 181,-368"/>
<text text-anchor="start" x="204.5" y="-376.8" font-family="Times,serif" font-size="14.00">1</text>
<polygon fill="none" stroke="black" points="235,-368 235,-393 252,-393 252,-368 235,-368"/>
<text text-anchor="start" x="240" y="-376.8" font-family="Times,serif" font-size="14.00">3</text>
<polygon fill="#ffffcc" stroke="none" points="181,-343 181,-368 235,-368 235,-343 181,-343"/>
<polygon fill="none" stroke="black" points="181,-343 181,-368 235,-368 235,-343 181,-343"/>
<text text-anchor="start" x="204.5" y="-351.8" font-family="Times,serif" font-size="14.00">2</text>
<polygon fill="none" stroke="black" points="235,-343 235,-368 252,-368 252,-343 235,-343"/>
<text text-anchor="start" x="240" y="-351.8" font-family="Times,serif" font-size="14.00">3</text>
<polygon fill="#eeeeee" stroke="none" points="181,-318 181,-343 235,-343 235,-318 181,-318"/>
<polygon fill="none" stroke="black" points="181,-318 181,-343 235,-343 235,-318 181,-318"/>
<text text-anchor="start" x="192.5" y="-326.8" font-family="Times,serif" font-size="14.00">comb</text>
<polygon fill="none" stroke="black" points="235,-318 235,-343 252,-343 252,-318 235,-318"/>
<text text-anchor="start" x="240" y="-326.8" font-family="Times,serif" font-size="14.00">2</text>
<polygon fill="none" stroke="black" points="181,-293 181,-318 252,-318 252,-293 181,-293"/>
<text text-anchor="start" x="190.5" y="-301.8" font-family="Arial Black" font-size="14.00"> Edges </text>
<polygon fill="none" stroke="black" points="181,-268 181,-293 235,-293 235,-268 181,-268"/>
<text text-anchor="start" x="194" y="-276.8" font-family="Times,serif" font-size="14.00" fill="#000000">input</text>
<polygon fill="none" stroke="black" points="235,-268 235,-293 252,-293 252,-268 235,-268"/>
<text text-anchor="start" x="240" y="-276.8" font-family="Times,serif" font-size="14.00">6</text>
<polygon fill="none" stroke="black" points="181,-243 181,-268 235,-268 235,-243 181,-243"/>
<text text-anchor="start" x="186.5" y="-251.8" font-family="Times,serif" font-size="14.00" fill="#ff0000">inferred</text>
<polygon fill="none" stroke="black" points="235,-243 235,-268 252,-268 252,-243 235,-243"/>
<text text-anchor="start" x="240" y="-251.8" font-family="Times,serif" font-size="14.00">1</text>
</g>
</g>
</svg>
