<?xml version="1.0" encoding="UTF-8" standalone="no"?>
<!DOCTYPE svg PUBLIC "-//W3C//DTD SVG 1.1//EN"
 "http://www.w3.org/Graphics/SVG/1.1/DTD/svg11.dtd">
<!-- Generated by graphviz version 2.36.0 (20140111.2315)
 -->
<!-- Title: %3 Pages: 1 -->
<svg width="350pt" height="400pt"
 viewBox="0.00 0.00 350.00 400.00" xmlns="http://www.w3.org/2000/svg" xmlns:xlink="http://www.w3.org/1999/xlink">
<g id="graph0" class="graph" transform="scale(1 1) rotate(0) translate(4 396)">
<title>%3</title>
<polygon fill="white" stroke="none" points="-4,4 -4,-396 346,-396 346,4 -4,4"/>
<!-- 1.E -->
<g id="node1" class="node"><title>1.E</title>
<polygon fill="#ccffcc" stroke="black" points="333,-198 279,-198 279,-162 333,-162 333,-198"/>
<text text-anchor="middle" x="306" y="-176.3" font-family="Times,serif" font-size="14.00">1.E</text>
</g>
<!-- 1.A -->
<g id="node2" class="node"><title>1.A</title>
<polygon fill="#ccffcc" stroke="black" points="144,-120 90,-120 90,-84 144,-84 144,-120"/>
<text text-anchor="middle" x="117" y="-98.3" font-family="Times,serif" font-size="14.00">1.A</text>
</g>
<!-- 1.E&#45;&gt;1.A -->
<g id="edge3" class="edge"><title>1.E&#45;&gt;1.A</title>
<path fill="none" stroke="#000000" d="M278.836,-179.252C252.627,-177.592 211.732,-172.477 180,-157 165.289,-149.825 151.411,-138.167 140.529,-127.427"/>
<polygon fill="#000000" stroke="#000000" points="142.983,-124.931 133.501,-120.205 137.967,-129.812 142.983,-124.931"/>
</g>
<!-- 2.A -->
<g id="node4" class="node"><title>2.A</title>
<polygon fill="#ffffcc" stroke="black" points="54,-67.5442 54,-82.4558 38.1838,-93 15.8162,-93 3.55271e-15,-82.4558 0,-67.5442 15.8162,-57 38.1838,-57 54,-67.5442"/>
<text text-anchor="middle" x="27" y="-71.3" font-family="Times,serif" font-size="14.00">2.A</text>
</g>
<!-- 1.A&#45;&gt;2.A -->
<g id="edge5" class="edge"><title>1.A&#45;&gt;2.A</title>
<path fill="none" stroke="#ff0000" d="M89.5971,-93.8991C81.284,-91.3485 71.9676,-88.49 63.1464,-85.7835"/>
<polygon fill="#ff0000" stroke="#ff0000" points="64.064,-82.4041 53.4772,-82.8169 62.0107,-89.0962 64.064,-82.4041"/>
</g>
<!-- 1.C -->
<g id="node3" class="node"><title>1.C</title>
<polygon fill="#ccffcc" stroke="black" points="333,-144 279,-144 279,-108 333,-108 333,-144"/>
<text text-anchor="middle" x="306" y="-122.3" font-family="Times,serif" font-size="14.00">1.C</text>
</g>
<!-- 2.F -->
<g id="node6" class="node"><title>2.F</title>
<polygon fill="#ffffcc" stroke="black" points="234,-122.544 234,-137.456 218.184,-148 195.816,-148 180,-137.456 180,-122.544 195.816,-112 218.184,-112 234,-122.544"/>
<text text-anchor="middle" x="207" y="-126.3" font-family="Times,serif" font-size="14.00">2.F</text>
</g>
<!-- 1.C&#45;&gt;2.F -->
<g id="edge6" class="edge"><title>1.C&#45;&gt;2.F</title>
<path fill="none" stroke="#ff0000" d="M278.75,-127.082C268.183,-127.518 255.816,-128.028 244.404,-128.499"/>
<polygon fill="#ff0000" stroke="#ff0000" points="244.118,-125.008 234.271,-128.917 244.406,-132.002 244.118,-125.008"/>
</g>
<!-- 2.G -->
<g id="node5" class="node"><title>2.G</title>
<polygon fill="#ffffcc" stroke="black" points="144,-40.5442 144,-55.4558 128.184,-66 105.816,-66 90,-55.4558 90,-40.5442 105.816,-30 128.184,-30 144,-40.5442"/>
<text text-anchor="middle" x="117" y="-44.3" font-family="Times,serif" font-size="14.00">2.G</text>
</g>
<!-- 2.G&#45;&gt;2.A -->
<g id="edge1" class="edge"><title>2.G&#45;&gt;2.A</title>
<path fill="none" stroke="#000000" d="M90.0731,-55.9549C81.7481,-58.5091 72.3785,-61.3839 63.4905,-64.1109"/>
<polygon fill="#000000" stroke="#000000" points="62.2751,-60.8227 53.7416,-67.102 64.3284,-67.5148 62.2751,-60.8227"/>
</g>
<!-- 2.F&#45;&gt;1.A -->
<g id="edge7" class="edge"><title>2.F&#45;&gt;1.A</title>
<path fill="none" stroke="#ff0000" d="M180.547,-121.901C172.122,-119.221 162.587,-116.187 153.546,-113.31"/>
<polygon fill="#ff0000" stroke="#ff0000" points="154.597,-109.972 144.007,-110.275 152.475,-116.642 154.597,-109.972"/>
</g>
<!-- 2.D\n1.D -->
<g id="node7" class="node"><title>2.D\n1.D</title>
<polygon fill="#eeeeee" stroke="black" points="226,-94 188,-94 188,-56 226,-56 226,-94"/>
<polyline fill="none" stroke="black" points="200,-94 188,-82 "/>
<polyline fill="none" stroke="black" points="188,-68 200,-56 "/>
<polyline fill="none" stroke="black" points="214,-56 226,-68 "/>
<polyline fill="none" stroke="black" points="226,-82 214,-94 "/>
<text text-anchor="middle" x="207" y="-78.8" font-family="Times,serif" font-size="14.00">2.D</text>
<text text-anchor="middle" x="207" y="-63.8" font-family="Times,serif" font-size="14.00">1.D</text>
</g>
<!-- 2.D\n1.D&#45;&gt;1.A -->
<g id="edge4" class="edge"><title>2.D\n1.D&#45;&gt;1.A</title>
<path fill="none" stroke="#000000" d="M187.766,-80.5944C178.032,-83.5811 165.7,-87.3648 154.12,-90.9176"/>
<polygon fill="#000000" stroke="#000000" points="152.756,-87.6752 144.222,-93.9545 154.809,-94.3673 152.756,-87.6752"/>
</g>
<!-- 2.B\n1.B -->
<g id="node8" class="node"><title>2.B\n1.B</title>
<polygon fill="#eeeeee" stroke="black" points="226,-38 188,-38 188,-0 226,-0 226,-38"/>
<polyline fill="none" stroke="black" points="200,-38 188,-26 "/>
<polyline fill="none" stroke="black" points="188,-12 200,-0 "/>
<polyline fill="none" stroke="black" points="214,-0 226,-12 "/>
<polyline fill="none" stroke="black" points="226,-26 214,-38 "/>
<text text-anchor="middle" x="207" y="-22.8" font-family="Times,serif" font-size="14.00">2.B</text>
<text text-anchor="middle" x="207" y="-7.8" font-family="Times,serif" font-size="14.00">1.B</text>
</g>
<!-- 2.B\n1.B&#45;&gt;1.A -->
<g id="edge2" class="edge"><title>2.B\n1.B&#45;&gt;1.A</title>
<path fill="none" stroke="#000000" d="M187.766,-36.1977C175.278,-47.9764 158.514,-63.7878 144.549,-76.9595"/>
<polygon fill="#000000" stroke="#000000" points="141.997,-74.5555 137.124,-83.9631 146.8,-79.6478 141.997,-74.5555"/>
</g>
<!-- Legend -->
<g id="node9" class="node"><title>Legend</title>
<polygon fill="white" stroke="black" points="341.5,-392 270.5,-392 270.5,-216 341.5,-216 341.5,-392"/>
<polygon fill="none" stroke="black" points="271,-366 271,-392 342,-392 342,-366 271,-366"/>
<text text-anchor="start" x="282" y="-375.3" font-family="Arial Black" font-size="14.00"> Nodes</text>
<polygon fill="#ccffcc" stroke="none" points="271,-341 271,-366 325,-366 325,-341 271,-341"/>
<polygon fill="none" stroke="black" points="271,-341 271,-366 325,-366 325,-341 271,-341"/>
<text text-anchor="start" x="294.5" y="-349.8" font-family="Times,serif" font-size="14.00">1</text>
<polygon fill="none" stroke="black" points="325,-341 325,-366 342,-366 342,-341 325,-341"/>
<text text-anchor="start" x="330" y="-349.8" font-family="Times,serif" font-size="14.00">3</text>
<polygon fill="#ffffcc" stroke="none" points="271,-316 271,-341 325,-341 325,-316 271,-316"/>
<polygon fill="none" stroke="black" points="271,-316 271,-341 325,-341 325,-316 271,-316"/>
<text text-anchor="start" x="294.5" y="-324.8" font-family="Times,serif" font-size="14.00">2</text>
<polygon fill="none" stroke="black" points="325,-316 325,-341 342,-341 342,-316 325,-316"/>
<text text-anchor="start" x="330" y="-324.8" font-family="Times,serif" font-size="14.00">3</text>
<polygon fill="#eeeeee" stroke="none" points="271,-291 271,-316 325,-316 325,-291 271,-291"/>
<polygon fill="none" stroke="black" points="271,-291 271,-316 325,-316 325,-291 271,-291"/>
<text text-anchor="start" x="282.5" y="-299.8" font-family="Times,serif" font-size="14.00">comb</text>
<polygon fill="none" stroke="black" points="325,-291 325,-316 342,-316 342,-291 325,-291"/>
<text text-anchor="start" x="330" y="-299.8" font-family="Times,serif" font-size="14.00">2</text>
<polygon fill="none" stroke="black" points="271,-266 271,-291 342,-291 342,-266 271,-266"/>
<text text-anchor="start" x="280.5" y="-274.8" font-family="Arial Black" font-size="14.00"> Edges </text>
<polygon fill="none" stroke="black" points="271,-241 271,-266 325,-266 325,-241 271,-241"/>
<text text-anchor="start" x="284" y="-249.8" font-family="Times,serif" font-size="14.00" fill="#000000">input</text>
<polygon fill="none" stroke="black" points="325,-241 325,-266 342,-266 342,-241 325,-241"/>
<text text-anchor="start" x="330" y="-249.8" font-family="Times,serif" font-size="14.00">4</text>
<polygon fill="none" stroke="black" points="271,-216 271,-241 325,-241 325,-216 271,-216"/>
<text text-anchor="start" x="276.5" y="-224.8" font-family="Times,serif" font-size="14.00" fill="#ff0000">inferred</text>
<polygon fill="none" stroke="black" points="325,-216 325,-241 342,-241 342,-216 325,-216"/>
<text text-anchor="start" x="330" y="-224.8" font-family="Times,serif" font-size="14.00">3</text>
</g>
</g>
</svg>
