<?xml version="1.0" encoding="UTF-8" standalone="no"?>
<!DOCTYPE svg PUBLIC "-//W3C//DTD SVG 1.1//EN"
 "http://www.w3.org/Graphics/SVG/1.1/DTD/svg11.dtd">
<!-- Generated by graphviz version 2.36.0 (20140111.2315)
 -->
<!-- Title: %3 Pages: 1 -->
<svg width="356pt" height="577pt"
 viewBox="0.00 0.00 356.00 577.00" xmlns="http://www.w3.org/2000/svg" xmlns:xlink="http://www.w3.org/1999/xlink">
<g id="graph0" class="graph" transform="scale(1 1) rotate(0) translate(4 573)">
<title>%3</title>
<polygon fill="white" stroke="none" points="-4,4 -4,-573 352,-573 352,4 -4,4"/>
<!-- 1.C -->
<g id="node1" class="node"><title>1.C</title>
<polygon fill="#ccffcc" stroke="black" points="348,-508 294,-508 294,-472 348,-472 348,-508"/>
<text text-anchor="middle" x="321" y="-486.3" font-family="Times,serif" font-size="14.00">1.C</text>
</g>
<!-- 1.A -->
<g id="node2" class="node"><title>1.A</title>
<polygon fill="#ccffcc" stroke="black" points="152,-243 98,-243 98,-207 152,-207 152,-243"/>
<text text-anchor="middle" x="125" y="-221.3" font-family="Times,serif" font-size="14.00">1.A</text>
</g>
<!-- 1.C&#45;&gt;1.A -->
<g id="edge5" class="edge"><title>1.C&#45;&gt;1.A</title>
<path fill="none" stroke="#67281d" stroke-width="6" d="M318.996,-471.924C315.106,-409.314 298.739,-203.385 250,-164 231.333,-148.916 218.475,-155.581 196,-164 194.648,-164.506 172.888,-183.549 153.984,-200.224"/>
<polygon fill="#67281d" stroke="#67281d" stroke-width="6" points="150.414,-196.372 146.393,-206.926 157.364,-204.242 150.414,-196.372"/>
<text text-anchor="middle" x="223" y="-167.8" font-family="Times,serif" font-size="14.00">6</text>
</g>
<!-- 2.F -->
<g id="node4" class="node"><title>2.F</title>
<polygon fill="#ffffcc" stroke="black" points="250,-543.544 250,-558.456 234.184,-569 211.816,-569 196,-558.456 196,-543.544 211.816,-533 234.184,-533 250,-543.544"/>
<text text-anchor="middle" x="223" y="-547.3" font-family="Times,serif" font-size="14.00">2.F</text>
</g>
<!-- 1.C&#45;&gt;2.F -->
<g id="edge7" class="edge"><title>1.C&#45;&gt;2.F</title>
<path fill="none" stroke="#39683f" stroke-width="3" d="M293.768,-506.669C280.777,-514.923 265.088,-524.892 251.88,-533.285"/>
<polygon fill="#39683f" stroke="#39683f" stroke-width="3" points="249.759,-530.485 243.196,-538.802 253.514,-536.393 249.759,-530.485"/>
<text text-anchor="middle" x="272" y="-525.8" font-family="Times,serif" font-size="14.00">3</text>
</g>
<!-- 1.A\n2.A -->
<g id="node9" class="node"><title>1.A\n2.A</title>
<polygon fill="#eeeeee" stroke="black" points="144,-460 106,-460 106,-422 144,-422 144,-460"/>
<polyline fill="none" stroke="black" points="118,-460 106,-448 "/>
<polyline fill="none" stroke="black" points="106,-434 118,-422 "/>
<polyline fill="none" stroke="black" points="132,-422 144,-434 "/>
<polyline fill="none" stroke="black" points="144,-448 132,-460 "/>
<text text-anchor="middle" x="125" y="-444.8" font-family="Times,serif" font-size="14.00">1.A</text>
<text text-anchor="middle" x="125" y="-429.8" font-family="Times,serif" font-size="14.00">2.A</text>
</g>
<!-- 1.C&#45;&gt;1.A\n2.A -->
<g id="edge6" class="edge"><title>1.C&#45;&gt;1.A\n2.A</title>
<path fill="none" stroke="#1b9356" d="M293.89,-486.106C263.672,-481.256 212.604,-471.995 170,-459 164.573,-457.345 158.887,-455.28 153.473,-453.146"/>
<polygon fill="#1b9356" stroke="#1b9356" points="154.716,-449.872 144.137,-449.301 152.051,-456.345 154.716,-449.872"/>
<text text-anchor="middle" x="223" y="-481.8" font-family="Times,serif" font-size="14.00">1</text>
</g>
<!-- 2.A -->
<g id="node5" class="node"><title>2.A</title>
<polygon fill="#ffffcc" stroke="black" points="54,-187.544 54,-202.456 38.1838,-213 15.8162,-213 3.55271e-15,-202.456 0,-187.544 15.8162,-177 38.1838,-177 54,-187.544"/>
<text text-anchor="middle" x="27" y="-191.3" font-family="Times,serif" font-size="14.00">2.A</text>
</g>
<!-- 1.A&#45;&gt;2.A -->
<g id="edge1" class="edge"><title>1.A&#45;&gt;2.A</title>
<path fill="none" stroke="#67281d" stroke-width="6" d="M97.7676,-216.802C87.1191,-213.475 74.6572,-209.58 63.2352,-206.011"/>
<polygon fill="#67281d" stroke="#67281d" stroke-width="6" points="64.6479,-200.952 53.5371,-202.98 61.516,-210.974 64.6479,-200.952"/>
<text text-anchor="middle" x="76" y="-213.8" font-family="Times,serif" font-size="14.00">6</text>
</g>
<!-- 1.E -->
<g id="node3" class="node"><title>1.E</title>
<polygon fill="#ccffcc" stroke="black" points="250,-420 196,-420 196,-384 250,-384 250,-420"/>
<text text-anchor="middle" x="223" y="-398.3" font-family="Times,serif" font-size="14.00">1.E</text>
</g>
<!-- 1.E&#45;&gt;1.A -->
<g id="edge11" class="edge"><title>1.E&#45;&gt;1.A</title>
<path fill="none" stroke="#583d29" stroke-width="5" d="M214.151,-383.873C205.772,-364.91 191.825,-334.42 178,-309 167.283,-289.295 153.945,-267.8 143.461,-251.488"/>
<polygon fill="#583d29" stroke="#583d29" stroke-width="5" points="147.073,-249.017 137.964,-243.002 139.729,-253.774 147.073,-249.017"/>
<text text-anchor="middle" x="174" y="-312.8" font-family="Times,serif" font-size="14.00">5</text>
</g>
<!-- 1.E&#45;&gt;1.A\n2.A -->
<g id="edge12" class="edge"><title>1.E&#45;&gt;1.A\n2.A</title>
<path fill="none" stroke="#1b9356" d="M204.844,-420.303C197.315,-427.117 187.932,-434.129 178,-438 170.702,-440.845 162.388,-442.108 154.583,-442.534"/>
<polygon fill="#1b9356" stroke="#1b9356" points="154.35,-439.037 144.397,-442.666 154.441,-446.036 154.35,-439.037"/>
<text text-anchor="middle" x="174" y="-443.8" font-family="Times,serif" font-size="14.00">1</text>
</g>
<!-- 2.F&#45;&gt;1.A -->
<g id="edge15" class="edge"><title>2.F&#45;&gt;1.A</title>
<path fill="none" stroke="#2a7e4a" stroke-width="2" d="M209.589,-534.406C197.13,-516.738 178.588,-487.454 170,-459 148.302,-387.109 169.923,-363.924 152,-291 148.785,-277.919 143.571,-263.968 138.653,-252.279"/>
<polygon fill="#2a7e4a" stroke="#2a7e4a" stroke-width="2" points="141.841,-250.833 134.642,-243.06 135.423,-253.626 141.841,-250.833"/>
<text text-anchor="middle" x="174" y="-480.8" font-family="Times,serif" font-size="14.00">2</text>
</g>
<!-- 2.F&#45;&gt;2.A -->
<g id="edge17" class="edge"><title>2.F&#45;&gt;2.A</title>
<path fill="none" stroke="#67281d" stroke-width="6" d="M200.469,-561.675C190.789,-564.958 179.445,-566.632 170,-562 123.068,-538.981 120.947,-515.967 98,-469 56.952,-384.984 38.2368,-274.325 31.3441,-223.166"/>
<polygon fill="#67281d" stroke="#67281d" stroke-width="6" points="36.542,-222.425 30.0489,-213.184 26.1293,-223.776 36.542,-222.425"/>
<text text-anchor="middle" x="125" y="-554.8" font-family="Times,serif" font-size="14.00">6</text>
</g>
<!-- 2.F&#45;&gt;1.A\n2.A -->
<g id="edge16" class="edge"><title>2.F&#45;&gt;1.A\n2.A</title>
<path fill="none" stroke="#1b9356" d="M195.847,-549.663C186.849,-548.062 177.23,-544.941 170,-539 148.977,-521.726 137.625,-492.312 131.75,-470.206"/>
<polygon fill="#1b9356" stroke="#1b9356" points="135.113,-469.222 129.353,-460.329 128.31,-470.873 135.113,-469.222"/>
<text text-anchor="middle" x="174" y="-546.8" font-family="Times,serif" font-size="14.00">1</text>
</g>
<!-- 2.G -->
<g id="node6" class="node"><title>2.G</title>
<polygon fill="#ffffcc" stroke="black" points="250,-87.5442 250,-102.456 234.184,-113 211.816,-113 196,-102.456 196,-87.5442 211.816,-77 234.184,-77 250,-87.5442"/>
<text text-anchor="middle" x="223" y="-91.3" font-family="Times,serif" font-size="14.00">2.G</text>
</g>
<!-- 2.G&#45;&gt;1.A -->
<g id="edge18" class="edge"><title>2.G&#45;&gt;1.A</title>
<path fill="none" stroke="#1b9356" d="M195.989,-102.312C186.571,-106.164 176.631,-111.836 170,-120 148.931,-145.937 166.896,-163.088 152,-193 151.115,-194.778 150.116,-196.547 149.038,-198.287"/>
<polygon fill="#1b9356" stroke="#1b9356" points="146.038,-196.469 143.158,-206.665 151.768,-200.491 146.038,-196.469"/>
<text text-anchor="middle" x="174" y="-123.8" font-family="Times,serif" font-size="14.00">1</text>
</g>
<!-- 2.G&#45;&gt;2.A -->
<g id="edge20" class="edge"><title>2.G&#45;&gt;2.A</title>
<path fill="none" stroke="#583d29" stroke-width="5" d="M204.245,-81.5255C194.221,-75.5912 181.445,-70.8117 170,-75 117.913,-94.0613 71.7694,-141.604 47.0605,-170.802"/>
<polygon fill="#583d29" stroke="#583d29" stroke-width="5" points="43.6837,-168.02 40.6726,-178.512 50.4216,-173.603 43.6837,-168.02"/>
<text text-anchor="middle" x="125" y="-122.8" font-family="Times,serif" font-size="14.00">5</text>
</g>
<!-- 2.G&#45;&gt;1.A\n2.A -->
<g id="edge19" class="edge"><title>2.G&#45;&gt;1.A\n2.A</title>
<path fill="none" stroke="#1b9356" d="M206.718,-110.063C202.54,-115.053 198.484,-120.901 196,-127 162.841,-208.428 200.149,-238.915 178,-324 177.396,-326.319 154.003,-378.621 138.802,-412.503"/>
<polygon fill="#1b9356" stroke="#1b9356" points="135.471,-411.376 134.569,-421.933 141.857,-414.243 135.471,-411.376"/>
<text text-anchor="middle" x="174" y="-345.8" font-family="Times,serif" font-size="14.00">1</text>
</g>
<!-- 1.D\n2.D -->
<g id="node7" class="node"><title>1.D\n2.D</title>
<polygon fill="#eeeeee" stroke="black" points="242,-332 204,-332 204,-294 242,-294 242,-332"/>
<polyline fill="none" stroke="black" points="216,-332 204,-320 "/>
<polyline fill="none" stroke="black" points="204,-306 216,-294 "/>
<polyline fill="none" stroke="black" points="230,-294 242,-306 "/>
<polyline fill="none" stroke="black" points="242,-320 230,-332 "/>
<text text-anchor="middle" x="223" y="-316.8" font-family="Times,serif" font-size="14.00">1.D</text>
<text text-anchor="middle" x="223" y="-301.8" font-family="Times,serif" font-size="14.00">2.D</text>
</g>
<!-- 1.D\n2.D&#45;&gt;1.A -->
<g id="edge8" class="edge"><title>1.D\n2.D&#45;&gt;1.A</title>
<path fill="none" stroke="#67281d" stroke-width="6" d="M213.466,-293.958C205.979,-279.137 193.819,-258.97 178,-246 173.059,-241.949 167.234,-238.595 161.303,-235.847"/>
<polygon fill="#67281d" stroke="#67281d" stroke-width="6" points="163.254,-230.972 152.008,-232.013 159.251,-240.679 163.254,-230.972"/>
<text text-anchor="middle" x="174" y="-249.8" font-family="Times,serif" font-size="14.00">6</text>
</g>
<!-- 1.D\n2.D&#45;&gt;2.A -->
<g id="edge10" class="edge"><title>1.D\n2.D&#45;&gt;2.A</title>
<path fill="none" stroke="#67281d" stroke-width="6" d="M203.709,-309.557C193.518,-307.277 180.753,-303.811 170,-299 123.74,-278.305 77.8227,-240.777 51.2181,-216.911"/>
<polygon fill="#67281d" stroke="#67281d" stroke-width="6" points="54.5313,-212.827 43.6026,-209.976 47.462,-220.591 54.5313,-212.827"/>
<text text-anchor="middle" x="125" y="-292.8" font-family="Times,serif" font-size="14.00">6</text>
</g>
<!-- 1.D\n2.D&#45;&gt;1.A\n2.A -->
<g id="edge9" class="edge"><title>1.D\n2.D&#45;&gt;1.A\n2.A</title>
<path fill="none" stroke="#1b9356" d="M215.176,-332.035C207.887,-350.654 195.041,-379.17 178,-400 170.718,-408.901 161.188,-417.106 152.277,-423.8"/>
<polygon fill="#1b9356" stroke="#1b9356" points="150.101,-421.053 144.018,-429.728 154.183,-426.74 150.101,-421.053"/>
<text text-anchor="middle" x="174" y="-410.8" font-family="Times,serif" font-size="14.00">1</text>
</g>
<!-- 1.B\n2.B -->
<g id="node8" class="node"><title>1.B\n2.B</title>
<polygon fill="#eeeeee" stroke="black" points="242,-226 204,-226 204,-188 242,-188 242,-226"/>
<polyline fill="none" stroke="black" points="216,-226 204,-214 "/>
<polyline fill="none" stroke="black" points="204,-200 216,-188 "/>
<polyline fill="none" stroke="black" points="230,-188 242,-200 "/>
<polyline fill="none" stroke="black" points="242,-214 230,-226 "/>
<text text-anchor="middle" x="223" y="-210.8" font-family="Times,serif" font-size="14.00">1.B</text>
<text text-anchor="middle" x="223" y="-195.8" font-family="Times,serif" font-size="14.00">2.B</text>
</g>
<!-- 1.B\n2.B&#45;&gt;1.A -->
<g id="edge2" class="edge"><title>1.B\n2.B&#45;&gt;1.A</title>
<path fill="none" stroke="#67281d" stroke-width="6" d="M203.545,-205.802C193.53,-205.54 180.987,-205.842 170,-208 167.306,-208.529 164.562,-209.212 161.829,-209.998"/>
<polygon fill="#67281d" stroke="#67281d" stroke-width="6" points="159.933,-205.095 152.079,-213.211 163.22,-215.067 159.933,-205.095"/>
<text text-anchor="middle" x="174" y="-211.8" font-family="Times,serif" font-size="14.00">6</text>
</g>
<!-- 1.B\n2.B&#45;&gt;2.A -->
<g id="edge4" class="edge"><title>1.B\n2.B&#45;&gt;2.A</title>
<path fill="none" stroke="#67281d" stroke-width="6" d="M203.717,-198.865C189.84,-193.155 170.122,-186.02 152,-183 122.692,-178.115 89.1316,-181.929 64.3218,-186.512"/>
<polygon fill="#67281d" stroke="#67281d" stroke-width="6" points="63.055,-181.41 54.2628,-188.5 65.091,-191.711 63.055,-181.41"/>
<text text-anchor="middle" x="125" y="-186.8" font-family="Times,serif" font-size="14.00">6</text>
</g>
<!-- 1.B\n2.B&#45;&gt;1.A\n2.A -->
<g id="edge3" class="edge"><title>1.B\n2.B&#45;&gt;1.A\n2.A</title>
<path fill="none" stroke="#1b9356" d="M215.093,-226.08C209.542,-241.778 201.751,-264.672 196,-285 186.433,-318.818 191.876,-329.711 178,-362 170.088,-380.412 157.901,-399.224 147.313,-413.869"/>
<polygon fill="#1b9356" stroke="#1b9356" points="144.448,-411.858 141.309,-421.977 150.073,-416.024 144.448,-411.858"/>
<text text-anchor="middle" x="174" y="-381.8" font-family="Times,serif" font-size="14.00">1</text>
</g>
<!-- 1.E\n2.G -->
<g id="node10" class="node"><title>1.E\n2.G</title>
<polygon fill="#eeeeee" stroke="black" points="242,-38 204,-38 204,-0 242,-0 242,-38"/>
<polyline fill="none" stroke="black" points="216,-38 204,-26 "/>
<polyline fill="none" stroke="black" points="204,-12 216,-0 "/>
<polyline fill="none" stroke="black" points="230,-0 242,-12 "/>
<polyline fill="none" stroke="black" points="242,-26 230,-38 "/>
<text text-anchor="middle" x="223" y="-22.8" font-family="Times,serif" font-size="14.00">1.E</text>
<text text-anchor="middle" x="223" y="-7.8" font-family="Times,serif" font-size="14.00">2.G</text>
</g>
<!-- 1.E\n2.G&#45;&gt;1.A -->
<g id="edge13" class="edge"><title>1.E\n2.G&#45;&gt;1.A</title>
<path fill="none" stroke="#1b9356" d="M205.375,-38.008C193.674,-52.414 178.617,-73.2167 170,-94 152.872,-135.311 170.687,-152.37 152,-193 151.17,-194.805 150.214,-196.594 149.17,-198.35"/>
<polygon fill="#1b9356" stroke="#1b9356" points="146.161,-196.549 143.382,-206.773 151.931,-200.513 146.161,-196.549"/>
<text text-anchor="middle" x="174" y="-97.8" font-family="Times,serif" font-size="14.00">1</text>
</g>
<!-- 1.E\n2.G&#45;&gt;2.A -->
<g id="edge14" class="edge"><title>1.E\n2.G&#45;&gt;2.A</title>
<path fill="none" stroke="#1b9356" d="M203.947,-21.5823C177.817,-26.1502 129.18,-37.8705 98,-65 66.3438,-92.5438 46.5499,-138.018 36.3918,-167.229"/>
<polygon fill="#1b9356" stroke="#1b9356" points="33.0345,-166.234 33.197,-176.827 39.6762,-168.445 33.0345,-166.234"/>
<text text-anchor="middle" x="125" y="-68.8" font-family="Times,serif" font-size="14.00">1</text>
</g>
</g>
</svg>
