<?xml version="1.0" encoding="UTF-8" standalone="no"?>
<!DOCTYPE svg PUBLIC "-//W3C//DTD SVG 1.1//EN"
 "http://www.w3.org/Graphics/SVG/1.1/DTD/svg11.dtd">
<!-- Generated by graphviz version 2.36.0 (20140111.2315)
 -->
<!-- Title: %3 Pages: 1 -->
<svg width="246pt" height="442pt"
 viewBox="0.00 0.00 246.00 442.00" xmlns="http://www.w3.org/2000/svg" xmlns:xlink="http://www.w3.org/1999/xlink">
<g id="graph0" class="graph" transform="scale(1 1) rotate(0) translate(4 438)">
<title>%3</title>
<polygon fill="white" stroke="none" points="-4,4 -4,-438 242,-438 242,4 -4,4"/>
<!-- 1.E -->
<g id="node1" class="node"><title>1.E</title>
<polygon fill="#ccffcc" stroke="black" points="228,-240 174,-240 174,-204 228,-204 228,-240"/>
<text text-anchor="middle" x="201" y="-218.3" font-family="Times,serif" font-size="14.00">1.E</text>
</g>
<!-- 2.G -->
<g id="node3" class="node"><title>2.G</title>
<polygon fill="#ffffcc" stroke="black" points="128,-214.544 128,-229.456 112.184,-240 89.8162,-240 74,-229.456 74,-214.544 89.8162,-204 112.184,-204 128,-214.544"/>
<text text-anchor="middle" x="101" y="-218.3" font-family="Times,serif" font-size="14.00">2.G</text>
</g>
<!-- 1.E&#45;&gt;2.G -->
<g id="edge4" class="edge"><title>1.E&#45;&gt;2.G</title>
<path fill="none" stroke="#0000ff" stroke-dasharray="1,5" d="M173.995,-222C159.819,-222 142.322,-222 128.126,-222"/>
</g>
<!-- 2.F -->
<g id="node4" class="node"><title>2.F</title>
<polygon fill="#ffffcc" stroke="black" points="128,-160.544 128,-175.456 112.184,-186 89.8162,-186 74,-175.456 74,-160.544 89.8162,-150 112.184,-150 128,-160.544"/>
<text text-anchor="middle" x="101" y="-164.3" font-family="Times,serif" font-size="14.00">2.F</text>
</g>
<!-- 1.E&#45;&gt;2.F -->
<g id="edge3" class="edge"><title>1.E&#45;&gt;2.F</title>
<path fill="none" stroke="#0000ff" stroke-dasharray="1,5" d="M173.995,-207.671C157.891,-198.797 137.501,-187.562 122.535,-179.315"/>
</g>
<!-- 1.A\n2.A -->
<g id="node5" class="node"><title>1.A\n2.A</title>
<polygon fill="#eeeeee" stroke="black" points="38,-164 0,-164 0,-126 38,-126 38,-164"/>
<polyline fill="none" stroke="black" points="12,-164 0,-152 "/>
<polyline fill="none" stroke="black" points="0,-138 12,-126 "/>
<polyline fill="none" stroke="black" points="26,-126 38,-138 "/>
<polyline fill="none" stroke="black" points="38,-152 26,-164 "/>
<text text-anchor="middle" x="19" y="-148.8" font-family="Times,serif" font-size="14.00">1.A</text>
<text text-anchor="middle" x="19" y="-133.8" font-family="Times,serif" font-size="14.00">2.A</text>
</g>
<!-- 1.E&#45;&gt;1.A\n2.A -->
<g id="edge6" class="edge"><title>1.E&#45;&gt;1.A\n2.A</title>
<path fill="none" stroke="#000000" d="M173.541,-238.121C146.682,-252.201 104.783,-267.702 74,-249 47.376,-232.825 33.2821,-198.791 26.254,-174.05"/>
<polygon fill="#000000" stroke="#000000" points="29.5683,-172.888 23.6587,-164.095 22.7946,-174.654 29.5683,-172.888"/>
</g>
<!-- 1.C -->
<g id="node2" class="node"><title>1.C</title>
<polygon fill="#ccffcc" stroke="black" points="228,-186 174,-186 174,-150 228,-150 228,-186"/>
<text text-anchor="middle" x="201" y="-164.3" font-family="Times,serif" font-size="14.00">1.C</text>
</g>
<!-- 1.C&#45;&gt;2.G -->
<g id="edge2" class="edge"><title>1.C&#45;&gt;2.G</title>
<path fill="none" stroke="#0000ff" stroke-dasharray="1,5" d="M173.995,-182.329C157.891,-191.203 137.501,-202.438 122.535,-210.685"/>
</g>
<!-- 1.C&#45;&gt;2.F -->
<g id="edge1" class="edge"><title>1.C&#45;&gt;2.F</title>
<path fill="none" stroke="#0000ff" stroke-dasharray="1,5" d="M173.995,-168C159.819,-168 142.322,-168 128.126,-168"/>
</g>
<!-- 1.C&#45;&gt;1.A\n2.A -->
<g id="edge10" class="edge"><title>1.C&#45;&gt;1.A\n2.A</title>
<path fill="none" stroke="#000000" d="M173.976,-155.656C160.568,-149.97 143.763,-143.858 128,-141 101.187,-136.138 70.0371,-138.08 48.1008,-140.671"/>
<polygon fill="#000000" stroke="#000000" points="47.5965,-137.207 38.1317,-141.968 48.4997,-144.148 47.5965,-137.207"/>
</g>
<!-- 2.G&#45;&gt;1.A\n2.A -->
<g id="edge9" class="edge"><title>2.G&#45;&gt;1.A\n2.A</title>
<path fill="none" stroke="#000000" d="M84.5752,-207.154C73.4923,-196.486 58.2997,-181.864 45.4351,-169.481"/>
<polygon fill="#000000" stroke="#000000" points="47.8103,-166.91 38.1782,-162.497 42.956,-171.953 47.8103,-166.91"/>
</g>
<!-- 2.F&#45;&gt;1.A\n2.A -->
<g id="edge8" class="edge"><title>2.F&#45;&gt;1.A\n2.A</title>
<path fill="none" stroke="#000000" d="M73.805,-160.469C65.5114,-158.085 56.3154,-155.441 47.9064,-153.023"/>
<polygon fill="#000000" stroke="#000000" points="48.731,-149.618 38.1532,-150.219 46.7968,-156.346 48.731,-149.618"/>
</g>
<!-- 1.B\n2.B -->
<g id="node6" class="node"><title>1.B\n2.B</title>
<polygon fill="#eeeeee" stroke="black" points="120,-94 82,-94 82,-56 120,-56 120,-94"/>
<polyline fill="none" stroke="black" points="94,-94 82,-82 "/>
<polyline fill="none" stroke="black" points="82,-68 94,-56 "/>
<polyline fill="none" stroke="black" points="108,-56 120,-68 "/>
<polyline fill="none" stroke="black" points="120,-82 108,-94 "/>
<text text-anchor="middle" x="101" y="-78.8" font-family="Times,serif" font-size="14.00">1.B</text>
<text text-anchor="middle" x="101" y="-63.8" font-family="Times,serif" font-size="14.00">2.B</text>
</g>
<!-- 1.B\n2.B&#45;&gt;1.A\n2.A -->
<g id="edge7" class="edge"><title>1.B\n2.B&#45;&gt;1.A\n2.A</title>
<path fill="none" stroke="#000000" d="M81.8468,-90.8841C71.2091,-100.192 57.5978,-112.102 45.854,-122.378"/>
<polygon fill="#000000" stroke="#000000" points="43.3024,-119.96 38.0814,-129.179 47.912,-125.228 43.3024,-119.96"/>
</g>
<!-- 1.D\n2.D -->
<g id="node7" class="node"><title>1.D\n2.D</title>
<polygon fill="#eeeeee" stroke="black" points="120,-38 82,-38 82,-0 120,-0 120,-38"/>
<polyline fill="none" stroke="black" points="94,-38 82,-26 "/>
<polyline fill="none" stroke="black" points="82,-12 94,-0 "/>
<polyline fill="none" stroke="black" points="108,-0 120,-12 "/>
<polyline fill="none" stroke="black" points="120,-26 108,-38 "/>
<text text-anchor="middle" x="101" y="-22.8" font-family="Times,serif" font-size="14.00">1.D</text>
<text text-anchor="middle" x="101" y="-7.8" font-family="Times,serif" font-size="14.00">2.D</text>
</g>
<!-- 1.D\n2.D&#45;&gt;1.A\n2.A -->
<g id="edge5" class="edge"><title>1.D\n2.D&#45;&gt;1.A\n2.A</title>
<path fill="none" stroke="#000000" d="M81.988,-37.1263C79.1773,-40.3061 76.4098,-43.667 74,-47 57.9841,-69.1517 43.2598,-96.5604 33.2462,-116.754"/>
<polygon fill="#000000" stroke="#000000" points="30.0937,-115.234 28.8566,-125.756 36.3855,-118.302 30.0937,-115.234"/>
</g>
<!-- Legend -->
<g id="node8" class="node"><title>Legend</title>
<polygon fill="white" stroke="black" points="238,-434 164,-434 164,-258 238,-258 238,-434"/>
<polygon fill="none" stroke="black" points="164,-408 164,-434 238,-434 238,-408 164,-408"/>
<text text-anchor="start" x="176.5" y="-417.3" font-family="Arial Black" font-size="14.00"> Nodes</text>
<polygon fill="#ccffcc" stroke="none" points="164,-383 164,-408 221,-408 221,-383 164,-383"/>
<polygon fill="none" stroke="black" points="164,-383 164,-408 221,-408 221,-383 164,-383"/>
<text text-anchor="start" x="189" y="-391.8" font-family="Times,serif" font-size="14.00">1</text>
<polygon fill="none" stroke="black" points="221,-383 221,-408 238,-408 238,-383 221,-383"/>
<text text-anchor="start" x="226" y="-391.8" font-family="Times,serif" font-size="14.00">2</text>
<polygon fill="#ffffcc" stroke="none" points="164,-358 164,-383 221,-383 221,-358 164,-358"/>
<polygon fill="none" stroke="black" points="164,-358 164,-383 221,-383 221,-358 164,-358"/>
<text text-anchor="start" x="189" y="-366.8" font-family="Times,serif" font-size="14.00">2</text>
<polygon fill="none" stroke="black" points="221,-358 221,-383 238,-383 238,-358 221,-358"/>
<text text-anchor="start" x="226" y="-366.8" font-family="Times,serif" font-size="14.00">2</text>
<polygon fill="#eeeeee" stroke="none" points="164,-333 164,-358 221,-358 221,-333 164,-333"/>
<polygon fill="none" stroke="black" points="164,-333 164,-358 221,-358 221,-333 164,-333"/>
<text text-anchor="start" x="177" y="-341.8" font-family="Times,serif" font-size="14.00">comb</text>
<polygon fill="none" stroke="black" points="221,-333 221,-358 238,-358 238,-333 221,-333"/>
<text text-anchor="start" x="226" y="-341.8" font-family="Times,serif" font-size="14.00">3</text>
<polygon fill="none" stroke="black" points="164,-308 164,-333 238,-333 238,-308 164,-308"/>
<text text-anchor="start" x="175" y="-316.8" font-family="Arial Black" font-size="14.00"> Edges </text>
<polygon fill="none" stroke="black" points="164,-283 164,-308 221,-308 221,-283 164,-283"/>
<text text-anchor="start" x="169.5" y="-291.8" font-family="Times,serif" font-size="14.00" fill="#0000ff">overlaps</text>
<polygon fill="none" stroke="black" points="221,-283 221,-308 238,-308 238,-283 221,-283"/>
<text text-anchor="start" x="226" y="-291.8" font-family="Times,serif" font-size="14.00">4</text>
<polygon fill="none" stroke="black" points="164,-258 164,-283 221,-283 221,-258 164,-258"/>
<text text-anchor="start" x="178.5" y="-266.8" font-family="Times,serif" font-size="14.00" fill="#000000">input</text>
<polygon fill="none" stroke="black" points="221,-258 221,-283 238,-283 238,-258 221,-258"/>
<text text-anchor="start" x="226" y="-266.8" font-family="Times,serif" font-size="14.00">6</text>
</g>
</g>
</svg>
