<?xml version="1.0" encoding="UTF-8" standalone="no"?>
<!DOCTYPE svg PUBLIC "-//W3C//DTD SVG 1.1//EN"
 "http://www.w3.org/Graphics/SVG/1.1/DTD/svg11.dtd">
<!-- Generated by graphviz version 2.36.0 (20140111.2315)
 -->
<!-- Title: %3 Pages: 1 -->
<svg width="352pt" height="431pt"
 viewBox="0.00 0.00 352.00 431.00" xmlns="http://www.w3.org/2000/svg" xmlns:xlink="http://www.w3.org/1999/xlink">
<g id="graph0" class="graph" transform="scale(1 1) rotate(0) translate(4 427)">
<title>%3</title>
<polygon fill="white" stroke="none" points="-4,4 -4,-427 348,-427 348,4 -4,4"/>
<!-- 1.C -->
<g id="node1" class="node"><title>1.C</title>
<polygon fill="#ccffcc" stroke="black" points="334,-36 280,-36 280,-0 334,-0 334,-36"/>
<text text-anchor="middle" x="307" y="-14.3" font-family="Times,serif" font-size="14.00">1.C</text>
</g>
<!-- 1.A -->
<g id="node2" class="node"><title>1.A</title>
<polygon fill="#ccffcc" stroke="black" points="234,-91 180,-91 180,-55 234,-55 234,-91"/>
<text text-anchor="middle" x="207" y="-69.3" font-family="Times,serif" font-size="14.00">1.A</text>
</g>
<!-- 1.C&#45;&gt;1.A -->
<g id="edge4" class="edge"><title>1.C&#45;&gt;1.A</title>
<path fill="none" stroke="#000000" d="M279.995,-32.5946C268.698,-38.9346 255.293,-46.4581 243.13,-53.2843"/>
<polygon fill="#000000" stroke="#000000" points="241.134,-50.3908 234.126,-58.3372 244.56,-56.4952 241.134,-50.3908"/>
</g>
<!-- 2.F -->
<g id="node4" class="node"><title>2.F</title>
<polygon fill="#ffffcc" stroke="black" points="144,-19.5442 144,-34.4558 128.184,-45 105.816,-45 90,-34.4558 90,-19.5442 105.816,-9 128.184,-9 144,-19.5442"/>
<text text-anchor="middle" x="117" y="-23.3" font-family="Times,serif" font-size="14.00">2.F</text>
</g>
<!-- 1.C&#45;&gt;2.F -->
<g id="edge8" class="edge"><title>1.C&#45;&gt;2.F</title>
<path fill="none" stroke="#ff0000" d="M279.859,-19.2514C247.26,-20.812 191.346,-23.4888 154.526,-25.2514"/>
<polygon fill="#ff0000" stroke="#ff0000" points="154.042,-21.7705 144.221,-25.7447 154.377,-28.7625 154.042,-21.7705"/>
</g>
<!-- 2.A -->
<g id="node3" class="node"><title>2.A</title>
<polygon fill="#ffffcc" stroke="black" points="54,-42.5442 54,-57.4558 38.1838,-68 15.8162,-68 3.55271e-15,-57.4558 0,-42.5442 15.8162,-32 38.1838,-32 54,-42.5442"/>
<text text-anchor="middle" x="27" y="-46.3" font-family="Times,serif" font-size="14.00">2.A</text>
</g>
<!-- 1.A&#45;&gt;2.A -->
<g id="edge7" class="edge"><title>1.A&#45;&gt;2.A</title>
<path fill="none" stroke="#ff0000" d="M179.735,-69.6063C149.149,-65.6541 98.4493,-59.103 64.1574,-54.672"/>
<polygon fill="#ff0000" stroke="#ff0000" points="64.4484,-51.1806 54.0823,-53.3702 63.5513,-58.1229 64.4484,-51.1806"/>
</g>
<!-- 1.A&#45;&gt;2.F -->
<g id="edge1" class="edge"><title>1.A&#45;&gt;2.F</title>
<path fill="none" stroke="#0000ff" stroke-dasharray="1,5" d="M179.597,-59.1985C166.637,-52.4237 151.237,-44.3741 139.078,-38.0181"/>
</g>
<!-- 2.F&#45;&gt;2.A -->
<g id="edge6" class="edge"><title>2.F&#45;&gt;2.A</title>
<path fill="none" stroke="#000000" d="M89.5971,-33.9008C81.519,-36.0121 72.4933,-38.3711 63.8954,-40.6182"/>
<polygon fill="#000000" stroke="#000000" points="62.8709,-37.2684 54.081,-43.1834 64.6411,-44.0409 62.8709,-37.2684"/>
</g>
<!-- 1.B\n2.B -->
<g id="node5" class="node"><title>1.B\n2.B</title>
<polygon fill="#eeeeee" stroke="black" points="326,-204 288,-204 288,-166 326,-166 326,-204"/>
<polyline fill="none" stroke="black" points="300,-204 288,-192 "/>
<polyline fill="none" stroke="black" points="288,-178 300,-166 "/>
<polyline fill="none" stroke="black" points="314,-166 326,-178 "/>
<polyline fill="none" stroke="black" points="326,-192 314,-204 "/>
<text text-anchor="middle" x="307" y="-188.8" font-family="Times,serif" font-size="14.00">1.B</text>
<text text-anchor="middle" x="307" y="-173.8" font-family="Times,serif" font-size="14.00">2.B</text>
</g>
<!-- 1.B\n2.B&#45;&gt;1.A -->
<g id="edge3" class="edge"><title>1.B\n2.B&#45;&gt;1.A</title>
<path fill="none" stroke="#000000" d="M287.978,-172.517C281.963,-167.961 275.417,-162.556 270,-157 252.866,-139.429 236.513,-116.947 224.908,-99.6638"/>
<polygon fill="#000000" stroke="#000000" points="227.721,-97.5727 219.293,-91.1534 221.878,-101.428 227.721,-97.5727"/>
</g>
<!-- 1.E\n2.G -->
<g id="node6" class="node"><title>1.E\n2.G</title>
<polygon fill="#eeeeee" stroke="black" points="326,-148 288,-148 288,-110 326,-110 326,-148"/>
<polyline fill="none" stroke="black" points="300,-148 288,-136 "/>
<polyline fill="none" stroke="black" points="288,-122 300,-110 "/>
<polyline fill="none" stroke="black" points="314,-110 326,-122 "/>
<polyline fill="none" stroke="black" points="326,-136 314,-148 "/>
<text text-anchor="middle" x="307" y="-132.8" font-family="Times,serif" font-size="14.00">1.E</text>
<text text-anchor="middle" x="307" y="-117.8" font-family="Times,serif" font-size="14.00">2.G</text>
</g>
<!-- 1.E\n2.G&#45;&gt;1.A -->
<g id="edge2" class="edge"><title>1.E\n2.G&#45;&gt;1.A</title>
<path fill="none" stroke="#000000" d="M287.567,-118.467C275.078,-111.33 258.178,-101.673 243.165,-93.0942"/>
<polygon fill="#000000" stroke="#000000" points="244.536,-89.8468 234.117,-87.9242 241.063,-95.9245 244.536,-89.8468"/>
</g>
<!-- 1.D\n2.D -->
<g id="node7" class="node"><title>1.D\n2.D</title>
<polygon fill="#eeeeee" stroke="black" points="326,-92 288,-92 288,-54 326,-54 326,-92"/>
<polyline fill="none" stroke="black" points="300,-92 288,-80 "/>
<polyline fill="none" stroke="black" points="288,-66 300,-54 "/>
<polyline fill="none" stroke="black" points="314,-54 326,-66 "/>
<polyline fill="none" stroke="black" points="326,-80 314,-92 "/>
<text text-anchor="middle" x="307" y="-76.8" font-family="Times,serif" font-size="14.00">1.D</text>
<text text-anchor="middle" x="307" y="-61.8" font-family="Times,serif" font-size="14.00">2.D</text>
</g>
<!-- 1.D\n2.D&#45;&gt;1.A -->
<g id="edge5" class="edge"><title>1.D\n2.D&#45;&gt;1.A</title>
<path fill="none" stroke="#000000" d="M287.567,-73C275.431,-73 259.131,-73 244.444,-73"/>
<polygon fill="#000000" stroke="#000000" points="244.117,-69.5001 234.117,-73 244.117,-76.5001 244.117,-69.5001"/>
</g>
<!-- Legend -->
<g id="node8" class="node"><title>Legend</title>
<polygon fill="white" stroke="black" points="344,-423.5 270,-423.5 270,-222.5 344,-222.5 344,-423.5"/>
<polygon fill="none" stroke="black" points="270,-397 270,-423 344,-423 344,-397 270,-397"/>
<text text-anchor="start" x="282.5" y="-406.3" font-family="Arial Black" font-size="14.00"> Nodes</text>
<polygon fill="#ccffcc" stroke="none" points="270,-372 270,-397 327,-397 327,-372 270,-372"/>
<polygon fill="none" stroke="black" points="270,-372 270,-397 327,-397 327,-372 270,-372"/>
<text text-anchor="start" x="295" y="-380.8" font-family="Times,serif" font-size="14.00">1</text>
<polygon fill="none" stroke="black" points="327,-372 327,-397 344,-397 344,-372 327,-372"/>
<text text-anchor="start" x="332" y="-380.8" font-family="Times,serif" font-size="14.00">2</text>
<polygon fill="#ffffcc" stroke="none" points="270,-347 270,-372 327,-372 327,-347 270,-347"/>
<polygon fill="none" stroke="black" points="270,-347 270,-372 327,-372 327,-347 270,-347"/>
<text text-anchor="start" x="295" y="-355.8" font-family="Times,serif" font-size="14.00">2</text>
<polygon fill="none" stroke="black" points="327,-347 327,-372 344,-372 344,-347 327,-347"/>
<text text-anchor="start" x="332" y="-355.8" font-family="Times,serif" font-size="14.00">2</text>
<polygon fill="#eeeeee" stroke="none" points="270,-322 270,-347 327,-347 327,-322 270,-322"/>
<polygon fill="none" stroke="black" points="270,-322 270,-347 327,-347 327,-322 270,-322"/>
<text text-anchor="start" x="283" y="-330.8" font-family="Times,serif" font-size="14.00">comb</text>
<polygon fill="none" stroke="black" points="327,-322 327,-347 344,-347 344,-322 327,-322"/>
<text text-anchor="start" x="332" y="-330.8" font-family="Times,serif" font-size="14.00">3</text>
<polygon fill="none" stroke="black" points="270,-297 270,-322 344,-322 344,-297 270,-297"/>
<text text-anchor="start" x="281" y="-305.8" font-family="Arial Black" font-size="14.00"> Edges </text>
<polygon fill="none" stroke="black" points="270,-272 270,-297 327,-297 327,-272 270,-272"/>
<text text-anchor="start" x="275.5" y="-280.8" font-family="Times,serif" font-size="14.00" fill="#0000ff">overlaps</text>
<polygon fill="none" stroke="black" points="327,-272 327,-297 344,-297 344,-272 327,-272"/>
<text text-anchor="start" x="332" y="-280.8" font-family="Times,serif" font-size="14.00">1</text>
<polygon fill="none" stroke="black" points="270,-247 270,-272 327,-272 327,-247 270,-247"/>
<text text-anchor="start" x="284.5" y="-255.8" font-family="Times,serif" font-size="14.00" fill="#000000">input</text>
<polygon fill="none" stroke="black" points="327,-247 327,-272 344,-272 344,-247 327,-247"/>
<text text-anchor="start" x="332" y="-255.8" font-family="Times,serif" font-size="14.00">5</text>
<polygon fill="none" stroke="black" points="270,-222 270,-247 327,-247 327,-222 270,-222"/>
<text text-anchor="start" x="277" y="-230.8" font-family="Times,serif" font-size="14.00" fill="#ff0000">inferred</text>
<polygon fill="none" stroke="black" points="327,-222 327,-247 344,-247 344,-222 327,-222"/>
<text text-anchor="start" x="332" y="-230.8" font-family="Times,serif" font-size="14.00">2</text>
</g>
</g>
</svg>
