<?xml version="1.0" encoding="UTF-8" standalone="no"?>
<!DOCTYPE svg PUBLIC "-//W3C//DTD SVG 1.1//EN"
 "http://www.w3.org/Graphics/SVG/1.1/DTD/svg11.dtd">
<!-- Generated by graphviz version 2.36.0 (20140111.2315)
 -->
<!-- Title: %3 Pages: 1 -->
<svg width="352pt" height="429pt"
 viewBox="0.00 0.00 352.00 429.00" xmlns="http://www.w3.org/2000/svg" xmlns:xlink="http://www.w3.org/1999/xlink">
<g id="graph0" class="graph" transform="scale(1 1) rotate(0) translate(4 425)">
<title>%3</title>
<polygon fill="white" stroke="none" points="-4,4 -4,-425 348,-425 348,4 -4,4"/>
<!-- 1.E -->
<g id="node1" class="node"><title>1.E</title>
<polygon fill="#ccffcc" stroke="black" points="334,-202 280,-202 280,-166 334,-166 334,-202"/>
<text text-anchor="middle" x="307" y="-180.3" font-family="Times,serif" font-size="14.00">1.E</text>
</g>
<!-- 1.A -->
<g id="node2" class="node"><title>1.A</title>
<polygon fill="#ccffcc" stroke="black" points="234,-118 180,-118 180,-82 234,-82 234,-118"/>
<text text-anchor="middle" x="207" y="-96.3" font-family="Times,serif" font-size="14.00">1.A</text>
</g>
<!-- 1.E&#45;&gt;1.A -->
<g id="edge9" class="edge"><title>1.E&#45;&gt;1.A</title>
<path fill="none" stroke="#000000" d="M280.96,-165.728C277.238,-162.866 273.485,-159.896 270,-157 257.966,-146.998 245.157,-135.396 234.326,-125.281"/>
<polygon fill="#000000" stroke="#000000" points="236.508,-122.528 226.827,-118.222 231.71,-127.625 236.508,-122.528"/>
</g>
<!-- 2.G -->
<g id="node5" class="node"><title>2.G</title>
<polygon fill="#ffffcc" stroke="black" points="144,-161.544 144,-176.456 128.184,-187 105.816,-187 90,-176.456 90,-161.544 105.816,-151 128.184,-151 144,-161.544"/>
<text text-anchor="middle" x="117" y="-165.3" font-family="Times,serif" font-size="14.00">2.G</text>
</g>
<!-- 1.E&#45;&gt;2.G -->
<g id="edge4" class="edge"><title>1.E&#45;&gt;2.G</title>
<path fill="none" stroke="#0000ff" stroke-dasharray="1,5" d="M279.859,-181.914C244.042,-179.057 180.08,-173.953 144.221,-171.092"/>
</g>
<!-- 2.F -->
<g id="node6" class="node"><title>2.F</title>
<polygon fill="#ffffcc" stroke="black" points="144,-107.544 144,-122.456 128.184,-133 105.816,-133 90,-122.456 90,-107.544 105.816,-97 128.184,-97 144,-107.544"/>
<text text-anchor="middle" x="117" y="-111.3" font-family="Times,serif" font-size="14.00">2.F</text>
</g>
<!-- 1.E&#45;&gt;2.F -->
<g id="edge3" class="edge"><title>1.E&#45;&gt;2.F</title>
<path fill="none" stroke="#0000ff" stroke-dasharray="1,5" d="M279.859,-174.406C243.336,-161.001 177.547,-136.855 142.133,-123.857"/>
</g>
<!-- 2.A -->
<g id="node4" class="node"><title>2.A</title>
<polygon fill="#ffffcc" stroke="black" points="54,-107.544 54,-122.456 38.1838,-133 15.8162,-133 3.55271e-15,-122.456 0,-107.544 15.8162,-97 38.1838,-97 54,-107.544"/>
<text text-anchor="middle" x="27" y="-111.3" font-family="Times,serif" font-size="14.00">2.A</text>
</g>
<!-- 1.A&#45;&gt;2.A -->
<g id="edge12" class="edge"><title>1.A&#45;&gt;2.A</title>
<path fill="none" stroke="#ff0000" d="M179.966,-92.7749C156.302,-87.276 120.524,-81.642 90,-88 78.9383,-90.3041 67.431,-94.6918 57.3766,-99.2708"/>
<polygon fill="#ff0000" stroke="#ff0000" points="55.7423,-96.173 48.2439,-103.658 58.7734,-102.483 55.7423,-96.173"/>
</g>
<!-- 1.A&#45;&gt;2.G -->
<g id="edge2" class="edge"><title>1.A&#45;&gt;2.G</title>
<path fill="none" stroke="#0000ff" stroke-dasharray="1,5" d="M182.879,-118.129C167.907,-129.868 148.737,-144.899 135.127,-155.571"/>
</g>
<!-- 1.A&#45;&gt;2.F -->
<g id="edge1" class="edge"><title>1.A&#45;&gt;2.F</title>
<path fill="none" stroke="#0000ff" stroke-dasharray="1,5" d="M179.597,-104.5C168.358,-106.416 155.285,-108.645 144.081,-110.554"/>
</g>
<!-- 1.C -->
<g id="node3" class="node"><title>1.C</title>
<polygon fill="#ccffcc" stroke="black" points="334,-36 280,-36 280,-0 334,-0 334,-36"/>
<text text-anchor="middle" x="307" y="-14.3" font-family="Times,serif" font-size="14.00">1.C</text>
</g>
<!-- 1.C&#45;&gt;1.A -->
<g id="edge5" class="edge"><title>1.C&#45;&gt;1.A</title>
<path fill="none" stroke="#000000" d="M281.392,-36.0333C277.538,-38.9781 273.631,-42.0359 270,-45 258.25,-54.5912 245.664,-65.6093 234.923,-75.2528"/>
<polygon fill="#000000" stroke="#000000" points="232.538,-72.6902 227.466,-81.9919 237.232,-77.8835 232.538,-72.6902"/>
</g>
<!-- 1.C&#45;&gt;2.F -->
<g id="edge11" class="edge"><title>1.C&#45;&gt;2.F</title>
<path fill="none" stroke="#ff0000" d="M279.756,-27.8185C253.796,-37.9073 213.241,-54.6893 180,-73 167.69,-79.7811 154.721,-88.3244 143.844,-95.9326"/>
<polygon fill="#ff0000" stroke="#ff0000" points="141.742,-93.1329 135.623,-101.782 145.8,-98.8366 141.742,-93.1329"/>
</g>
<!-- 2.G&#45;&gt;2.A -->
<g id="edge8" class="edge"><title>2.G&#45;&gt;2.A</title>
<path fill="none" stroke="#000000" d="M96.4699,-157.016C84.6212,-149.745 69.3011,-140.344 56.1576,-132.279"/>
<polygon fill="#000000" stroke="#000000" points="57.8293,-129.198 47.4755,-126.951 54.1681,-135.164 57.8293,-129.198"/>
</g>
<!-- 2.F&#45;&gt;2.A -->
<g id="edge7" class="edge"><title>2.F&#45;&gt;2.A</title>
<path fill="none" stroke="#000000" d="M89.5971,-115C81.6068,-115 72.6894,-115 64.1759,-115"/>
<polygon fill="#000000" stroke="#000000" points="64.081,-111.5 54.081,-115 64.081,-118.5 64.081,-111.5"/>
</g>
<!-- 1.D\n2.D -->
<g id="node7" class="node"><title>1.D\n2.D</title>
<polygon fill="#eeeeee" stroke="black" points="326,-92 288,-92 288,-54 326,-54 326,-92"/>
<polyline fill="none" stroke="black" points="300,-92 288,-80 "/>
<polyline fill="none" stroke="black" points="288,-66 300,-54 "/>
<polyline fill="none" stroke="black" points="314,-54 326,-66 "/>
<polyline fill="none" stroke="black" points="326,-80 314,-92 "/>
<text text-anchor="middle" x="307" y="-76.8" font-family="Times,serif" font-size="14.00">1.D</text>
<text text-anchor="middle" x="307" y="-61.8" font-family="Times,serif" font-size="14.00">2.D</text>
</g>
<!-- 1.D\n2.D&#45;&gt;1.A -->
<g id="edge10" class="edge"><title>1.D\n2.D&#45;&gt;1.A</title>
<path fill="none" stroke="#000000" d="M287.567,-78.0785C275.313,-81.4545 258.814,-86.0003 244.017,-90.0771"/>
<polygon fill="#000000" stroke="#000000" points="242.829,-86.7739 234.117,-92.8044 244.688,-93.5225 242.829,-86.7739"/>
</g>
<!-- 1.B\n2.B -->
<g id="node8" class="node"><title>1.B\n2.B</title>
<polygon fill="#eeeeee" stroke="black" points="326,-148 288,-148 288,-110 326,-110 326,-148"/>
<polyline fill="none" stroke="black" points="300,-148 288,-136 "/>
<polyline fill="none" stroke="black" points="288,-122 300,-110 "/>
<polyline fill="none" stroke="black" points="314,-110 326,-122 "/>
<polyline fill="none" stroke="black" points="326,-136 314,-148 "/>
<text text-anchor="middle" x="307" y="-132.8" font-family="Times,serif" font-size="14.00">1.B</text>
<text text-anchor="middle" x="307" y="-117.8" font-family="Times,serif" font-size="14.00">2.B</text>
</g>
<!-- 1.B\n2.B&#45;&gt;1.A -->
<g id="edge6" class="edge"><title>1.B\n2.B&#45;&gt;1.A</title>
<path fill="none" stroke="#000000" d="M287.567,-123.545C275.313,-119.919 258.814,-115.037 244.017,-110.658"/>
<polygon fill="#000000" stroke="#000000" points="244.7,-107.21 234.117,-107.729 242.713,-113.922 244.7,-107.21"/>
</g>
<!-- Legend -->
<g id="node9" class="node"><title>Legend</title>
<polygon fill="white" stroke="black" points="344,-421.5 270,-421.5 270,-220.5 344,-220.5 344,-421.5"/>
<polygon fill="none" stroke="black" points="270,-395 270,-421 344,-421 344,-395 270,-395"/>
<text text-anchor="start" x="282.5" y="-404.3" font-family="Arial Black" font-size="14.00"> Nodes</text>
<polygon fill="#ccffcc" stroke="none" points="270,-370 270,-395 327,-395 327,-370 270,-370"/>
<polygon fill="none" stroke="black" points="270,-370 270,-395 327,-395 327,-370 270,-370"/>
<text text-anchor="start" x="295" y="-378.8" font-family="Times,serif" font-size="14.00">1</text>
<polygon fill="none" stroke="black" points="327,-370 327,-395 344,-395 344,-370 327,-370"/>
<text text-anchor="start" x="332" y="-378.8" font-family="Times,serif" font-size="14.00">3</text>
<polygon fill="#ffffcc" stroke="none" points="270,-345 270,-370 327,-370 327,-345 270,-345"/>
<polygon fill="none" stroke="black" points="270,-345 270,-370 327,-370 327,-345 270,-345"/>
<text text-anchor="start" x="295" y="-353.8" font-family="Times,serif" font-size="14.00">2</text>
<polygon fill="none" stroke="black" points="327,-345 327,-370 344,-370 344,-345 327,-345"/>
<text text-anchor="start" x="332" y="-353.8" font-family="Times,serif" font-size="14.00">3</text>
<polygon fill="#eeeeee" stroke="none" points="270,-320 270,-345 327,-345 327,-320 270,-320"/>
<polygon fill="none" stroke="black" points="270,-320 270,-345 327,-345 327,-320 270,-320"/>
<text text-anchor="start" x="283" y="-328.8" font-family="Times,serif" font-size="14.00">comb</text>
<polygon fill="none" stroke="black" points="327,-320 327,-345 344,-345 344,-320 327,-320"/>
<text text-anchor="start" x="332" y="-328.8" font-family="Times,serif" font-size="14.00">2</text>
<polygon fill="none" stroke="black" points="270,-295 270,-320 344,-320 344,-295 270,-295"/>
<text text-anchor="start" x="281" y="-303.8" font-family="Arial Black" font-size="14.00"> Edges </text>
<polygon fill="none" stroke="black" points="270,-270 270,-295 327,-295 327,-270 270,-270"/>
<text text-anchor="start" x="275.5" y="-278.8" font-family="Times,serif" font-size="14.00" fill="#0000ff">overlaps</text>
<polygon fill="none" stroke="black" points="327,-270 327,-295 344,-295 344,-270 327,-270"/>
<text text-anchor="start" x="332" y="-278.8" font-family="Times,serif" font-size="14.00">4</text>
<polygon fill="none" stroke="black" points="270,-245 270,-270 327,-270 327,-245 270,-245"/>
<text text-anchor="start" x="284.5" y="-253.8" font-family="Times,serif" font-size="14.00" fill="#000000">input</text>
<polygon fill="none" stroke="black" points="327,-245 327,-270 344,-270 344,-245 327,-245"/>
<text text-anchor="start" x="332" y="-253.8" font-family="Times,serif" font-size="14.00">6</text>
<polygon fill="none" stroke="black" points="270,-220 270,-245 327,-245 327,-220 270,-220"/>
<text text-anchor="start" x="277" y="-228.8" font-family="Times,serif" font-size="14.00" fill="#ff0000">inferred</text>
<polygon fill="none" stroke="black" points="327,-220 327,-245 344,-245 344,-220 327,-220"/>
<text text-anchor="start" x="332" y="-228.8" font-family="Times,serif" font-size="14.00">2</text>
</g>
</g>
</svg>
