<?xml version="1.0" encoding="UTF-8" standalone="no"?>
<!DOCTYPE svg PUBLIC "-//W3C//DTD SVG 1.1//EN"
 "http://www.w3.org/Graphics/SVG/1.1/DTD/svg11.dtd">
<!-- Generated by graphviz version 2.36.0 (20140111.2315)
 -->
<!-- Title: %3 Pages: 1 -->
<svg width="442pt" height="425pt"
 viewBox="0.00 0.00 442.00 425.00" xmlns="http://www.w3.org/2000/svg" xmlns:xlink="http://www.w3.org/1999/xlink">
<g id="graph0" class="graph" transform="scale(1 1) rotate(0) translate(4 421)">
<title>%3</title>
<polygon fill="white" stroke="none" points="-4,4 -4,-421 438,-421 438,4 -4,4"/>
<!-- 1.E -->
<g id="node1" class="node"><title>1.E</title>
<polygon fill="#ccffcc" stroke="black" points="424,-198 370,-198 370,-162 424,-162 424,-198"/>
<text text-anchor="middle" x="397" y="-176.3" font-family="Times,serif" font-size="14.00">1.E</text>
</g>
<!-- 1.A -->
<g id="node2" class="node"><title>1.A</title>
<polygon fill="#ccffcc" stroke="black" points="234,-148 180,-148 180,-112 234,-112 234,-148"/>
<text text-anchor="middle" x="207" y="-126.3" font-family="Times,serif" font-size="14.00">1.A</text>
</g>
<!-- 1.E&#45;&gt;1.A -->
<g id="edge6" class="edge"><title>1.E&#45;&gt;1.A</title>
<path fill="none" stroke="#000000" d="M369.519,-176.969C343.728,-173.598 303.609,-167.236 270,-157 261.187,-154.316 251.952,-150.741 243.381,-147.073"/>
<polygon fill="#000000" stroke="#000000" points="244.605,-143.787 234.044,-142.934 241.768,-150.186 244.605,-143.787"/>
</g>
<!-- 2.G -->
<g id="node5" class="node"><title>2.G</title>
<polygon fill="#ffffcc" stroke="black" points="144,-168.544 144,-183.456 128.184,-194 105.816,-194 90,-183.456 90,-168.544 105.816,-158 128.184,-158 144,-168.544"/>
<text text-anchor="middle" x="117" y="-172.3" font-family="Times,serif" font-size="14.00">2.G</text>
</g>
<!-- 1.E&#45;&gt;2.G -->
<g id="edge3" class="edge"><title>1.E&#45;&gt;2.G</title>
<path fill="none" stroke="#0000ff" stroke-dasharray="1,5" d="M369.846,-179.624C316.862,-178.861 197.382,-177.142 144.287,-176.378"/>
</g>
<!-- 2.F -->
<g id="node6" class="node"><title>2.F</title>
<polygon fill="#ffffcc" stroke="black" points="324,-122.544 324,-137.456 308.184,-148 285.816,-148 270,-137.456 270,-122.544 285.816,-112 308.184,-112 324,-122.544"/>
<text text-anchor="middle" x="297" y="-126.3" font-family="Times,serif" font-size="14.00">2.F</text>
</g>
<!-- 1.E&#45;&gt;2.F -->
<g id="edge2" class="edge"><title>1.E&#45;&gt;2.F</title>
<path fill="none" stroke="#0000ff" stroke-dasharray="1,5" d="M369.995,-166.732C354.118,-158.631 334.074,-148.405 319.17,-140.801"/>
</g>
<!-- 2.A -->
<g id="node4" class="node"><title>2.A</title>
<polygon fill="#ffffcc" stroke="black" points="54,-145.544 54,-160.456 38.1838,-171 15.8162,-171 3.55271e-15,-160.456 0,-145.544 15.8162,-135 38.1838,-135 54,-145.544"/>
<text text-anchor="middle" x="27" y="-149.3" font-family="Times,serif" font-size="14.00">2.A</text>
</g>
<!-- 1.A&#45;&gt;2.A -->
<g id="edge10" class="edge"><title>1.A&#45;&gt;2.A</title>
<path fill="none" stroke="#ff0000" d="M179.735,-133.394C149.149,-137.346 98.4493,-143.897 64.1574,-148.328"/>
<polygon fill="#ff0000" stroke="#ff0000" points="63.5513,-144.877 54.0823,-149.63 64.4484,-151.819 63.5513,-144.877"/>
</g>
<!-- 1.A&#45;&gt;2.G -->
<g id="edge1" class="edge"><title>1.A&#45;&gt;2.G</title>
<path fill="none" stroke="#0000ff" stroke-dasharray="1,5" d="M179.597,-143.802C166.637,-150.576 151.237,-158.626 139.078,-164.982"/>
</g>
<!-- 1.C -->
<g id="node3" class="node"><title>1.C</title>
<polygon fill="#ccffcc" stroke="black" points="424,-144 370,-144 370,-108 424,-108 424,-144"/>
<text text-anchor="middle" x="397" y="-122.3" font-family="Times,serif" font-size="14.00">1.C</text>
</g>
<!-- 1.C&#45;&gt;2.F -->
<g id="edge9" class="edge"><title>1.C&#45;&gt;2.F</title>
<path fill="none" stroke="#ff0000" d="M369.995,-127.061C359.031,-127.509 346.08,-128.038 334.206,-128.522"/>
<polygon fill="#ff0000" stroke="#ff0000" points="333.975,-125.029 324.126,-128.934 334.261,-132.023 333.975,-125.029"/>
</g>
<!-- 2.G&#45;&gt;2.A -->
<g id="edge5" class="edge"><title>2.G&#45;&gt;2.A</title>
<path fill="none" stroke="#000000" d="M89.5971,-169.099C81.519,-166.988 72.4933,-164.629 63.8954,-162.382"/>
<polygon fill="#000000" stroke="#000000" points="64.6411,-158.959 54.081,-159.817 62.8709,-165.732 64.6411,-158.959"/>
</g>
<!-- 2.F&#45;&gt;1.A -->
<g id="edge8" class="edge"><title>2.F&#45;&gt;1.A</title>
<path fill="none" stroke="#ff0000" d="M269.597,-130C261.607,-130 252.689,-130 244.176,-130"/>
<polygon fill="#ff0000" stroke="#ff0000" points="244.081,-126.5 234.081,-130 244.081,-133.5 244.081,-126.5"/>
</g>
<!-- 1.D\n2.D -->
<g id="node7" class="node"><title>1.D\n2.D</title>
<polygon fill="#eeeeee" stroke="black" points="316,-94 278,-94 278,-56 316,-56 316,-94"/>
<polyline fill="none" stroke="black" points="290,-94 278,-82 "/>
<polyline fill="none" stroke="black" points="278,-68 290,-56 "/>
<polyline fill="none" stroke="black" points="304,-56 316,-68 "/>
<polyline fill="none" stroke="black" points="316,-82 304,-94 "/>
<text text-anchor="middle" x="297" y="-78.8" font-family="Times,serif" font-size="14.00">1.D</text>
<text text-anchor="middle" x="297" y="-63.8" font-family="Times,serif" font-size="14.00">2.D</text>
</g>
<!-- 1.D\n2.D&#45;&gt;1.A -->
<g id="edge7" class="edge"><title>1.D\n2.D&#45;&gt;1.A</title>
<path fill="none" stroke="#000000" d="M277.766,-86.396C267.639,-92.7258 254.699,-100.813 242.721,-108.3"/>
<polygon fill="#000000" stroke="#000000" points="240.847,-105.343 234.222,-113.611 244.557,-111.279 240.847,-105.343"/>
</g>
<!-- 1.B\n2.B -->
<g id="node8" class="node"><title>1.B\n2.B</title>
<polygon fill="#eeeeee" stroke="black" points="316,-38 278,-38 278,-0 316,-0 316,-38"/>
<polyline fill="none" stroke="black" points="290,-38 278,-26 "/>
<polyline fill="none" stroke="black" points="278,-12 290,-0 "/>
<polyline fill="none" stroke="black" points="304,-0 316,-12 "/>
<polyline fill="none" stroke="black" points="316,-26 304,-38 "/>
<text text-anchor="middle" x="297" y="-22.8" font-family="Times,serif" font-size="14.00">1.B</text>
<text text-anchor="middle" x="297" y="-7.8" font-family="Times,serif" font-size="14.00">2.B</text>
</g>
<!-- 1.B\n2.B&#45;&gt;1.A -->
<g id="edge4" class="edge"><title>1.B\n2.B&#45;&gt;1.A</title>
<path fill="none" stroke="#000000" d="M277.821,-38.0361C275.146,-40.9915 272.464,-44.0448 270,-47 254.699,-65.3519 238.583,-87.0075 226.618,-103.596"/>
<polygon fill="#000000" stroke="#000000" points="223.744,-101.598 220.765,-111.765 229.435,-105.675 223.744,-101.598"/>
</g>
<!-- Legend -->
<g id="node9" class="node"><title>Legend</title>
<polygon fill="white" stroke="black" points="434,-417.5 360,-417.5 360,-216.5 434,-216.5 434,-417.5"/>
<polygon fill="none" stroke="black" points="360,-391 360,-417 434,-417 434,-391 360,-391"/>
<text text-anchor="start" x="372.5" y="-400.3" font-family="Arial Black" font-size="14.00"> Nodes</text>
<polygon fill="#ccffcc" stroke="none" points="360,-366 360,-391 417,-391 417,-366 360,-366"/>
<polygon fill="none" stroke="black" points="360,-366 360,-391 417,-391 417,-366 360,-366"/>
<text text-anchor="start" x="385" y="-374.8" font-family="Times,serif" font-size="14.00">1</text>
<polygon fill="none" stroke="black" points="417,-366 417,-391 434,-391 434,-366 417,-366"/>
<text text-anchor="start" x="422" y="-374.8" font-family="Times,serif" font-size="14.00">3</text>
<polygon fill="#ffffcc" stroke="none" points="360,-341 360,-366 417,-366 417,-341 360,-341"/>
<polygon fill="none" stroke="black" points="360,-341 360,-366 417,-366 417,-341 360,-341"/>
<text text-anchor="start" x="385" y="-349.8" font-family="Times,serif" font-size="14.00">2</text>
<polygon fill="none" stroke="black" points="417,-341 417,-366 434,-366 434,-341 417,-341"/>
<text text-anchor="start" x="422" y="-349.8" font-family="Times,serif" font-size="14.00">3</text>
<polygon fill="#eeeeee" stroke="none" points="360,-316 360,-341 417,-341 417,-316 360,-316"/>
<polygon fill="none" stroke="black" points="360,-316 360,-341 417,-341 417,-316 360,-316"/>
<text text-anchor="start" x="373" y="-324.8" font-family="Times,serif" font-size="14.00">comb</text>
<polygon fill="none" stroke="black" points="417,-316 417,-341 434,-341 434,-316 417,-316"/>
<text text-anchor="start" x="422" y="-324.8" font-family="Times,serif" font-size="14.00">2</text>
<polygon fill="none" stroke="black" points="360,-291 360,-316 434,-316 434,-291 360,-291"/>
<text text-anchor="start" x="371" y="-299.8" font-family="Arial Black" font-size="14.00"> Edges </text>
<polygon fill="none" stroke="black" points="360,-266 360,-291 417,-291 417,-266 360,-266"/>
<text text-anchor="start" x="365.5" y="-274.8" font-family="Times,serif" font-size="14.00" fill="#0000ff">overlaps</text>
<polygon fill="none" stroke="black" points="417,-266 417,-291 434,-291 434,-266 417,-266"/>
<text text-anchor="start" x="422" y="-274.8" font-family="Times,serif" font-size="14.00">3</text>
<polygon fill="none" stroke="black" points="360,-241 360,-266 417,-266 417,-241 360,-241"/>
<text text-anchor="start" x="374.5" y="-249.8" font-family="Times,serif" font-size="14.00" fill="#000000">input</text>
<polygon fill="none" stroke="black" points="417,-241 417,-266 434,-266 434,-241 417,-241"/>
<text text-anchor="start" x="422" y="-249.8" font-family="Times,serif" font-size="14.00">4</text>
<polygon fill="none" stroke="black" points="360,-216 360,-241 417,-241 417,-216 360,-216"/>
<text text-anchor="start" x="367" y="-224.8" font-family="Times,serif" font-size="14.00" fill="#ff0000">inferred</text>
<polygon fill="none" stroke="black" points="417,-216 417,-241 434,-241 434,-216 417,-216"/>
<text text-anchor="start" x="422" y="-224.8" font-family="Times,serif" font-size="14.00">3</text>
</g>
</g>
</svg>
