<?xml version="1.0" encoding="UTF-8" standalone="no"?>
<!DOCTYPE svg PUBLIC "-//W3C//DTD SVG 1.1//EN"
 "http://www.w3.org/Graphics/SVG/1.1/DTD/svg11.dtd">
<!-- Generated by graphviz version 2.36.0 (20140111.2315)
 -->
<!-- Title: %3 Pages: 1 -->
<svg width="352pt" height="442pt"
 viewBox="0.00 0.00 352.00 442.42" xmlns="http://www.w3.org/2000/svg" xmlns:xlink="http://www.w3.org/1999/xlink">
<g id="graph0" class="graph" transform="scale(1 1) rotate(0) translate(4 438.418)">
<title>%3</title>
<polygon fill="white" stroke="none" points="-4,4 -4,-438.418 348,-438.418 348,4 -4,4"/>
<!-- 1.E -->
<g id="node1" class="node"><title>1.E</title>
<polygon fill="#ccffcc" stroke="black" points="334,-36.418 280,-36.418 280,-0.41803 334,-0.41803 334,-36.418"/>
<text text-anchor="middle" x="307" y="-14.718" font-family="Times,serif" font-size="14.00">1.E</text>
</g>
<!-- 1.A -->
<g id="node2" class="node"><title>1.A</title>
<polygon fill="#ccffcc" stroke="black" points="234,-158.418 180,-158.418 180,-122.418 234,-122.418 234,-158.418"/>
<text text-anchor="middle" x="207" y="-136.718" font-family="Times,serif" font-size="14.00">1.A</text>
</g>
<!-- 1.E&#45;&gt;1.A -->
<g id="edge11" class="edge"><title>1.E&#45;&gt;1.A</title>
<path fill="none" stroke="#000000" d="M289.177,-36.4496C283.014,-43.2261 276.067,-51.069 270,-58.418 255.141,-76.4181 239.283,-97.4276 227.324,-113.674"/>
<polygon fill="#000000" stroke="#000000" points="224.195,-112.024 221.113,-122.16 229.844,-116.158 224.195,-112.024"/>
</g>
<!-- 2.G -->
<g id="node5" class="node"><title>2.G</title>
<polygon fill="#ffffcc" stroke="black" points="144,-86.9622 144,-101.874 128.184,-112.418 105.816,-112.418 90,-101.874 90,-86.9622 105.816,-76.418 128.184,-76.418 144,-86.9622"/>
<text text-anchor="middle" x="117" y="-90.718" font-family="Times,serif" font-size="14.00">2.G</text>
</g>
<!-- 1.E&#45;&gt;2.G -->
<g id="edge6" class="edge"><title>1.E&#45;&gt;2.G</title>
<path fill="none" stroke="#0000ff" stroke-dasharray="1,5" d="M279.859,-28.9855C243.033,-43.8726 176.454,-70.7876 141.259,-85.0156"/>
</g>
<!-- 2.F -->
<g id="node6" class="node"><title>2.F</title>
<polygon fill="#ffffcc" stroke="black" points="144,-32.9622 144,-47.8739 128.184,-58.418 105.816,-58.418 90,-47.8739 90,-32.9622 105.816,-22.418 128.184,-22.418 144,-32.9622"/>
<text text-anchor="middle" x="117" y="-36.718" font-family="Times,serif" font-size="14.00">2.F</text>
</g>
<!-- 1.E&#45;&gt;2.F -->
<g id="edge5" class="edge"><title>1.E&#45;&gt;2.F</title>
<path fill="none" stroke="#0000ff" stroke-dasharray="1,5" d="M279.994,-9.99219C254.213,-2.92319 213.792,4.68112 180,-4.41803 163.655,-8.81941 147.178,-18.7045 135.323,-27.0046"/>
</g>
<!-- 2.A -->
<g id="node4" class="node"><title>2.A</title>
<polygon fill="#ffffcc" stroke="black" points="54,-86.9622 54,-101.874 38.1838,-112.418 15.8162,-112.418 3.55271e-15,-101.874 0,-86.9622 15.8162,-76.418 38.1838,-76.418 54,-86.9622"/>
<text text-anchor="middle" x="27" y="-90.718" font-family="Times,serif" font-size="14.00">2.A</text>
</g>
<!-- 1.A&#45;&gt;2.A -->
<g id="edge13" class="edge"><title>1.A&#45;&gt;2.A</title>
<path fill="none" stroke="#ff0000" d="M179.786,-138.003C156,-135.372 120.146,-130.3 90,-121.418 79.5267,-118.332 68.4806,-113.925 58.66,-109.564"/>
<polygon fill="#ff0000" stroke="#ff0000" points="59.8625,-106.265 49.3145,-105.269 56.9392,-112.625 59.8625,-106.265"/>
</g>
<!-- 1.A&#45;&gt;2.G -->
<g id="edge3" class="edge"><title>1.A&#45;&gt;2.G</title>
<path fill="none" stroke="#0000ff" stroke-dasharray="1,5" d="M179.597,-126.617C166.637,-119.842 151.237,-111.792 139.078,-105.436"/>
</g>
<!-- 1.A&#45;&gt;2.F -->
<g id="edge2" class="edge"><title>1.A&#45;&gt;2.F</title>
<path fill="none" stroke="#0000ff" stroke-dasharray="1,5" d="M191.021,-122.148C178.651,-107.216 160.508,-85.6686 144,-67.418 140.42,-63.4606 136.466,-59.2682 132.745,-55.3974"/>
</g>
<!-- 1.C -->
<g id="node3" class="node"><title>1.C</title>
<polygon fill="#ccffcc" stroke="black" points="334,-103.418 280,-103.418 280,-67.418 334,-67.418 334,-103.418"/>
<text text-anchor="middle" x="307" y="-81.718" font-family="Times,serif" font-size="14.00">1.C</text>
</g>
<!-- 1.C&#45;&gt;1.A -->
<g id="edge7" class="edge"><title>1.C&#45;&gt;1.A</title>
<path fill="none" stroke="#000000" d="M279.995,-100.013C268.698,-106.353 255.293,-113.876 243.13,-120.702"/>
<polygon fill="#000000" stroke="#000000" points="241.134,-117.809 234.126,-125.755 244.56,-123.913 241.134,-117.809"/>
</g>
<!-- 1.C&#45;&gt;2.G -->
<g id="edge4" class="edge"><title>1.C&#45;&gt;2.G</title>
<path fill="none" stroke="#0000ff" stroke-dasharray="1,5" d="M279.859,-86.6694C244.042,-88.3841 180.08,-91.4461 144.221,-93.1628"/>
</g>
<!-- 1.C&#45;&gt;2.F -->
<g id="edge1" class="edge"><title>1.C&#45;&gt;2.F</title>
<path fill="none" stroke="#0000ff" stroke-dasharray="1,5" d="M279.859,-79.161C244.042,-70.5877 180.08,-55.2776 144.221,-46.6943"/>
</g>
<!-- 2.G&#45;&gt;2.A -->
<g id="edge10" class="edge"><title>2.G&#45;&gt;2.A</title>
<path fill="none" stroke="#000000" d="M89.5971,-94.418C81.6068,-94.418 72.6894,-94.418 64.1759,-94.418"/>
<polygon fill="#000000" stroke="#000000" points="64.081,-90.9181 54.081,-94.418 64.081,-97.9181 64.081,-90.9181"/>
</g>
<!-- 2.F&#45;&gt;2.A -->
<g id="edge9" class="edge"><title>2.F&#45;&gt;2.A</title>
<path fill="none" stroke="#000000" d="M96.4699,-52.4024C84.6212,-59.6732 69.3011,-69.0742 56.1576,-77.1395"/>
<polygon fill="#000000" stroke="#000000" points="54.1681,-74.2538 47.4755,-82.4672 57.8293,-80.2201 54.1681,-74.2538"/>
</g>
<!-- 1.D\n2.D -->
<g id="node7" class="node"><title>1.D\n2.D</title>
<polygon fill="#eeeeee" stroke="black" points="326,-215.418 288,-215.418 288,-177.418 326,-177.418 326,-215.418"/>
<polyline fill="none" stroke="black" points="300,-215.418 288,-203.418 "/>
<polyline fill="none" stroke="black" points="288,-189.418 300,-177.418 "/>
<polyline fill="none" stroke="black" points="314,-177.418 326,-189.418 "/>
<polyline fill="none" stroke="black" points="326,-203.418 314,-215.418 "/>
<text text-anchor="middle" x="307" y="-200.218" font-family="Times,serif" font-size="14.00">1.D</text>
<text text-anchor="middle" x="307" y="-185.218" font-family="Times,serif" font-size="14.00">2.D</text>
</g>
<!-- 1.D\n2.D&#45;&gt;1.A -->
<g id="edge12" class="edge"><title>1.D\n2.D&#45;&gt;1.A</title>
<path fill="none" stroke="#000000" d="M287.567,-185.885C275.078,-178.748 258.178,-169.091 243.165,-160.512"/>
<polygon fill="#000000" stroke="#000000" points="244.536,-157.265 234.117,-155.342 241.063,-163.343 244.536,-157.265"/>
</g>
<!-- 1.B\n2.B -->
<g id="node8" class="node"><title>1.B\n2.B</title>
<polygon fill="#eeeeee" stroke="black" points="326,-159.418 288,-159.418 288,-121.418 326,-121.418 326,-159.418"/>
<polyline fill="none" stroke="black" points="300,-159.418 288,-147.418 "/>
<polyline fill="none" stroke="black" points="288,-133.418 300,-121.418 "/>
<polyline fill="none" stroke="black" points="314,-121.418 326,-133.418 "/>
<polyline fill="none" stroke="black" points="326,-147.418 314,-159.418 "/>
<text text-anchor="middle" x="307" y="-144.218" font-family="Times,serif" font-size="14.00">1.B</text>
<text text-anchor="middle" x="307" y="-129.218" font-family="Times,serif" font-size="14.00">2.B</text>
</g>
<!-- 1.B\n2.B&#45;&gt;1.A -->
<g id="edge8" class="edge"><title>1.B\n2.B&#45;&gt;1.A</title>
<path fill="none" stroke="#000000" d="M287.567,-140.418C275.431,-140.418 259.131,-140.418 244.444,-140.418"/>
<polygon fill="#000000" stroke="#000000" points="244.117,-136.918 234.117,-140.418 244.117,-143.918 244.117,-136.918"/>
</g>
<!-- Legend -->
<g id="node9" class="node"><title>Legend</title>
<polygon fill="white" stroke="black" points="344,-434.918 270,-434.918 270,-233.918 344,-233.918 344,-434.918"/>
<polygon fill="none" stroke="black" points="270,-408.418 270,-434.418 344,-434.418 344,-408.418 270,-408.418"/>
<text text-anchor="start" x="282.5" y="-417.718" font-family="Arial Black" font-size="14.00"> Nodes</text>
<polygon fill="#ccffcc" stroke="none" points="270,-383.418 270,-408.418 327,-408.418 327,-383.418 270,-383.418"/>
<polygon fill="none" stroke="black" points="270,-383.418 270,-408.418 327,-408.418 327,-383.418 270,-383.418"/>
<text text-anchor="start" x="295" y="-392.218" font-family="Times,serif" font-size="14.00">1</text>
<polygon fill="none" stroke="black" points="327,-383.418 327,-408.418 344,-408.418 344,-383.418 327,-383.418"/>
<text text-anchor="start" x="332" y="-392.218" font-family="Times,serif" font-size="14.00">3</text>
<polygon fill="#ffffcc" stroke="none" points="270,-358.418 270,-383.418 327,-383.418 327,-358.418 270,-358.418"/>
<polygon fill="none" stroke="black" points="270,-358.418 270,-383.418 327,-383.418 327,-358.418 270,-358.418"/>
<text text-anchor="start" x="295" y="-367.218" font-family="Times,serif" font-size="14.00">2</text>
<polygon fill="none" stroke="black" points="327,-358.418 327,-383.418 344,-383.418 344,-358.418 327,-358.418"/>
<text text-anchor="start" x="332" y="-367.218" font-family="Times,serif" font-size="14.00">3</text>
<polygon fill="#eeeeee" stroke="none" points="270,-333.418 270,-358.418 327,-358.418 327,-333.418 270,-333.418"/>
<polygon fill="none" stroke="black" points="270,-333.418 270,-358.418 327,-358.418 327,-333.418 270,-333.418"/>
<text text-anchor="start" x="283" y="-342.218" font-family="Times,serif" font-size="14.00">comb</text>
<polygon fill="none" stroke="black" points="327,-333.418 327,-358.418 344,-358.418 344,-333.418 327,-333.418"/>
<text text-anchor="start" x="332" y="-342.218" font-family="Times,serif" font-size="14.00">2</text>
<polygon fill="none" stroke="black" points="270,-308.418 270,-333.418 344,-333.418 344,-308.418 270,-308.418"/>
<text text-anchor="start" x="281" y="-317.218" font-family="Arial Black" font-size="14.00"> Edges </text>
<polygon fill="none" stroke="black" points="270,-283.418 270,-308.418 327,-308.418 327,-283.418 270,-283.418"/>
<text text-anchor="start" x="275.5" y="-292.218" font-family="Times,serif" font-size="14.00" fill="#0000ff">overlaps</text>
<polygon fill="none" stroke="black" points="327,-283.418 327,-308.418 344,-308.418 344,-283.418 327,-283.418"/>
<text text-anchor="start" x="332" y="-292.218" font-family="Times,serif" font-size="14.00">6</text>
<polygon fill="none" stroke="black" points="270,-258.418 270,-283.418 327,-283.418 327,-258.418 270,-258.418"/>
<text text-anchor="start" x="284.5" y="-267.218" font-family="Times,serif" font-size="14.00" fill="#000000">input</text>
<polygon fill="none" stroke="black" points="327,-258.418 327,-283.418 344,-283.418 344,-258.418 327,-258.418"/>
<text text-anchor="start" x="332" y="-267.218" font-family="Times,serif" font-size="14.00">6</text>
<polygon fill="none" stroke="black" points="270,-233.418 270,-258.418 327,-258.418 327,-233.418 270,-233.418"/>
<text text-anchor="start" x="277" y="-242.218" font-family="Times,serif" font-size="14.00" fill="#ff0000">inferred</text>
<polygon fill="none" stroke="black" points="327,-233.418 327,-258.418 344,-258.418 344,-233.418 327,-233.418"/>
<text text-anchor="start" x="332" y="-242.218" font-family="Times,serif" font-size="14.00">1</text>
</g>
</g>
</svg>
