<?xml version="1.0" encoding="UTF-8" standalone="no"?>
<!DOCTYPE svg PUBLIC "-//W3C//DTD SVG 1.1//EN"
 "http://www.w3.org/Graphics/SVG/1.1/DTD/svg11.dtd">
<!-- Generated by graphviz version 2.36.0 (20140111.2315)
 -->
<!-- Title: %3 Pages: 1 -->
<svg width="442pt" height="467pt"
 viewBox="0.00 0.00 442.00 467.00" xmlns="http://www.w3.org/2000/svg" xmlns:xlink="http://www.w3.org/1999/xlink">
<g id="graph0" class="graph" transform="scale(1 1) rotate(0) translate(4 463)">
<title>%3</title>
<polygon fill="white" stroke="none" points="-4,4 -4,-463 438,-463 438,4 -4,4"/>
<!-- 1.C -->
<g id="node1" class="node"><title>1.C</title>
<polygon fill="#ccffcc" stroke="black" points="424,-36 370,-36 370,-0 424,-0 424,-36"/>
<text text-anchor="middle" x="397" y="-14.3" font-family="Times,serif" font-size="14.00">1.C</text>
</g>
<!-- 1.A -->
<g id="node3" class="node"><title>1.A</title>
<polygon fill="#ccffcc" stroke="black" points="234,-137 180,-137 180,-101 234,-101 234,-137"/>
<text text-anchor="middle" x="207" y="-115.3" font-family="Times,serif" font-size="14.00">1.A</text>
</g>
<!-- 1.C&#45;&gt;1.A -->
<g id="edge6" class="edge"><title>1.C&#45;&gt;1.A</title>
<path fill="none" stroke="#000000" d="M369.97,-16.3942C343.077,-15.9384 300.802,-18.6809 270,-37 248.348,-49.8772 231.724,-73.4833 221.165,-92.0721"/>
<polygon fill="#000000" stroke="#000000" points="218.022,-90.528 216.339,-100.988 224.177,-93.8606 218.022,-90.528"/>
</g>
<!-- 2.G -->
<g id="node5" class="node"><title>2.G</title>
<polygon fill="#ffffcc" stroke="black" points="324,-56.5442 324,-71.4558 308.184,-82 285.816,-82 270,-71.4558 270,-56.5442 285.816,-46 308.184,-46 324,-56.5442"/>
<text text-anchor="middle" x="297" y="-60.3" font-family="Times,serif" font-size="14.00">2.G</text>
</g>
<!-- 1.C&#45;&gt;2.G -->
<g id="edge3" class="edge"><title>1.C&#45;&gt;2.G</title>
<path fill="none" stroke="#0000ff" stroke-dasharray="1,5" d="M369.995,-30.2064C354.458,-37.4994 334.932,-46.6648 320.135,-53.6099"/>
</g>
<!-- 2.F -->
<g id="node6" class="node"><title>2.F</title>
<polygon fill="#ffffcc" stroke="black" points="144,-88.5442 144,-103.456 128.184,-114 105.816,-114 90,-103.456 90,-88.5442 105.816,-78 128.184,-78 144,-88.5442"/>
<text text-anchor="middle" x="117" y="-92.3" font-family="Times,serif" font-size="14.00">2.F</text>
</g>
<!-- 1.C&#45;&gt;2.F -->
<g id="edge1" class="edge"><title>1.C&#45;&gt;2.F</title>
<path fill="none" stroke="#0000ff" stroke-dasharray="1,5" d="M369.984,-13.7622C344.197,-10.4481 303.77,-7.65573 270,-16 217.6,-28.9475 163.313,-63.5779 136.002,-82.7578"/>
</g>
<!-- 1.E -->
<g id="node2" class="node"><title>1.E</title>
<polygon fill="#ccffcc" stroke="black" points="424,-240 370,-240 370,-204 424,-204 424,-240"/>
<text text-anchor="middle" x="397" y="-218.3" font-family="Times,serif" font-size="14.00">1.E</text>
</g>
<!-- 1.E&#45;&gt;1.A -->
<g id="edge9" class="edge"><title>1.E&#45;&gt;1.A</title>
<path fill="none" stroke="#000000" d="M369.927,-223.678C342.999,-224.192 300.696,-221.497 270,-203 247.853,-189.655 231.136,-165.098 220.675,-145.97"/>
<polygon fill="#000000" stroke="#000000" points="223.771,-144.338 216.045,-137.088 217.564,-147.574 223.771,-144.338"/>
</g>
<!-- 1.E&#45;&gt;2.G -->
<g id="edge5" class="edge"><title>1.E&#45;&gt;2.G</title>
<path fill="none" stroke="#0000ff" stroke-dasharray="1,5" d="M387.851,-203.729C375.767,-177.552 351.538,-128.411 324,-91 320.914,-86.8074 317.217,-82.5984 313.594,-78.7928"/>
</g>
<!-- 1.E&#45;&gt;2.F -->
<g id="edge4" class="edge"><title>1.E&#45;&gt;2.F</title>
<path fill="none" stroke="#0000ff" stroke-dasharray="1,5" d="M369.998,-228.04C343.867,-232.878 302.865,-237.066 270,-225 208.268,-202.335 154.441,-142.255 130.79,-112.782"/>
</g>
<!-- 2.A -->
<g id="node4" class="node"><title>2.A</title>
<polygon fill="#ffffcc" stroke="black" points="54,-111.544 54,-126.456 38.1838,-137 15.8162,-137 3.55271e-15,-126.456 0,-111.544 15.8162,-101 38.1838,-101 54,-111.544"/>
<text text-anchor="middle" x="27" y="-115.3" font-family="Times,serif" font-size="14.00">2.A</text>
</g>
<!-- 1.A&#45;&gt;2.A -->
<g id="edge11" class="edge"><title>1.A&#45;&gt;2.A</title>
<path fill="none" stroke="#ff0000" d="M179.772,-121.067C168.735,-121.84 155.751,-122.621 144,-123 120.012,-123.773 113.988,-123.773 90,-123 81.6458,-122.731 72.6683,-122.258 64.2103,-121.73"/>
<polygon fill="#ff0000" stroke="#ff0000" points="64.4376,-118.237 54.2278,-121.067 63.9742,-125.222 64.4376,-118.237"/>
</g>
<!-- 1.A&#45;&gt;2.F -->
<g id="edge2" class="edge"><title>1.A&#45;&gt;2.F</title>
<path fill="none" stroke="#0000ff" stroke-dasharray="1,5" d="M179.597,-112.099C168.358,-109.162 155.285,-105.745 144.081,-102.817"/>
</g>
<!-- 2.G&#45;&gt;1.A -->
<g id="edge12" class="edge"><title>2.G&#45;&gt;1.A</title>
<path fill="none" stroke="#ff0000" d="M276.47,-76.2063C266.544,-82.4102 254.181,-90.1367 242.703,-97.3104"/>
<polygon fill="#ff0000" stroke="#ff0000" points="240.778,-94.386 234.153,-102.654 244.488,-100.322 240.778,-94.386"/>
</g>
<!-- 2.F&#45;&gt;2.A -->
<g id="edge8" class="edge"><title>2.F&#45;&gt;2.A</title>
<path fill="none" stroke="#000000" d="M89.5971,-102.901C81.519,-105.012 72.4933,-107.371 63.8954,-109.618"/>
<polygon fill="#000000" stroke="#000000" points="62.8709,-106.268 54.081,-112.183 64.6411,-113.041 62.8709,-106.268"/>
</g>
<!-- 1.D\n2.D -->
<g id="node7" class="node"><title>1.D\n2.D</title>
<polygon fill="#eeeeee" stroke="black" points="316,-194 278,-194 278,-156 316,-156 316,-194"/>
<polyline fill="none" stroke="black" points="290,-194 278,-182 "/>
<polyline fill="none" stroke="black" points="278,-168 290,-156 "/>
<polyline fill="none" stroke="black" points="304,-156 316,-168 "/>
<polyline fill="none" stroke="black" points="316,-182 304,-194 "/>
<text text-anchor="middle" x="297" y="-178.8" font-family="Times,serif" font-size="14.00">1.D</text>
<text text-anchor="middle" x="297" y="-163.8" font-family="Times,serif" font-size="14.00">2.D</text>
</g>
<!-- 1.D\n2.D&#45;&gt;1.A -->
<g id="edge10" class="edge"><title>1.D\n2.D&#45;&gt;1.A</title>
<path fill="none" stroke="#000000" d="M277.766,-163.397C267.639,-156.952 254.699,-148.718 242.721,-141.095"/>
<polygon fill="#000000" stroke="#000000" points="244.538,-138.103 234.222,-135.687 240.78,-144.009 244.538,-138.103"/>
</g>
<!-- 1.B\n2.B -->
<g id="node8" class="node"><title>1.B\n2.B</title>
<polygon fill="#eeeeee" stroke="black" points="316,-138 278,-138 278,-100 316,-100 316,-138"/>
<polyline fill="none" stroke="black" points="290,-138 278,-126 "/>
<polyline fill="none" stroke="black" points="278,-112 290,-100 "/>
<polyline fill="none" stroke="black" points="304,-100 316,-112 "/>
<polyline fill="none" stroke="black" points="316,-126 304,-138 "/>
<text text-anchor="middle" x="297" y="-122.8" font-family="Times,serif" font-size="14.00">1.B</text>
<text text-anchor="middle" x="297" y="-107.8" font-family="Times,serif" font-size="14.00">2.B</text>
</g>
<!-- 1.B\n2.B&#45;&gt;1.A -->
<g id="edge7" class="edge"><title>1.B\n2.B&#45;&gt;1.A</title>
<path fill="none" stroke="#000000" d="M277.766,-119C268.13,-119 255.949,-119 244.471,-119"/>
<polygon fill="#000000" stroke="#000000" points="244.222,-115.5 234.222,-119 244.222,-122.5 244.222,-115.5"/>
</g>
<!-- Legend -->
<g id="node9" class="node"><title>Legend</title>
<polygon fill="white" stroke="black" points="434,-459.5 360,-459.5 360,-258.5 434,-258.5 434,-459.5"/>
<polygon fill="none" stroke="black" points="360,-433 360,-459 434,-459 434,-433 360,-433"/>
<text text-anchor="start" x="372.5" y="-442.3" font-family="Arial Black" font-size="14.00"> Nodes</text>
<polygon fill="#ccffcc" stroke="none" points="360,-408 360,-433 417,-433 417,-408 360,-408"/>
<polygon fill="none" stroke="black" points="360,-408 360,-433 417,-433 417,-408 360,-408"/>
<text text-anchor="start" x="385" y="-416.8" font-family="Times,serif" font-size="14.00">1</text>
<polygon fill="none" stroke="black" points="417,-408 417,-433 434,-433 434,-408 417,-408"/>
<text text-anchor="start" x="422" y="-416.8" font-family="Times,serif" font-size="14.00">3</text>
<polygon fill="#ffffcc" stroke="none" points="360,-383 360,-408 417,-408 417,-383 360,-383"/>
<polygon fill="none" stroke="black" points="360,-383 360,-408 417,-408 417,-383 360,-383"/>
<text text-anchor="start" x="385" y="-391.8" font-family="Times,serif" font-size="14.00">2</text>
<polygon fill="none" stroke="black" points="417,-383 417,-408 434,-408 434,-383 417,-383"/>
<text text-anchor="start" x="422" y="-391.8" font-family="Times,serif" font-size="14.00">3</text>
<polygon fill="#eeeeee" stroke="none" points="360,-358 360,-383 417,-383 417,-358 360,-358"/>
<polygon fill="none" stroke="black" points="360,-358 360,-383 417,-383 417,-358 360,-358"/>
<text text-anchor="start" x="373" y="-366.8" font-family="Times,serif" font-size="14.00">comb</text>
<polygon fill="none" stroke="black" points="417,-358 417,-383 434,-383 434,-358 417,-358"/>
<text text-anchor="start" x="422" y="-366.8" font-family="Times,serif" font-size="14.00">2</text>
<polygon fill="none" stroke="black" points="360,-333 360,-358 434,-358 434,-333 360,-333"/>
<text text-anchor="start" x="371" y="-341.8" font-family="Arial Black" font-size="14.00"> Edges </text>
<polygon fill="none" stroke="black" points="360,-308 360,-333 417,-333 417,-308 360,-308"/>
<text text-anchor="start" x="365.5" y="-316.8" font-family="Times,serif" font-size="14.00" fill="#0000ff">overlaps</text>
<polygon fill="none" stroke="black" points="417,-308 417,-333 434,-333 434,-308 417,-308"/>
<text text-anchor="start" x="422" y="-316.8" font-family="Times,serif" font-size="14.00">5</text>
<polygon fill="none" stroke="black" points="360,-283 360,-308 417,-308 417,-283 360,-283"/>
<text text-anchor="start" x="374.5" y="-291.8" font-family="Times,serif" font-size="14.00" fill="#000000">input</text>
<polygon fill="none" stroke="black" points="417,-283 417,-308 434,-308 434,-283 417,-283"/>
<text text-anchor="start" x="422" y="-291.8" font-family="Times,serif" font-size="14.00">5</text>
<polygon fill="none" stroke="black" points="360,-258 360,-283 417,-283 417,-258 360,-258"/>
<text text-anchor="start" x="367" y="-266.8" font-family="Times,serif" font-size="14.00" fill="#ff0000">inferred</text>
<polygon fill="none" stroke="black" points="417,-258 417,-283 434,-283 434,-258 417,-258"/>
<text text-anchor="start" x="422" y="-266.8" font-family="Times,serif" font-size="14.00">2</text>
</g>
</g>
</svg>
