<?xml version="1.0" encoding="UTF-8" standalone="no"?>
<!DOCTYPE svg PUBLIC "-//W3C//DTD SVG 1.1//EN"
 "http://www.w3.org/Graphics/SVG/1.1/DTD/svg11.dtd">
<!-- Generated by graphviz version 2.36.0 (20140111.2315)
 -->
<!-- Title: %3 Pages: 1 -->
<svg
 viewBox="0.00 0.00 258.00 189.00" xmlns="http://www.w3.org/2000/svg" xmlns:xlink="http://www.w3.org/1999/xlink">
<g id="graph0" class="graph" transform="scale(1 1) rotate(0) translate(4 185)">
<title>%3</title>
<polygon fill="white" stroke="none" points="-4,4 -4,-185 254,-185 254,4 -4,4"/>
<!-- 2.D -->
<g id="node1" class="node"><title>2.D</title>
<polygon fill="#ccffcc" stroke="black" points="250,-179 196,-179 196,-143 250,-143 250,-179"/>
<text text-anchor="middle" x="223" y="-157.3" font-family="Times,serif" font-size="14.00">2.D</text>
</g>
<!-- 1.A -->
<g id="node3" class="node"><title>1.A</title>
<polygon fill="#ffffcc" stroke="black" points="54,-89.5442 54,-104.456 38.1838,-115 15.8162,-115 3.55271e-15,-104.456 0,-89.5442 15.8162,-79 38.1838,-79 54,-89.5442"/>
<text text-anchor="middle" x="27" y="-93.3" font-family="Times,serif" font-size="14.00">1.A</text>
</g>
<!-- 2.D&#45;&gt;1.A -->
<g id="edge3" class="edge"><title>2.D&#45;&gt;1.A</title>
<path fill="none" stroke="#415e3a" d="M195.631,-164.927C169.67,-167.622 129.454,-168.601 98,-155 79.5258,-147.011 62.0861,-132.588 49.2349,-120.124"/>
<polygon fill="#415e3a" stroke="#415e3a" points="51.3867,-117.323 41.858,-112.691 46.4183,-122.254 51.3867,-117.323"/>
<text text-anchor="middle" x="125" y="-169.8" font-family="Times,serif" font-size="14.00">1</text>
</g>
<!-- 1.C -->
<g id="node4" class="node"><title>1.C</title>
<polygon fill="#ffffcc" stroke="black" points="152,-120.544 152,-135.456 136.184,-146 113.816,-146 98,-135.456 98,-120.544 113.816,-110 136.184,-110 152,-120.544"/>
<text text-anchor="middle" x="125" y="-124.3" font-family="Times,serif" font-size="14.00">1.C</text>
</g>
<!-- 2.D&#45;&gt;1.C -->
<g id="edge4" class="edge"><title>2.D&#45;&gt;1.C</title>
<path fill="none" stroke="#415e3a" d="M195.768,-151.983C184.751,-148.196 171.794,-143.742 160.056,-139.707"/>
<polygon fill="#415e3a" stroke="#415e3a" points="161.146,-136.38 150.551,-136.439 158.87,-143 161.146,-136.38"/>
<text text-anchor="middle" x="174" y="-148.8" font-family="Times,serif" font-size="14.00">1</text>
</g>
<!-- 1.B -->
<g id="node2" class="node"><title>1.B</title>
<polygon fill="#ffffcc" stroke="black" points="152,-66.5442 152,-81.4558 136.184,-92 113.816,-92 98,-81.4558 98,-66.5442 113.816,-56 136.184,-56 152,-66.5442"/>
<text text-anchor="middle" x="125" y="-70.3" font-family="Times,serif" font-size="14.00">1.B</text>
</g>
<!-- 1.B&#45;&gt;1.A -->
<g id="edge1" class="edge"><title>1.B&#45;&gt;1.A</title>
<path fill="none" stroke="#761212" stroke-width="2" d="M97.9348,-77.7943C89.5992,-79.1986 80.366,-80.9552 72,-83 68.9825,-83.7375 65.8704,-84.5725 62.7615,-85.4586"/>
<polygon fill="#761212" stroke="#761212" stroke-width="2" points="61.5297,-82.1742 52.9615,-88.4061 63.5459,-88.8775 61.5297,-82.1742"/>
<text text-anchor="middle" x="76" y="-86.8" font-family="Times,serif" font-size="14.00">2</text>
</g>
<!-- 1.C&#45;&gt;1.A -->
<g id="edge2" class="edge"><title>1.C&#45;&gt;1.A</title>
<path fill="none" stroke="#415e3a" d="M98.7771,-119.855C87.7533,-116.295 74.6429,-112.062 62.7193,-108.211"/>
<polygon fill="#415e3a" stroke="#415e3a" points="63.6461,-104.833 53.0544,-105.09 61.495,-111.494 63.6461,-104.833"/>
<text text-anchor="middle" x="76" y="-117.8" font-family="Times,serif" font-size="14.00">1</text>
</g>
<!-- 2.D\n1.C -->
<g id="node5" class="node"><title>2.D\n1.C</title>
<polygon fill="#eeeeee" stroke="black" points="144,-38 106,-38 106,-0 144,-0 144,-38"/>
<polyline fill="none" stroke="black" points="118,-38 106,-26 "/>
<polyline fill="none" stroke="black" points="106,-12 118,-0 "/>
<polyline fill="none" stroke="black" points="132,-0 144,-12 "/>
<polyline fill="none" stroke="black" points="144,-26 132,-38 "/>
<text text-anchor="middle" x="125" y="-22.8" font-family="Times,serif" font-size="14.00">2.D</text>
<text text-anchor="middle" x="125" y="-7.8" font-family="Times,serif" font-size="14.00">1.C</text>
</g>
<!-- 2.D\n1.C&#45;&gt;1.A -->
<g id="edge5" class="edge"><title>2.D\n1.C&#45;&gt;1.A</title>
<path fill="none" stroke="#415e3a" d="M105.943,-33.6712C91.05,-45.7719 69.7536,-63.0752 53.1841,-76.5379"/>
<polygon fill="#415e3a" stroke="#415e3a" points="50.5632,-74.1577 45.0091,-83.1801 54.9774,-79.5905 50.5632,-74.1577"/>
<text text-anchor="middle" x="76" y="-64.8" font-family="Times,serif" font-size="14.00">1</text>
</g>
</g>
</svg>
