<?xml version="1.0" encoding="UTF-8" standalone="no"?>
<!DOCTYPE svg PUBLIC "-//W3C//DTD SVG 1.1//EN"
 "http://www.w3.org/Graphics/SVG/1.1/DTD/svg11.dtd">
<!-- Generated by graphviz version 2.36.0 (20140111.2315)
 -->
<!-- Title: %3 Pages: 1 -->
<svg width="227pt" height="220pt"
 viewBox="0.00 0.00 226.80 220.00" xmlns="http://www.w3.org/2000/svg" xmlns:xlink="http://www.w3.org/1999/xlink">
<g id="graph0" class="graph" transform="scale(1 1) rotate(0) translate(4 216)">
<title>%3</title>
<polygon fill="white" stroke="none" points="-4,4 -4,-216 222.803,-216 222.803,4 -4,4"/>
<!-- AllOtherGreen -->
<g id="node1" class="node"><title>AllOtherGreen</title>
<path fill="none" stroke="#00ff00" stroke-dasharray="5,2" d="M109.303,-36C109.303,-36 36.3032,-36 36.3032,-36 30.3032,-36 24.3032,-30 24.3032,-24 24.3032,-24 24.3032,-12 24.3032,-12 24.3032,-6 30.3032,-0 36.3032,-0 36.3032,-0 109.303,-0 109.303,-0 115.303,-0 121.303,-6 121.303,-12 121.303,-12 121.303,-24 121.303,-24 121.303,-30 115.303,-36 109.303,-36"/>
<text text-anchor="middle" x="72.8032" y="-14.3" font-family="Times,serif" font-size="14.00">AllOtherGreen</text>
</g>
<!-- 2, 3 -->
<g id="node2" class="node"><title>2, 3</title>
<path fill="#00ff00" stroke="#00ff00" d="M62.8032,-124C62.8032,-124 32.8032,-124 32.8032,-124 26.8032,-124 20.8032,-118 20.8032,-112 20.8032,-112 20.8032,-100 20.8032,-100 20.8032,-94 26.8032,-88 32.8032,-88 32.8032,-88 62.8032,-88 62.8032,-88 68.8032,-88 74.8032,-94 74.8032,-100 74.8032,-100 74.8032,-112 74.8032,-112 74.8032,-118 68.8032,-124 62.8032,-124"/>
<text text-anchor="middle" x="47.8032" y="-102.3" font-family="Times,serif" font-size="14.00">2, 3</text>
</g>
<!-- 2, 3&#45;&gt;AllOtherGreen -->
<g id="edge1" class="edge"><title>2, 3&#45;&gt;AllOtherGreen</title>
<path fill="none" stroke="green" stroke-dasharray="5,2" d="M52.8623,-87.5966C56.3414,-75.6285 61.0296,-59.5011 64.9861,-45.8907"/>
<polygon fill="green" stroke="green" points="68.4063,-46.6635 67.8369,-36.084 61.6846,-44.7095 68.4063,-46.6635"/>
<text text-anchor="middle" x="66.3032" y="-58.3" font-family="Times,serif" font-size="14.00">2</text>
</g>
<!-- 1, 3 -->
<g id="node3" class="node"><title>1, 3</title>
<path fill="#00ff00" stroke="#00ff00" d="M134.803,-124C134.803,-124 104.803,-124 104.803,-124 98.8032,-124 92.8032,-118 92.8032,-112 92.8032,-112 92.8032,-100 92.8032,-100 92.8032,-94 98.8032,-88 104.803,-88 104.803,-88 134.803,-88 134.803,-88 140.803,-88 146.803,-94 146.803,-100 146.803,-100 146.803,-112 146.803,-112 146.803,-118 140.803,-124 134.803,-124"/>
<text text-anchor="middle" x="119.803" y="-102.3" font-family="Times,serif" font-size="14.00">1, 3</text>
</g>
<!-- 1, 3&#45;&gt;AllOtherGreen -->
<g id="edge2" class="edge"><title>1, 3&#45;&gt;AllOtherGreen</title>
<path fill="none" stroke="green" stroke-dasharray="5,2" d="M110.292,-87.5966C103.623,-75.3939 94.591,-58.867 87.0634,-45.093"/>
<polygon fill="green" stroke="green" points="90.0068,-43.1806 82.1398,-36.084 83.8643,-46.5376 90.0068,-43.1806"/>
<text text-anchor="middle" x="103.303" y="-58.3" font-family="Times,serif" font-size="14.00">2</text>
</g>
<!-- 1, 2 -->
<g id="node4" class="node"><title>1, 2</title>
<path fill="#00ff00" stroke="#00ff00" d="M206.803,-124C206.803,-124 176.803,-124 176.803,-124 170.803,-124 164.803,-118 164.803,-112 164.803,-112 164.803,-100 164.803,-100 164.803,-94 170.803,-88 176.803,-88 176.803,-88 206.803,-88 206.803,-88 212.803,-88 218.803,-94 218.803,-100 218.803,-100 218.803,-112 218.803,-112 218.803,-118 212.803,-124 206.803,-124"/>
<text text-anchor="middle" x="191.803" y="-102.3" font-family="Times,serif" font-size="14.00">1, 2</text>
</g>
<!-- 1, 2&#45;&gt;AllOtherGreen -->
<g id="edge3" class="edge"><title>1, 2&#45;&gt;AllOtherGreen</title>
<path fill="none" stroke="green" stroke-dasharray="5,2" d="M168.008,-87.8033C149.847,-74.6789 124.645,-56.4652 104.732,-42.0744"/>
<polygon fill="green" stroke="green" points="106.713,-39.1876 96.5574,-36.1669 102.612,-44.8611 106.713,-39.1876"/>
<text text-anchor="middle" x="146.303" y="-58.3" font-family="Times,serif" font-size="14.00">2</text>
</g>
<!-- 2, 3, 1 -->
<g id="node5" class="node"><title>2, 3, 1</title>
<polygon fill="#ff0000" stroke="#ff0000" points="119.175,-186.544 119.175,-201.456 97.869,-212 67.7375,-212 46.4313,-201.456 46.4313,-186.544 67.7375,-176 97.869,-176 119.175,-186.544"/>
<text text-anchor="middle" x="82.8032" y="-190.3" font-family="Times,serif" font-size="14.00">2, 3, 1</text>
</g>
<!-- 2, 3, 1&#45;&gt;AllOtherGreen -->
<g id="edge4" class="edge"><title>2, 3, 1&#45;&gt;AllOtherGreen</title>
<path fill="none" stroke="blue" d="M59.4883,-180.025C40.8071,-168.166 15.9425,-148.726 4.80321,-124 -1.76874,-109.412 -1.26573,-102.804 4.80321,-88 13.5432,-66.6802 32.4033,-48.4182 48.0488,-36.047"/>
<text text-anchor="middle" x="8.30321" y="-102.3" font-family="Times,serif" font-size="14.00">3</text>
</g>
<!-- 2, 3, 1&#45;&gt;2, 3 -->
<g id="edge5" class="edge"><title>2, 3, 1&#45;&gt;2, 3</title>
<path fill="none" stroke="blue" d="M75.7204,-175.597C69.6081,-160.578 60.8301,-139.009 54.756,-124.084"/>
<text text-anchor="middle" x="72.3032" y="-146.3" font-family="Times,serif" font-size="14.00">1</text>
</g>
<!-- 2, 3, 1&#45;&gt;1, 3 -->
<g id="edge6" class="edge"><title>2, 3, 1&#45;&gt;1, 3</title>
<path fill="none" stroke="blue" d="M90.2907,-175.597C96.7523,-160.578 106.032,-139.009 112.453,-124.084"/>
<text text-anchor="middle" x="107.303" y="-146.3" font-family="Times,serif" font-size="14.00">1</text>
</g>
<!-- 2, 3, 1&#45;&gt;1, 2 -->
<g id="edge7" class="edge"><title>2, 3, 1&#45;&gt;1, 2</title>
<path fill="none" stroke="blue" d="M102.039,-177.823C121.108,-162.778 150.269,-139.77 170.142,-124.09"/>
<text text-anchor="middle" x="150.303" y="-146.3" font-family="Times,serif" font-size="14.00">1</text>
</g>
</g>
</svg>
