<?xml version="1.0" encoding="UTF-8" standalone="no"?>
<!DOCTYPE svg PUBLIC "-//W3C//DTD SVG 1.1//EN"
 "http://www.w3.org/Graphics/SVG/1.1/DTD/svg11.dtd">
<!-- Generated by graphviz version 2.36.0 (20140111.2315)
 -->
<!-- Title: %3 Pages: 1 -->
<svg width="206pt" height="260pt"
 viewBox="0.00 0.00 206.00 260.00" xmlns="http://www.w3.org/2000/svg" xmlns:xlink="http://www.w3.org/1999/xlink">
<g id="graph0" class="graph" transform="scale(1 1) rotate(0) translate(4 256)">
<title>%3</title>
<polygon fill="white" stroke="none" points="-4,4 -4,-256 202,-256 202,4 -4,4"/>
<!-- 1 -->
<g id="node1" class="node"><title>1</title>
<path fill="#00ff00" stroke="#00ff00" d="M42,-180C42,-180 12,-180 12,-180 6,-180 0,-174 0,-168 0,-168 0,-156 0,-156 0,-150 6,-144 12,-144 12,-144 42,-144 42,-144 48,-144 54,-150 54,-156 54,-156 54,-168 54,-168 54,-174 48,-180 42,-180"/>
<text text-anchor="middle" x="27" y="-158.3" font-family="Times,serif" font-size="14.00">2, 3</text>
</g>
<!-- 3 -->
<g id="node3" class="node"><title>3</title>
<polygon fill="none" stroke="#00ff00" stroke-dasharray="5,2" points="54,-108 0,-108 0,-72 54,-72 54,-108"/>
<text text-anchor="middle" x="27" y="-86.3" font-family="Times,serif" font-size="14.00">3</text>
</g>
<!-- 1&#45;&gt;3 -->
<g id="edge3" class="edge"><title>1&#45;&gt;3</title>
<path fill="none" stroke="#00ff00" stroke-dasharray="5,2" d="M27,-143.697C27,-135.983 27,-126.712 27,-118.112"/>
<polygon fill="#00ff00" stroke="#00ff00" points="30.5001,-118.104 27,-108.104 23.5001,-118.104 30.5001,-118.104"/>
</g>
<!-- 5 -->
<g id="node5" class="node"><title>5</title>
<polygon fill="none" stroke="#00ff00" stroke-dasharray="5,2" points="126,-108 72,-108 72,-72 126,-72 126,-108"/>
<text text-anchor="middle" x="99" y="-86.3" font-family="Times,serif" font-size="14.00">2</text>
</g>
<!-- 1&#45;&gt;5 -->
<g id="edge6" class="edge"><title>1&#45;&gt;5</title>
<path fill="none" stroke="#00ff00" stroke-dasharray="5,2" d="M44.7978,-143.697C53.604,-135.135 64.3821,-124.656 74.0011,-115.304"/>
<polygon fill="#00ff00" stroke="#00ff00" points="76.6768,-117.585 81.407,-108.104 71.7972,-112.566 76.6768,-117.585"/>
</g>
<!-- 2 -->
<g id="node2" class="node"><title>2</title>
<path fill="#00ff00" stroke="#00ff00" d="M114,-180C114,-180 84,-180 84,-180 78,-180 72,-174 72,-168 72,-168 72,-156 72,-156 72,-150 78,-144 84,-144 84,-144 114,-144 114,-144 120,-144 126,-150 126,-156 126,-156 126,-168 126,-168 126,-174 120,-180 114,-180"/>
<text text-anchor="middle" x="99" y="-158.3" font-family="Times,serif" font-size="14.00">1, 3</text>
</g>
<!-- 2&#45;&gt;3 -->
<g id="edge4" class="edge"><title>2&#45;&gt;3</title>
<path fill="none" stroke="#00ff00" stroke-dasharray="5,2" d="M81.2022,-143.697C72.396,-135.135 61.6179,-124.656 51.9989,-115.304"/>
<polygon fill="#00ff00" stroke="#00ff00" points="54.2028,-112.566 44.593,-108.104 49.3232,-117.585 54.2028,-112.566"/>
</g>
<!-- 6 -->
<g id="node6" class="node"><title>6</title>
<polygon fill="none" stroke="#00ff00" stroke-dasharray="5,2" points="198,-108 144,-108 144,-72 198,-72 198,-108"/>
<text text-anchor="middle" x="171" y="-86.3" font-family="Times,serif" font-size="14.00">1</text>
</g>
<!-- 2&#45;&gt;6 -->
<g id="edge8" class="edge"><title>2&#45;&gt;6</title>
<path fill="none" stroke="#00ff00" stroke-dasharray="5,2" d="M116.798,-143.697C125.604,-135.135 136.382,-124.656 146.001,-115.304"/>
<polygon fill="#00ff00" stroke="#00ff00" points="148.677,-117.585 153.407,-108.104 143.797,-112.566 148.677,-117.585"/>
</g>
<!-- 7 -->
<g id="node7" class="node"><title>7</title>
<polygon fill="none" stroke="#00ff00" stroke-dasharray="5,2" points="126,-36 72,-36 72,-0 126,-0 126,-36"/>
</g>
<!-- 3&#45;&gt;7 -->
<g id="edge10" class="edge"><title>3&#45;&gt;7</title>
<path fill="none" stroke="#00ff00" stroke-dasharray="5,2" d="M44.7978,-71.6966C53.604,-63.135 64.3821,-52.6562 74.0011,-43.3045"/>
<polygon fill="#00ff00" stroke="#00ff00" points="76.6768,-45.5846 81.407,-36.1043 71.7972,-40.5657 76.6768,-45.5846"/>
</g>
<!-- 4 -->
<g id="node4" class="node"><title>4</title>
<path fill="#00ff00" stroke="#00ff00" d="M186,-180C186,-180 156,-180 156,-180 150,-180 144,-174 144,-168 144,-168 144,-156 144,-156 144,-150 150,-144 156,-144 156,-144 186,-144 186,-144 192,-144 198,-150 198,-156 198,-156 198,-168 198,-168 198,-174 192,-180 186,-180"/>
<text text-anchor="middle" x="171" y="-158.3" font-family="Times,serif" font-size="14.00">1, 2</text>
</g>
<!-- 4&#45;&gt;5 -->
<g id="edge7" class="edge"><title>4&#45;&gt;5</title>
<path fill="none" stroke="#00ff00" stroke-dasharray="5,2" d="M153.202,-143.697C144.396,-135.135 133.618,-124.656 123.999,-115.304"/>
<polygon fill="#00ff00" stroke="#00ff00" points="126.203,-112.566 116.593,-108.104 121.323,-117.585 126.203,-112.566"/>
</g>
<!-- 4&#45;&gt;6 -->
<g id="edge9" class="edge"><title>4&#45;&gt;6</title>
<path fill="none" stroke="#00ff00" stroke-dasharray="5,2" d="M171,-143.697C171,-135.983 171,-126.712 171,-118.112"/>
<polygon fill="#00ff00" stroke="#00ff00" points="174.5,-118.104 171,-108.104 167.5,-118.104 174.5,-118.104"/>
</g>
<!-- 5&#45;&gt;7 -->
<g id="edge11" class="edge"><title>5&#45;&gt;7</title>
<path fill="none" stroke="#00ff00" stroke-dasharray="5,2" d="M99,-71.6966C99,-63.9827 99,-54.7125 99,-46.1124"/>
<polygon fill="#00ff00" stroke="#00ff00" points="102.5,-46.1043 99,-36.1043 95.5001,-46.1044 102.5,-46.1043"/>
</g>
<!-- 6&#45;&gt;7 -->
<g id="edge12" class="edge"><title>6&#45;&gt;7</title>
<path fill="none" stroke="#00ff00" stroke-dasharray="5,2" d="M153.202,-71.6966C144.396,-63.135 133.618,-52.6562 123.999,-43.3045"/>
<polygon fill="#00ff00" stroke="#00ff00" points="126.203,-40.5657 116.593,-36.1043 121.323,-45.5846 126.203,-40.5657"/>
</g>
<!-- 0 -->
<g id="node8" class="node"><title>0</title>
<polygon fill="#ff0000" stroke="#ff0000" points="135.372,-226.544 135.372,-241.456 114.066,-252 83.9342,-252 62.6281,-241.456 62.6281,-226.544 83.9342,-216 114.066,-216 135.372,-226.544"/>
<text text-anchor="middle" x="99" y="-230.3" font-family="Times,serif" font-size="14.00">1, 2, 3</text>
</g>
<!-- 0&#45;&gt;1 -->
<g id="edge1" class="edge"><title>0&#45;&gt;1</title>
<path fill="none" stroke="#0000ff" d="M82.3008,-216.765C71.0013,-205.779 56.1002,-191.292 44.6132,-180.124"/>
</g>
<!-- 0&#45;&gt;2 -->
<g id="edge2" class="edge"><title>0&#45;&gt;2</title>
<path fill="none" stroke="#0000ff" d="M99,-215.697C99,-204.846 99,-190.917 99,-180.104"/>
</g>
<!-- 0&#45;&gt;4 -->
<g id="edge5" class="edge"><title>0&#45;&gt;4</title>
<path fill="none" stroke="#0000ff" d="M115.699,-216.765C126.999,-205.779 141.9,-191.292 153.387,-180.124"/>
</g>
</g>
</svg>
