<?xml version="1.0" encoding="UTF-8" standalone="no"?>
<!DOCTYPE svg PUBLIC "-//W3C//DTD SVG 1.1//EN"
 "http://www.w3.org/Graphics/SVG/1.1/DTD/svg11.dtd">
<!-- Generated by graphviz version 2.36.0 (20140111.2315)
 -->
<!-- Title: %3 Pages: 1 -->
<svg width="258pt" height="149pt"
 viewBox="0.00 0.00 258.00 149.00" xmlns="http://www.w3.org/2000/svg" xmlns:xlink="http://www.w3.org/1999/xlink">
<g id="graph0" class="graph" transform="scale(1 1) rotate(0) translate(4 145)">
<title>%3</title>
<polygon fill="white" stroke="none" points="-4,4 -4,-145 254,-145 254,4 -4,4"/>
<!-- 1.B -->
<g id="node1" class="node"><title>1.B</title>
<polygon fill="#ccffcc" stroke="black" points="152,-141 98,-141 98,-105 152,-105 152,-141"/>
<text text-anchor="middle" x="125" y="-119.3" font-family="Times,serif" font-size="14.00">1.B</text>
</g>
<!-- 1.A -->
<g id="node2" class="node"><title>1.A</title>
<polygon fill="#ccffcc" stroke="black" points="54,-90 0,-90 0,-54 54,-54 54,-90"/>
<text text-anchor="middle" x="27" y="-68.3" font-family="Times,serif" font-size="14.00">1.A</text>
</g>
<!-- 1.B&#45;&gt;1.A -->
<g id="edge1" class="edge"><title>1.B&#45;&gt;1.A</title>
<path fill="none" stroke="#000000" stroke-width="3" d="M97.7676,-109.064C87.0792,-103.386 74.5638,-96.737 63.1069,-90.6505"/>
<polygon fill="#000000" stroke="#000000" stroke-width="3" points="64.6739,-87.5198 54.2007,-85.9191 61.3898,-93.7016 64.6739,-87.5198"/>
<text text-anchor="middle" x="76" y="-102.8" font-family="Times,serif" font-size="14.00">3</text>
</g>
<!-- 1.C -->
<g id="node3" class="node"><title>1.C</title>
<polygon fill="#ccffcc" stroke="black" points="152,-36 98,-36 98,-0 152,-0 152,-36"/>
<text text-anchor="middle" x="125" y="-14.3" font-family="Times,serif" font-size="14.00">1.C</text>
</g>
<!-- 1.C&#45;&gt;1.A -->
<g id="edge2" class="edge"><title>1.C&#45;&gt;1.A</title>
<path fill="none" stroke="#000000" stroke-width="3" d="M97.9925,-29.6611C89.5753,-33.6573 80.2797,-38.3093 72,-43 68.9627,-44.7207 65.8533,-46.5727 62.7609,-48.4787"/>
<polygon fill="#000000" stroke="#000000" stroke-width="3" points="60.7359,-45.6183 54.1642,-53.9287 64.484,-51.5303 60.7359,-45.6183"/>
<text text-anchor="middle" x="76" y="-46.8" font-family="Times,serif" font-size="14.00">3</text>
</g>
<!-- 2.D -->
<g id="node4" class="node"><title>2.D</title>
<polygon fill="#ffffcc" stroke="black" points="250,-64.5442 250,-79.4558 234.184,-90 211.816,-90 196,-79.4558 196,-64.5442 211.816,-54 234.184,-54 250,-64.5442"/>
<text text-anchor="middle" x="223" y="-68.3" font-family="Times,serif" font-size="14.00">2.D</text>
</g>
<!-- 2.D&#45;&gt;1.B -->
<g id="edge4" class="edge"><title>2.D&#45;&gt;1.B</title>
<path fill="none" stroke="#761212" d="M201.169,-83.0662C189.52,-89.255 174.687,-97.135 161.281,-104.257"/>
<polygon fill="#761212" stroke="#761212" points="159.473,-101.254 152.284,-109.037 162.757,-107.436 159.473,-101.254"/>
<text text-anchor="middle" x="174" y="-102.8" font-family="Times,serif" font-size="14.00">1</text>
</g>
<!-- 2.D&#45;&gt;1.A -->
<g id="edge3" class="edge"><title>2.D&#45;&gt;1.A</title>
<path fill="none" stroke="#000000" stroke-width="2" d="M195.836,-72C161.897,-72 102.52,-72 64.253,-72"/>
<polygon fill="#000000" stroke="#000000" stroke-width="2" points="64.0583,-68.5001 54.0583,-72 64.0582,-75.5001 64.0583,-68.5001"/>
<text text-anchor="middle" x="125" y="-75.8" font-family="Times,serif" font-size="14.00">2</text>
</g>
<!-- 2.D&#45;&gt;1.C -->
<g id="edge5" class="edge"><title>2.D&#45;&gt;1.C</title>
<path fill="none" stroke="#761212" d="M203.506,-59.0127C195.771,-53.7928 186.597,-47.8704 178,-43 172.696,-39.995 166.975,-37.0059 161.335,-34.1949"/>
<polygon fill="#761212" stroke="#761212" points="162.531,-30.8851 152.007,-29.6611 159.471,-37.1807 162.531,-30.8851"/>
<text text-anchor="middle" x="174" y="-46.8" font-family="Times,serif" font-size="14.00">1</text>
</g>
</g>
</svg>
