<?xml version="1.0" encoding="UTF-8" standalone="no"?>
<!DOCTYPE svg PUBLIC "-//W3C//DTD SVG 1.1//EN"
 "http://www.w3.org/Graphics/SVG/1.1/DTD/svg11.dtd">
<!-- Generated by graphviz version 2.36.0 (20140111.2315)
 -->
<!-- Title: %3 Pages: 1 -->
<svg width="260pt" height="213pt"
 viewBox="0.00 0.00 260.00 213.00" xmlns="http://www.w3.org/2000/svg" xmlns:xlink="http://www.w3.org/1999/xlink">
<g id="graph0" class="graph" transform="scale(1 1) rotate(0) translate(4 209)">
<title>%3</title>
<polygon fill="white" stroke="none" points="-4,4 -4,-209 256,-209 256,4 -4,4"/>
<!-- 1.A -->
<g id="node1" class="node"><title>1.A</title>
<polygon fill="#ccffcc" stroke="black" points="54,-63 0,-63 0,-27 54,-27 54,-63"/>
<text text-anchor="middle" x="27" y="-41.3" font-family="Times,serif" font-size="14.00">1.A</text>
</g>
<!-- 1.B -->
<g id="node2" class="node"><title>1.B</title>
<polygon fill="#ccffcc" stroke="black" points="144,-90 90,-90 90,-54 144,-54 144,-90"/>
<text text-anchor="middle" x="117" y="-68.3" font-family="Times,serif" font-size="14.00">1.B</text>
</g>
<!-- 1.B&#45;&gt;1.A -->
<g id="edge1" class="edge"><title>1.B&#45;&gt;1.A</title>
<path fill="none" stroke="#000000" d="M89.5971,-63.8991C81.519,-61.4206 72.4933,-58.6514 63.8954,-56.0134"/>
<polygon fill="#000000" stroke="#000000" points="64.6678,-52.5894 54.081,-53.0021 62.6145,-59.2815 64.6678,-52.5894"/>
</g>
<!-- 1.C -->
<g id="node3" class="node"><title>1.C</title>
<polygon fill="#ccffcc" stroke="black" points="144,-36 90,-36 90,-0 144,-0 144,-36"/>
<text text-anchor="middle" x="117" y="-14.3" font-family="Times,serif" font-size="14.00">1.C</text>
</g>
<!-- 1.C&#45;&gt;1.A -->
<g id="edge2" class="edge"><title>1.C&#45;&gt;1.A</title>
<path fill="none" stroke="#000000" d="M89.5971,-26.1009C81.519,-28.5794 72.4933,-31.3486 63.8954,-33.9866"/>
<polygon fill="#000000" stroke="#000000" points="62.6145,-30.7185 54.081,-36.9979 64.6678,-37.4106 62.6145,-30.7185"/>
</g>
<!-- 2.D -->
<g id="node4" class="node"><title>2.D</title>
<polygon fill="#ffffcc" stroke="black" points="243,-10.5442 243,-25.4558 227.184,-36 204.816,-36 189,-25.4558 189,-10.5442 204.816,-3.55271e-15 227.184,-0 243,-10.5442"/>
<text text-anchor="middle" x="216" y="-14.3" font-family="Times,serif" font-size="14.00">2.D</text>
</g>
<!-- 2.D&#45;&gt;1.C -->
<g id="edge3" class="edge"><title>2.D&#45;&gt;1.C</title>
<path fill="none" stroke="#ff0000" d="M188.75,-18C178.183,-18 165.816,-18 154.404,-18"/>
<polygon fill="#ff0000" stroke="#ff0000" points="154.271,-14.5001 144.271,-18 154.271,-21.5001 154.271,-14.5001"/>
</g>
<!-- Legend -->
<g id="node5" class="node"><title>Legend</title>
<polygon fill="white" stroke="black" points="251.5,-205.5 180.5,-205.5 180.5,-54.5 251.5,-54.5 251.5,-205.5"/>
<polygon fill="none" stroke="black" points="181,-179 181,-205 252,-205 252,-179 181,-179"/>
<text text-anchor="start" x="192" y="-188.3" font-family="Arial Black" font-size="14.00"> Nodes</text>
<polygon fill="#ccffcc" stroke="none" points="181,-154 181,-179 235,-179 235,-154 181,-154"/>
<polygon fill="none" stroke="black" points="181,-154 181,-179 235,-179 235,-154 181,-154"/>
<text text-anchor="start" x="204.5" y="-162.8" font-family="Times,serif" font-size="14.00">1</text>
<polygon fill="none" stroke="black" points="235,-154 235,-179 252,-179 252,-154 235,-154"/>
<text text-anchor="start" x="240" y="-162.8" font-family="Times,serif" font-size="14.00">3</text>
<polygon fill="#ffffcc" stroke="none" points="181,-129 181,-154 235,-154 235,-129 181,-129"/>
<polygon fill="none" stroke="black" points="181,-129 181,-154 235,-154 235,-129 181,-129"/>
<text text-anchor="start" x="204.5" y="-137.8" font-family="Times,serif" font-size="14.00">2</text>
<polygon fill="none" stroke="black" points="235,-129 235,-154 252,-154 252,-129 235,-129"/>
<text text-anchor="start" x="240" y="-137.8" font-family="Times,serif" font-size="14.00">1</text>
<polygon fill="none" stroke="black" points="181,-104 181,-129 252,-129 252,-104 181,-104"/>
<text text-anchor="start" x="190.5" y="-112.8" font-family="Arial Black" font-size="14.00"> Edges </text>
<polygon fill="none" stroke="black" points="181,-79 181,-104 235,-104 235,-79 181,-79"/>
<text text-anchor="start" x="194" y="-87.8" font-family="Times,serif" font-size="14.00" fill="#000000">input</text>
<polygon fill="none" stroke="black" points="235,-79 235,-104 252,-104 252,-79 235,-79"/>
<text text-anchor="start" x="240" y="-87.8" font-family="Times,serif" font-size="14.00">2</text>
<polygon fill="none" stroke="black" points="181,-54 181,-79 235,-79 235,-54 181,-54"/>
<text text-anchor="start" x="186.5" y="-62.8" font-family="Times,serif" font-size="14.00" fill="#ff0000">inferred</text>
<polygon fill="none" stroke="black" points="235,-54 235,-79 252,-79 252,-54 235,-54"/>
<text text-anchor="start" x="240" y="-62.8" font-family="Times,serif" font-size="14.00">1</text>
</g>
</g>
</svg>
