<?xml version="1.0" encoding="UTF-8" standalone="no"?>
<!DOCTYPE svg PUBLIC "-//W3C//DTD SVG 1.1//EN"
 "http://www.w3.org/Graphics/SVG/1.1/DTD/svg11.dtd">
<!-- Generated by graphviz version 2.36.0 (20140111.2315)
 -->
<!-- Title: %3 Pages: 1 -->
<svg width="260pt" height="267pt"
 viewBox="0.00 0.00 260.00 267.00" xmlns="http://www.w3.org/2000/svg" xmlns:xlink="http://www.w3.org/1999/xlink">
<g id="graph0" class="graph" transform="scale(1 1) rotate(0) translate(4 263)">
<title>%3</title>
<polygon fill="white" stroke="none" points="-4,4 -4,-263 256,-263 256,4 -4,4"/>
<!-- 1.A -->
<g id="node1" class="node"><title>1.A</title>
<polygon fill="#ccffcc" stroke="black" points="54,-63 0,-63 0,-27 54,-27 54,-63"/>
<text text-anchor="middle" x="27" y="-41.3" font-family="Times,serif" font-size="14.00">1.A</text>
</g>
<!-- 1.B -->
<g id="node2" class="node"><title>1.B</title>
<polygon fill="#ccffcc" stroke="black" points="144,-90 90,-90 90,-54 144,-54 144,-90"/>
<text text-anchor="middle" x="117" y="-68.3" font-family="Times,serif" font-size="14.00">1.B</text>
</g>
<!-- 1.B&#45;&gt;1.A -->
<g id="edge1" class="edge"><title>1.B&#45;&gt;1.A</title>
<path fill="none" stroke="#000000" d="M89.5971,-63.8991C81.519,-61.4206 72.4933,-58.6514 63.8954,-56.0134"/>
<polygon fill="#000000" stroke="#000000" points="64.6678,-52.5894 54.081,-53.0021 62.6145,-59.2815 64.6678,-52.5894"/>
</g>
<!-- 1.C -->
<g id="node3" class="node"><title>1.C</title>
<polygon fill="#ccffcc" stroke="black" points="144,-36 90,-36 90,-0 144,-0 144,-36"/>
<text text-anchor="middle" x="117" y="-14.3" font-family="Times,serif" font-size="14.00">1.C</text>
</g>
<!-- 1.C&#45;&gt;1.A -->
<g id="edge2" class="edge"><title>1.C&#45;&gt;1.A</title>
<path fill="none" stroke="#000000" d="M89.5971,-26.1009C81.519,-28.5794 72.4933,-31.3486 63.8954,-33.9866"/>
<polygon fill="#000000" stroke="#000000" points="62.6145,-30.7185 54.081,-36.9979 64.6678,-37.4106 62.6145,-30.7185"/>
</g>
<!-- 2.D -->
<g id="node4" class="node"><title>2.D</title>
<polygon fill="#ffffcc" stroke="black" points="243,-64.5442 243,-79.4558 227.184,-90 204.816,-90 189,-79.4558 189,-64.5442 204.816,-54 227.184,-54 243,-64.5442"/>
<text text-anchor="middle" x="216" y="-68.3" font-family="Times,serif" font-size="14.00">2.D</text>
</g>
<!-- 2.D&#45;&gt;1.B -->
<g id="edge3" class="edge"><title>2.D&#45;&gt;1.B</title>
<path fill="none" stroke="#ff0000" d="M188.75,-72C178.183,-72 165.816,-72 154.404,-72"/>
<polygon fill="#ff0000" stroke="#ff0000" points="154.271,-68.5001 144.271,-72 154.271,-75.5001 154.271,-68.5001"/>
</g>
<!-- Legend -->
<g id="node5" class="node"><title>Legend</title>
<polygon fill="white" stroke="black" points="251.5,-259.5 180.5,-259.5 180.5,-108.5 251.5,-108.5 251.5,-259.5"/>
<polygon fill="none" stroke="black" points="181,-233 181,-259 252,-259 252,-233 181,-233"/>
<text text-anchor="start" x="192" y="-242.3" font-family="Arial Black" font-size="14.00"> Nodes</text>
<polygon fill="#ccffcc" stroke="none" points="181,-208 181,-233 235,-233 235,-208 181,-208"/>
<polygon fill="none" stroke="black" points="181,-208 181,-233 235,-233 235,-208 181,-208"/>
<text text-anchor="start" x="204.5" y="-216.8" font-family="Times,serif" font-size="14.00">1</text>
<polygon fill="none" stroke="black" points="235,-208 235,-233 252,-233 252,-208 235,-208"/>
<text text-anchor="start" x="240" y="-216.8" font-family="Times,serif" font-size="14.00">3</text>
<polygon fill="#ffffcc" stroke="none" points="181,-183 181,-208 235,-208 235,-183 181,-183"/>
<polygon fill="none" stroke="black" points="181,-183 181,-208 235,-208 235,-183 181,-183"/>
<text text-anchor="start" x="204.5" y="-191.8" font-family="Times,serif" font-size="14.00">2</text>
<polygon fill="none" stroke="black" points="235,-183 235,-208 252,-208 252,-183 235,-183"/>
<text text-anchor="start" x="240" y="-191.8" font-family="Times,serif" font-size="14.00">1</text>
<polygon fill="none" stroke="black" points="181,-158 181,-183 252,-183 252,-158 181,-158"/>
<text text-anchor="start" x="190.5" y="-166.8" font-family="Arial Black" font-size="14.00"> Edges </text>
<polygon fill="none" stroke="black" points="181,-133 181,-158 235,-158 235,-133 181,-133"/>
<text text-anchor="start" x="194" y="-141.8" font-family="Times,serif" font-size="14.00" fill="#000000">input</text>
<polygon fill="none" stroke="black" points="235,-133 235,-158 252,-158 252,-133 235,-133"/>
<text text-anchor="start" x="240" y="-141.8" font-family="Times,serif" font-size="14.00">2</text>
<polygon fill="none" stroke="black" points="181,-108 181,-133 235,-133 235,-108 181,-108"/>
<text text-anchor="start" x="186.5" y="-116.8" font-family="Times,serif" font-size="14.00" fill="#ff0000">inferred</text>
<polygon fill="none" stroke="black" points="235,-108 235,-133 252,-133 252,-108 235,-108"/>
<text text-anchor="start" x="240" y="-116.8" font-family="Times,serif" font-size="14.00">1</text>
</g>
</g>
</svg>
