<?xml version="1.0" encoding="UTF-8" standalone="no"?>
<!DOCTYPE svg PUBLIC "-//W3C//DTD SVG 1.1//EN"
 "http://www.w3.org/Graphics/SVG/1.1/DTD/svg11.dtd">
<!-- Generated by graphviz version 2.36.0 (20140111.2315)
 -->
<!-- Title: %3 Pages: 1 -->
<svg width="162pt" height="217pt"
 viewBox="0.00 0.00 162.00 217.00" xmlns="http://www.w3.org/2000/svg" xmlns:xlink="http://www.w3.org/1999/xlink">
<g id="graph0" class="graph" transform="scale(1 1) rotate(0) translate(4 213)">
<title>%3</title>
<polygon fill="white" stroke="none" points="-4,4 -4,-213 158,-213 158,4 -4,4"/>
<!-- 1.A -->
<g id="node1" class="node"><title>1.A</title>
<polygon fill="#ccffcc" stroke="black" points="54,-63 0,-63 0,-27 54,-27 54,-63"/>
<text text-anchor="middle" x="27" y="-41.3" font-family="Times,serif" font-size="14.00">1.A</text>
</g>
<!-- 1.B -->
<g id="node2" class="node"><title>1.B</title>
<polygon fill="#ccffcc" stroke="black" points="149,-90 95,-90 95,-54 149,-54 149,-90"/>
<text text-anchor="middle" x="122" y="-68.3" font-family="Times,serif" font-size="14.00">1.B</text>
</g>
<!-- 1.B&#45;&gt;1.A -->
<g id="edge1" class="edge"><title>1.B&#45;&gt;1.A</title>
<path fill="none" stroke="#000000" d="M94.5987,-64.3351C85.0936,-61.5756 74.2012,-58.4132 64.0165,-55.4564"/>
<polygon fill="#000000" stroke="#000000" points="64.7248,-52.0176 54.1454,-52.5906 62.773,-58.74 64.7248,-52.0176"/>
</g>
<!-- 1.C -->
<g id="node3" class="node"><title>1.C</title>
<polygon fill="#ccffcc" stroke="black" points="149,-36 95,-36 95,-0 149,-0 149,-36"/>
<text text-anchor="middle" x="122" y="-14.3" font-family="Times,serif" font-size="14.00">1.C</text>
</g>
<!-- 1.C&#45;&gt;1.A -->
<g id="edge2" class="edge"><title>1.C&#45;&gt;1.A</title>
<path fill="none" stroke="#000000" d="M94.5987,-25.6649C85.0936,-28.4244 74.2012,-31.5868 64.0165,-34.5436"/>
<polygon fill="#000000" stroke="#000000" points="62.773,-31.26 54.1454,-37.4094 64.7248,-37.9824 62.773,-31.26"/>
</g>
<!-- Legend -->
<g id="node4" class="node"><title>Legend</title>
<polygon fill="white" stroke="black" points="153.5,-209.5 90.5,-209.5 90.5,-108.5 153.5,-108.5 153.5,-209.5"/>
<polygon fill="none" stroke="black" points="91,-183 91,-209 154,-209 154,-183 91,-183"/>
<text text-anchor="start" x="98" y="-192.3" font-family="Arial Black" font-size="14.00"> Nodes</text>
<polygon fill="#ccffcc" stroke="none" points="91,-158 91,-183 133,-183 133,-158 91,-158"/>
<polygon fill="none" stroke="black" points="91,-158 91,-183 133,-183 133,-158 91,-158"/>
<text text-anchor="start" x="108.5" y="-166.8" font-family="Times,serif" font-size="14.00">1</text>
<polygon fill="none" stroke="black" points="133,-158 133,-183 154,-183 154,-158 133,-158"/>
<text text-anchor="start" x="140" y="-166.8" font-family="Times,serif" font-size="14.00">3</text>
<polygon fill="none" stroke="black" points="91,-133 91,-158 154,-158 154,-133 91,-133"/>
<text text-anchor="start" x="96.5" y="-141.8" font-family="Arial Black" font-size="14.00"> Edges </text>
<polygon fill="none" stroke="black" points="91,-108 91,-133 133,-133 133,-108 91,-108"/>
<text text-anchor="start" x="98" y="-116.8" font-family="Times,serif" font-size="14.00" fill="#000000">input</text>
<polygon fill="none" stroke="black" points="133,-108 133,-133 154,-133 154,-108 133,-108"/>
<text text-anchor="start" x="140" y="-116.8" font-family="Times,serif" font-size="14.00">2</text>
</g>
</g>
</svg>
